STARTFONT 2.1
COMMENT
COMMENT Converted from TrueType font "GOTHIC.TTF" by "ttf2bdf 2.6".
COMMENT
FONT -FreeType-Century Gothic-Medium-R-Normal--33-240-100-100-P-167-ISO10646-1
SIZE 24 100 100
FONTBOUNDINGBOX 44 47 -6 -10
STARTPROPERTIES 21
FOUNDRY "FreeType"
FAMILY_NAME "Century Gothic"
WEIGHT_NAME "Medium"
SLANT "R"
SETWIDTH_NAME "Normal"
ADD_STYLE_NAME ""
PIXEL_SIZE 33
POINT_SIZE 240
RESOLUTION_X 100
RESOLUTION_Y 100
SPACING "P"
AVERAGE_WIDTH 167
CHARSET_REGISTRY "ISO10646"
CHARSET_ENCODING "1"
FONT_ASCENT 33
FONT_DESCENT 7
COPYRIGHT "Typeface © The Monotype Corporation plc. Data © The Monotype Corporation plc / Type Solutions Inc. 1990-91 All Rights Reserved"
_TTF_FONTFILE "GOTHIC.TTF"
_TTF_PSNAME "CenturyGothic"
_XFREE86_GLYPH_RANGES "32_126 160_383 402 506_511 710_711 713 728_733 894 900_906 908 910_929 931_974 1025_1036 1038_1103 1105_1116 1118_1119 1168_1169 7808_7813 7922_7923 8211_8213 8215_8222 8224_8226 8230 8240 8242_8243 8249_8250 8252 8254 8260 8319 8355_8356 8359 8364 8453 8467 8470 8482 8486 8494 8539_8542 8592_8597 8616 8706 8710 8719 8721_8722 8725 8729_8730 8734_8735 8745 8747 8776 8800_8801 8804_8805 8962 8976 8992_8993 9472 9474 9484 9488 9492 9496 9500 9508 9516 9524 9532 9552_9580 9600 9604 9608"
_XFREE86_GLYPH_RANGES "9612 9616_9619 9632_9633 9642_9644 9650 9658 9660 9668 9674_9675 9679 9688_9689 9702 9786_9788 9792 9794 9824 9827 9829_9830 9834_9835 61440_61446 61696_61704 64257_64258"
ENDPROPERTIES
CHARS 668
STARTCHAR 0020
ENCODING 32
SWIDTH 270 0
DWIDTH 9 0
BBX 1 1 0 0
BITMAP
00
ENDCHAR
STARTCHAR 0021
ENCODING 33
SWIDTH 300 0
DWIDTH 10 0
BBX 4 25 3 0
BITMAP
60
60
60
60
60
60
60
60
60
60
60
60
60
60
60
60
60
60
60
00
00
60
F0
F0
60
ENDCHAR
STARTCHAR 0022
ENCODING 34
SWIDTH 300 0
DWIDTH 10 0
BBX 8 7 1 18
BITMAP
C3
C3
C3
C3
C3
C3
C3
ENDCHAR
STARTCHAR 0023
ENCODING 35
SWIDTH 720 0
DWIDTH 24 0
BBX 18 25 3 0
BITMAP
018600
018600
018600
038E00
030C00
030C00
030C00
7FFFC0
7FFFC0
071C00
061800
061800
061800
061800
061800
FFFF80
FFFF80
0C3000
0C3000
0C3000
0C3000
0C3000
186000
186000
186000
ENDCHAR
STARTCHAR 0024
ENCODING 36
SWIDTH 540 0
DWIDTH 18 0
BBX 16 31 1 -5
BITMAP
0180
0180
07E0
0FF0
19BC
3998
3180
3180
3180
3980
1D80
1F80
0780
03E0
01F8
01BC
018E
0187
0183
0183
0183
4183
E186
799E
3FF8
0FE0
0180
0180
0180
0180
0180
ENDCHAR
STARTCHAR 0025
ENCODING 37
SWIDTH 780 0
DWIDTH 26 0
BBX 24 25 1 -1
BITMAP
1F0078
3FFFF0
71FF60
E0C0E0
C060C0
C06180
C06380
E0E300
71C600
3F8E00
1F0C00
001800
003800
0030F8
0061FC
00C38E
00C707
018603
030603
070603
060707
0C038E
1C01FC
1800F8
300000
ENDCHAR
STARTCHAR 0026
ENCODING 38
SWIDTH 750 0
DWIDTH 25 0
BBX 21 24 3 0
BITMAP
03C000
0FF000
1C3000
181800
181800
181800
1C3800
0C7000
067000
07E000
03C000
078000
1EC000
3C6000
703000
601840
E01CE0
C00FC0
C00700
C00F80
E01DC0
7078E0
3FE070
1F8038
ENDCHAR
STARTCHAR 0027
ENCODING 39
SWIDTH 210 0
DWIDTH 7 0
BBX 2 7 2 18
BITMAP
C0
C0
C0
C0
C0
C0
C0
ENDCHAR
STARTCHAR 0028
ENCODING 40
SWIDTH 330 0
DWIDTH 11 0
BBX 5 30 4 -6
BITMAP
18
30
30
30
60
60
60
60
60
C0
C0
C0
C0
C0
C0
C0
C0
C0
C0
C0
C0
C0
C0
60
60
60
60
60
30
30
ENDCHAR
STARTCHAR 0029
ENCODING 41
SWIDTH 360 0
DWIDTH 12 0
BBX 6 30 2 -6
BITMAP
60
30
30
30
18
18
18
18
0C
0C
0C
0C
0C
0C
0C
0C
0C
0C
0C
0C
18
18
18
18
30
30
30
60
60
C0
ENDCHAR
STARTCHAR 002A
ENCODING 42
SWIDTH 450 0
DWIDTH 15 0
BBX 12 12 1 13
BITMAP
0600
0600
4620
E670
7FE0
0F00
0F00
7FE0
E670
4620
0600
0600
ENDCHAR
STARTCHAR 002B
ENCODING 43
SWIDTH 600 0
DWIDTH 20 0
BBX 16 16 2 4
BITMAP
0180
0180
0180
0180
0180
0180
0180
FFFF
FFFF
0180
0180
0180
0180
0180
0180
0180
ENDCHAR
STARTCHAR 002C
ENCODING 44
SWIDTH 270 0
DWIDTH 9 0
BBX 5 7 2 -3
BITMAP
10
38
30
70
60
E0
C0
ENDCHAR
STARTCHAR 002D
ENCODING 45
SWIDTH 330 0
DWIDTH 11 0
BBX 9 2 1 8
BITMAP
FF80
FF80
ENDCHAR
STARTCHAR 002E
ENCODING 46
SWIDTH 270 0
DWIDTH 9 0
BBX 4 4 3 0
BITMAP
60
F0
F0
60
ENDCHAR
STARTCHAR 002F
ENCODING 47
SWIDTH 420 0
DWIDTH 14 0
BBX 12 28 1 -3
BITMAP
0030
0060
0060
0060
00C0
00C0
00C0
0180
0180
0180
0300
0300
0700
0600
0600
0E00
0C00
0C00
1800
1800
1800
3000
3000
3000
6000
6000
6000
C000
ENDCHAR
STARTCHAR 0030
ENCODING 48
SWIDTH 540 0
DWIDTH 18 0
BBX 16 24 1 0
BITMAP
07C0
0FF0
3C38
301C
700E
6006
6006
C003
C003
C003
C003
C003
C003
C003
C003
C003
C007
6006
6006
700E
300C
3C38
1FF0
07E0
ENDCHAR
STARTCHAR 0031
ENCODING 49
SWIDTH 540 0
DWIDTH 18 0
BBX 6 24 4 0
BITMAP
7C
FC
0C
0C
0C
0C
0C
0C
0C
0C
0C
0C
0C
0C
0C
0C
0C
0C
0C
0C
0C
0C
0C
0C
ENDCHAR
STARTCHAR 0032
ENCODING 50
SWIDTH 540 0
DWIDTH 18 0
BBX 16 24 1 0
BITMAP
03F0
0FF8
1C1C
380E
3007
7003
6003
6003
0003
0007
0006
000C
001C
0038
0070
00E0
01C0
0380
0700
0E00
1C00
3800
7FFF
FFFF
ENDCHAR
STARTCHAR 0033
ENCODING 51
SWIDTH 540 0
DWIDTH 18 0
BBX 16 24 1 0
BITMAP
07E0
0FF8
1C3C
380C
7006
6006
0006
0006
000C
003C
01F8
01F8
003C
000E
0007
0003
0003
C003
C003
6006
700E
381C
1FF8
07E0
ENDCHAR
STARTCHAR 0034
ENCODING 52
SWIDTH 540 0
DWIDTH 18 0
BBX 16 24 1 0
BITMAP
0008
0008
0018
0038
0038
0078
00F8
00D8
0198
0398
0318
0618
0E18
0C18
1818
3818
3018
7FFF
FFFF
0018
0018
0018
0018
0018
ENDCHAR
STARTCHAR 0035
ENCODING 53
SWIDTH 540 0
DWIDTH 18 0
BBX 15 24 1 0
BITMAP
0FFC
0FFC
0C00
1800
1800
1800
1800
1800
3FC0
3FF0
3038
001C
000C
0006
0006
0006
0006
0006
C00E
E00C
601C
7878
3FF0
0FC0
ENDCHAR
STARTCHAR 0036
ENCODING 54
SWIDTH 540 0
DWIDTH 18 0
BBX 14 24 2 0
BITMAP
0040
00C0
01C0
0180
0300
0300
0600
0E00
0C00
1800
3FC0
3FE0
7070
6038
E01C
C00C
C00C
C00C
C00C
E01C
6018
3870
1FE0
0F80
ENDCHAR
STARTCHAR 0037
ENCODING 55
SWIDTH 540 0
DWIDTH 18 0
BBX 14 24 3 0
BITMAP
FFFC
FFF8
0018
0030
0030
0060
0060
00C0
00C0
0180
0180
0300
0300
0600
0600
0C00
0C00
1800
1800
3000
3000
6000
6000
C000
ENDCHAR
STARTCHAR 0038
ENCODING 56
SWIDTH 540 0
DWIDTH 18 0
BBX 16 24 1 0
BITMAP
07E0
1FF8
3C1C
300C
6006
6006
6006
6006
300C
3C3C
0FF0
1FF8
381C
700E
6007
C003
C003
C003
C003
E007
700E
381C
1FF8
07E0
ENDCHAR
STARTCHAR 0039
ENCODING 57
SWIDTH 540 0
DWIDTH 18 0
BBX 15 24 1 0
BITMAP
07C0
1FF0
3838
701C
E00C
C006
C006
C006
C006
E00E
700C
383C
1FF8
07F8
0030
0060
00C0
01C0
0180
0300
0700
0E00
0C00
1800
ENDCHAR
STARTCHAR 003A
ENCODING 58
SWIDTH 270 0
DWIDTH 9 0
BBX 4 18 3 0
BITMAP
60
F0
F0
60
00
00
00
00
00
00
00
00
00
00
60
F0
F0
60
ENDCHAR
STARTCHAR 003B
ENCODING 59
SWIDTH 270 0
DWIDTH 9 0
BBX 5 21 2 -3
BITMAP
30
78
78
30
00
00
00
00
00
00
00
00
00
00
10
38
30
70
60
E0
C0
ENDCHAR
STARTCHAR 003C
ENCODING 60
SWIDTH 600 0
DWIDTH 20 0
BBX 17 17 1 3
BITMAP
000080
000380
000F00
007C00
01F000
07C000
1E0000
780000
E00000
780000
1E0000
07C000
01F000
007C00
000F00
000380
000080
ENDCHAR
STARTCHAR 003D
ENCODING 61
SWIDTH 600 0
DWIDTH 20 0
BBX 16 9 2 7
BITMAP
FFFF
FFFF
0000
0000
0000
0000
0000
FFFF
FFFF
ENDCHAR
STARTCHAR 003E
ENCODING 62
SWIDTH 600 0
DWIDTH 20 0
BBX 17 17 1 3
BITMAP
800000
E00000
780000
1F0000
07C000
01F000
003C00
000F00
000380
000F00
007C00
01F000
07C000
1F0000
780000
E00000
800000
ENDCHAR
STARTCHAR 003F
ENCODING 63
SWIDTH 600 0
DWIDTH 20 0
BBX 14 25 3 0
BITMAP
0FC0
3FF0
7838
601C
E00C
C00C
C00C
001C
0078
03F0
0F80
3E00
7800
6000
6018
6038
3070
3FE0
0FC0
0000
0000
0300
0780
0780
0300
ENDCHAR
STARTCHAR 0040
ENCODING 64
SWIDTH 870 0
DWIDTH 29 0
BBX 25 25 2 0
BITMAP
007F8000
0180E000
06001800
08000C00
10000200
20000300
20000100
407C6180
40FF6080
81C1E080
8380E080
8300E080
8600C080
8600C080
8600C100
8600C100
4701C200
4383C400
21FFC800
207CF000
10000600
08000C00
06001800
01C07000
003F8000
ENDCHAR
STARTCHAR 0041
ENCODING 65
SWIDTH 690 0
DWIDTH 23 0
BBX 21 24 1 0
BITMAP
002000
007000
007000
007000
00D800
00D800
018C00
018C00
038E00
030600
030600
060300
060300
0E0180
0FFF80
0FFF80
1800C0
1800C0
300060
300060
700070
600030
600030
C00018
ENDCHAR
STARTCHAR 0042
ENCODING 66
SWIDTH 570 0
DWIDTH 19 0
BBX 14 24 3 0
BITMAP
FF00
FFC0
C0E0
C070
C030
C030
C030
C030
C060
C1E0
FFC0
FFE0
C0F0
C038
C01C
C00C
C00C
C00C
C00C
C01C
C018
C070
FFE0
FFC0
ENDCHAR
STARTCHAR 0043
ENCODING 67
SWIDTH 810 0
DWIDTH 27 0
BBX 23 24 2 0
BITMAP
007F80
03FFE0
0780F8
0E003C
18000E
300004
700000
600000
E00000
C00000
C00000
C00000
C00000
C00000
C00000
E00000
600000
700000
300004
18000E
1E003C
0780F8
03FFE0
007F80
ENDCHAR
STARTCHAR 0044
ENCODING 68
SWIDTH 750 0
DWIDTH 25 0
BBX 20 24 3 0
BITMAP
FFE000
FFFC00
C03F00
C00780
C001C0
C000C0
C000E0
C00060
C00070
C00030
C00030
C00030
C00030
C00030
C00030
C00030
C00060
C00060
C000E0
C001C0
C00380
C01F00
FFFE00
FFF000
ENDCHAR
STARTCHAR 0045
ENCODING 69
SWIDTH 540 0
DWIDTH 18 0
BBX 14 24 3 0
BITMAP
FFFC
FFFC
C000
C000
C000
C000
C000
C000
C000
C000
FFFC
FFFC
C000
C000
C000
C000
C000
C000
C000
C000
C000
C000
FFFC
FFFC
ENDCHAR
STARTCHAR 0046
ENCODING 70
SWIDTH 480 0
DWIDTH 16 0
BBX 12 24 3 0
BITMAP
FFF0
FFF0
C000
C000
C000
C000
C000
C000
C000
C000
FFF0
FFF0
C000
C000
C000
C000
C000
C000
C000
C000
C000
C000
C000
C000
ENDCHAR
STARTCHAR 0047
ENCODING 71
SWIDTH 870 0
DWIDTH 29 0
BBX 25 24 2 0
BITMAP
007F0000
03FFE000
0781F800
0E003C00
1C001E00
30000400
70000000
60000000
E0000000
C0000000
C0000000
C0000000
C001FF80
C001FF80
C0000180
60000180
60000300
70000300
38000600
1C000E00
0E001C00
07C07800
03FFF000
007F8000
ENDCHAR
STARTCHAR 0048
ENCODING 72
SWIDTH 690 0
DWIDTH 23 0
BBX 17 24 3 0
BITMAP
C00180
C00180
C00180
C00180
C00180
C00180
C00180
C00180
C00180
C00180
FFFF80
FFFF80
C00180
C00180
C00180
C00180
C00180
C00180
C00180
C00180
C00180
C00180
C00180
C00180
ENDCHAR
STARTCHAR 0049
ENCODING 73
SWIDTH 240 0
DWIDTH 8 0
BBX 2 24 3 0
BITMAP
C0
C0
C0
C0
C0
C0
C0
C0
C0
C0
C0
C0
C0
C0
C0
C0
C0
C0
C0
C0
C0
C0
C0
C0
ENDCHAR
STARTCHAR 004A
ENCODING 74
SWIDTH 480 0
DWIDTH 16 0
BBX 12 24 1 0
BITMAP
0030
0030
0030
0030
0030
0030
0030
0030
0030
0030
0030
0030
0030
0030
0030
0030
0030
0030
0030
0030
4070
F0E0
7FC0
1F80
ENDCHAR
STARTCHAR 004B
ENCODING 75
SWIDTH 600 0
DWIDTH 20 0
BBX 16 24 3 0
BITMAP
C00E
C01C
C038
C070
C0E0
C180
C300
CE00
DC00
F800
F000
F000
F800
DC00
CE00
C700
C380
C1C0
C0E0
C070
C038
C01C
C00E
C007
ENDCHAR
STARTCHAR 004C
ENCODING 76
SWIDTH 450 0
DWIDTH 15 0
BBX 11 24 3 0
BITMAP
C000
C000
C000
C000
C000
C000
C000
C000
C000
C000
C000
C000
C000
C000
C000
C000
C000
C000
C000
C000
C000
C000
FFE0
FFE0
ENDCHAR
STARTCHAR 004D
ENCODING 77
SWIDTH 930 0
DWIDTH 31 0
BBX 27 24 2 0
BITMAP
10000100
10000300
38000300
38000780
3C000780
34000580
36000D80
32000D80
33001980
33001980
31803180
718031C0
70C061C0
60C060C0
6060C0C0
6060C0C0
603180C0
603180C0
601B80C0
601B00C0
E01F0060
C00E0060
C00E0060
C0040060
ENDCHAR
STARTCHAR 004E
ENCODING 78
SWIDTH 720 0
DWIDTH 24 0
BBX 18 24 3 0
BITMAP
8000C0
C000C0
C000C0
E000C0
F000C0
D800C0
DC00C0
CC00C0
C600C0
C300C0
C180C0
C1C0C0
C0C0C0
C060C0
C030C0
C018C0
C00CC0
C00CC0
C006C0
C003C0
C001C0
C000C0
C000C0
C00040
ENDCHAR
STARTCHAR 004F
ENCODING 79
SWIDTH 870 0
DWIDTH 29 0
BBX 25 24 2 0
BITMAP
007F0000
03FFE000
0780F000
0E003800
1C001C00
38000E00
70000700
60000300
60000300
C0000180
C0000180
C0000180
C0000180
C0000180
C0000180
E0000380
60000300
70000700
30000600
18000C00
0E003800
0780F000
03FFE000
007F0000
ENDCHAR
STARTCHAR 0050
ENCODING 80
SWIDTH 600 0
DWIDTH 20 0
BBX 15 24 3 0
BITMAP
FFE0
FFF8
C01C
C00C
C006
C006
C006
C006
C00C
C01C
FFF8
FFE0
C000
C000
C000
C000
C000
C000
C000
C000
C000
C000
C000
C000
ENDCHAR
STARTCHAR 0051
ENCODING 81
SWIDTH 870 0
DWIDTH 29 0
BBX 25 25 2 -1
BITMAP
007F0000
03FFE000
0780F000
0E003800
1C001C00
38000600
70000700
60000300
60000380
C0000180
C0000180
C0000180
C0000180
C0000180
C0060180
E0030300
60018300
7000C700
30006600
1C003C00
0E003800
0780FC00
03FFCE00
007F0700
00000380
ENDCHAR
STARTCHAR 0052
ENCODING 82
SWIDTH 600 0
DWIDTH 20 0
BBX 15 24 3 0
BITMAP
FFE0
FFF8
C01C
C00C
C006
C006
C006
C006
C00C
C01C
FFF8
FFE0
CE00
C600
C300
C180
C1C0
C0C0
C060
C070
C030
C018
C00C
C00E
ENDCHAR
STARTCHAR 0053
ENCODING 83
SWIDTH 480 0
DWIDTH 16 0
BBX 13 24 1 0
BITMAP
07C0
0FE0
1870
3038
3010
3000
3000
3800
1C00
0E00
0700
0380
01C0
00E0
0070
0038
0018
0018
4018
E018
7030
7870
3FE0
0F80
ENDCHAR
STARTCHAR 0054
ENCODING 84
SWIDTH 390 0
DWIDTH 13 0
BBX 12 24 0 0
BITMAP
FFF0
FFF0
0600
0600
0600
0600
0600
0600
0600
0600
0600
0600
0600
0600
0600
0600
0600
0600
0600
0600
0600
0600
0600
0600
ENDCHAR
STARTCHAR 0055
ENCODING 85
SWIDTH 630 0
DWIDTH 21 0
BBX 15 24 3 0
BITMAP
C006
C006
C006
C006
C006
C006
C006
C006
C006
C006
C006
C006
C006
C006
C006
C006
C006
C006
C006
600C
701C
3838
1FF0
07C0
ENDCHAR
STARTCHAR 0056
ENCODING 86
SWIDTH 690 0
DWIDTH 23 0
BBX 21 24 1 0
BITMAP
C00018
600030
600030
700070
300060
300060
1800C0
1800C0
0C0180
0C0180
0C0380
060300
060300
030600
030600
038E00
018C00
018C00
00D800
00D800
007000
007000
007000
002000
ENDCHAR
STARTCHAR 0057
ENCODING 87
SWIDTH 900 0
DWIDTH 30 0
BBX 27 24 1 0
BITMAP
C0040060
C0060060
600E00C0
600E00C0
601F00C0
601B00C0
301B0180
303B8180
30318180
30318180
3860C380
1860C300
1860C300
18C06300
1CC06700
0CC06600
0D803600
0D803600
0D803E00
07001C00
07001C00
06001C00
06000C00
06000800
ENDCHAR
STARTCHAR 0058
ENCODING 88
SWIDTH 600 0
DWIDTH 20 0
BBX 16 24 2 0
BITMAP
C003
E007
6006
300C
300C
1818
0C38
0C30
0660
07E0
03C0
0180
0180
03C0
07E0
0660
0C30
0C30
1818
300C
300C
6006
E007
C003
ENDCHAR
STARTCHAR 0059
ENCODING 89
SWIDTH 600 0
DWIDTH 20 0
BBX 18 24 1 0
BITMAP
E001C0
600180
300300
300300
180600
1C0E00
0C0C00
061800
073800
033000
01E000
01E000
00C000
00C000
00C000
00C000
00C000
00C000
00C000
00C000
00C000
00C000
00C000
00C000
ENDCHAR
STARTCHAR 005A
ENCODING 90
SWIDTH 480 0
DWIDTH 16 0
BBX 13 24 1 0
BITMAP
7FF8
7FF0
0030
0060
0060
00E0
00C0
01C0
0180
0180
0300
0300
0600
0600
0C00
0C00
1C00
1800
3800
3000
3000
6000
7FF8
FFF8
ENDCHAR
STARTCHAR 005B
ENCODING 91
SWIDTH 330 0
DWIDTH 11 0
BBX 5 30 5 -6
BITMAP
F8
F8
C0
C0
C0
C0
C0
C0
C0
C0
C0
C0
C0
C0
C0
C0
C0
C0
C0
C0
C0
C0
C0
C0
C0
C0
C0
C0
F8
F8
ENDCHAR
STARTCHAR 005C
ENCODING 92
SWIDTH 600 0
DWIDTH 20 0
BBX 18 28 1 -3
BITMAP
C00000
600000
700000
300000
180000
180000
0C0000
0C0000
060000
070000
030000
038000
018000
00C000
00C000
006000
007000
003000
003800
001800
000C00
000C00
000600
000600
000300
000380
000180
0000C0
ENDCHAR
STARTCHAR 005D
ENCODING 93
SWIDTH 360 0
DWIDTH 12 0
BBX 5 30 2 -6
BITMAP
F8
F8
18
18
18
18
18
18
18
18
18
18
18
18
18
18
18
18
18
18
18
18
18
18
18
18
18
18
F8
F8
ENDCHAR
STARTCHAR 005E
ENCODING 94
SWIDTH 660 0
DWIDTH 22 0
BBX 18 18 2 6
BITMAP
00C000
01E000
01E000
03F000
033000
033000
061800
061800
0C0C00
0C0C00
1C0600
180600
380700
300300
300300
600180
600180
C000C0
ENDCHAR
STARTCHAR 005F
ENCODING 95
SWIDTH 510 0
DWIDTH 17 0
BBX 18 2 -1 -4
BITMAP
FFFFC0
FFFFC0
ENDCHAR
STARTCHAR 0060
ENCODING 96
SWIDTH 360 0
DWIDTH 12 0
BBX 7 5 2 21
BITMAP
F0
78
38
1C
0E
ENDCHAR
STARTCHAR 0061
ENCODING 97
SWIDTH 690 0
DWIDTH 23 0
BBX 19 18 2 0
BITMAP
03F860
0FFE60
1E0F60
3803E0
7001E0
6000E0
E00060
C00060
C00060
C00060
C00060
E00060
6000E0
7001E0
3803E0
1E0FE0
0FFE60
03F860
ENDCHAR
STARTCHAR 0062
ENCODING 98
SWIDTH 690 0
DWIDTH 23 0
BBX 19 25 2 0
BITMAP
C00000
C00000
C00000
C00000
C00000
C00000
C00000
C3F800
CFFE00
DE0F00
F80380
F001C0
E000C0
C000E0
C00060
C00060
C00060
C00060
C000E0
E000C0
F001C0
F80380
DE0F00
CFFE00
C3F000
ENDCHAR
STARTCHAR 0063
ENCODING 99
SWIDTH 630 0
DWIDTH 21 0
BBX 17 18 2 0
BITMAP
03F000
0FFE00
1C0F00
380380
700100
600000
C00000
C00000
C00000
C00000
C00000
C00000
600000
700100
380380
1C0F00
0FFE00
03F800
ENDCHAR
STARTCHAR 0064
ENCODING 100
SWIDTH 690 0
DWIDTH 23 0
BBX 19 25 2 0
BITMAP
000060
000060
000060
000060
000060
000060
000060
03F860
0FFE60
1E0F60
3803E0
7001E0
6000E0
E00060
C00060
C00060
C00060
C00060
E00060
6000E0
7001E0
3803E0
1E0FE0
0FFE60
03F860
ENDCHAR
STARTCHAR 0065
ENCODING 101
SWIDTH 630 0
DWIDTH 21 0
BBX 17 18 2 0
BITMAP
03E000
0FF800
1C1C00
300600
600300
600300
C00180
FFFF80
FFFF80
C00000
C00000
C00000
600200
600700
300E00
3C1C00
1FF800
07E000
ENDCHAR
STARTCHAR 0066
ENCODING 102
SWIDTH 300 0
DWIDTH 10 0
BBX 8 25 1 0
BITMAP
1F
3F
30
30
30
30
30
FF
FF
30
30
30
30
30
30
30
30
30
30
30
30
30
30
30
30
ENDCHAR
STARTCHAR 0067
ENCODING 103
SWIDTH 660 0
DWIDTH 22 0
BBX 18 24 2 -6
BITMAP
03F0C0
0FFCC0
1E0EC0
3807C0
7003C0
6001C0
E000C0
C000C0
C000C0
C000C0
C000C0
C000C0
6001C0
6001C0
3003C0
1C0EC0
0FFCC0
03F0C0
0000C0
C00180
600380
380F00
1FFE00
07F000
ENDCHAR
STARTCHAR 0068
ENCODING 104
SWIDTH 600 0
DWIDTH 20 0
BBX 16 25 2 0
BITMAP
C000
C000
C000
C000
C000
C000
C000
C3F0
CFF8
DC1C
F806
F006
E003
C003
C003
C003
C003
C003
C003
C003
C003
C003
C003
C003
C003
ENDCHAR
STARTCHAR 0069
ENCODING 105
SWIDTH 210 0
DWIDTH 7 0
BBX 4 25 1 0
BITMAP
60
F0
F0
60
00
00
00
60
60
60
60
60
60
60
60
60
60
60
60
60
60
60
60
60
60
ENDCHAR
STARTCHAR 006A
ENCODING 106
SWIDTH 210 0
DWIDTH 7 0
BBX 6 31 -1 -6
BITMAP
18
3C
3C
18
00
00
00
18
18
18
18
18
18
18
18
18
18
18
18
18
18
18
18
18
18
18
18
18
18
F8
F0
ENDCHAR
STARTCHAR 006B
ENCODING 107
SWIDTH 510 0
DWIDTH 17 0
BBX 14 25 2 0
BITMAP
C000
C000
C000
C000
C000
C000
C000
C018
C030
C0E0
C1C0
C380
C700
CE00
DC00
F000
F000
DC00
CE00
C700
C380
C0E0
C070
C038
C01C
ENDCHAR
STARTCHAR 006C
ENCODING 108
SWIDTH 180 0
DWIDTH 6 0
BBX 2 25 2 0
BITMAP
C0
C0
C0
C0
C0
C0
C0
C0
C0
C0
C0
C0
C0
C0
C0
C0
C0
C0
C0
C0
C0
C0
C0
C0
C0
ENDCHAR
STARTCHAR 006D
ENCODING 109
SWIDTH 900 0
DWIDTH 30 0
BBX 26 18 2 0
BITMAP
C7E03C00
DFF0FF00
FC39C380
F01B0180
E00E00C0
E00E00C0
C00C00C0
C00C00C0
C00C00C0
C00C00C0
C00C00C0
C00C00C0
C00C00C0
C00C00C0
C00C00C0
C00C00C0
C00C00C0
C00C00C0
ENDCHAR
STARTCHAR 006E
ENCODING 110
SWIDTH 600 0
DWIDTH 20 0
BBX 16 18 2 0
BITMAP
C3F0
CFF8
DC1C
F80E
F006
E003
C003
C003
C003
C003
C003
C003
C003
C003
C003
C003
C003
C003
ENDCHAR
STARTCHAR 006F
ENCODING 111
SWIDTH 660 0
DWIDTH 22 0
BBX 18 18 2 0
BITMAP
03F000
0FFC00
1C0E00
380700
700380
600180
C000C0
C000C0
C000C0
C000C0
C000C0
C000C0
600180
700380
380700
1C0E00
0FFC00
03F000
ENDCHAR
STARTCHAR 0070
ENCODING 112
SWIDTH 690 0
DWIDTH 23 0
BBX 19 24 2 -6
BITMAP
C3F800
CFFE00
DE0F00
F80380
F001C0
E000C0
C000E0
C00060
C00060
C00060
C00060
C000E0
E000C0
F001C0
F80380
DE0F00
CFFE00
C3F800
C00000
C00000
C00000
C00000
C00000
C00000
ENDCHAR
STARTCHAR 0071
ENCODING 113
SWIDTH 690 0
DWIDTH 23 0
BBX 19 24 2 -6
BITMAP
03F860
0FFE60
1E0F60
3803E0
7001E0
6000E0
E00060
C00060
C00060
C00060
C00060
E00060
6000E0
7001E0
3803E0
1E0F60
0FFE60
03F860
000060
000060
000060
000060
000060
000060
ENDCHAR
STARTCHAR 0072
ENCODING 114
SWIDTH 300 0
DWIDTH 10 0
BBX 8 18 2 0
BITMAP
CF
DE
F0
E0
E0
C0
C0
C0
C0
C0
C0
C0
C0
C0
C0
C0
C0
C0
ENDCHAR
STARTCHAR 0073
ENCODING 115
SWIDTH 390 0
DWIDTH 13 0
BBX 10 18 1 0
BITMAP
1E00
3F80
71C0
6080
6000
6000
7000
3800
1E00
0700
0380
01C0
00C0
00C0
40C0
E180
7F80
1E00
ENDCHAR
STARTCHAR 0074
ENCODING 116
SWIDTH 300 0
DWIDTH 10 0
BBX 8 25 1 0
BITMAP
18
18
18
18
18
18
18
FF
FF
18
18
18
18
18
18
18
18
18
18
18
18
18
18
18
18
ENDCHAR
STARTCHAR 0075
ENCODING 117
SWIDTH 600 0
DWIDTH 20 0
BBX 16 18 2 0
BITMAP
C003
C003
C003
C003
C003
C003
C003
C003
C003
C003
C003
C003
C003
6006
700E
381C
1FF8
07E0
ENDCHAR
STARTCHAR 0076
ENCODING 118
SWIDTH 570 0
DWIDTH 19 0
BBX 17 18 1 0
BITMAP
C00180
600300
600300
300600
300600
380E00
180C00
181C00
0C1800
0C1800
063000
063000
036000
036000
03E000
01C000
01C000
008000
ENDCHAR
STARTCHAR 0077
ENCODING 119
SWIDTH 840 0
DWIDTH 28 0
BBX 27 18 0 0
BITMAP
C0040060
600E00C0
600E00C0
600E00C0
301B0180
301B0180
183B8300
18318300
18318300
0C60C600
0C60C600
0EE0EE00
06C06C00
06C06C00
03803800
03803800
03803800
01001000
ENDCHAR
STARTCHAR 0078
ENCODING 120
SWIDTH 480 0
DWIDTH 16 0
BBX 16 18 0 0
BITMAP
700E
300C
1818
1C38
0C30
0660
03C0
03C0
0180
03C0
07E0
0660
0C30
1818
381C
300C
6006
E007
ENDCHAR
STARTCHAR 0079
ENCODING 121
SWIDTH 510 0
DWIDTH 17 0
BBX 16 24 1 -6
BITMAP
C003
6006
6006
700E
300C
300C
1818
1818
0C30
0C30
0E70
0660
0660
03C0
03C0
01C0
0180
0180
0300
0300
0600
0600
0E00
0C00
ENDCHAR
STARTCHAR 007A
ENCODING 122
SWIDTH 420 0
DWIDTH 14 0
BBX 14 18 0 0
BITMAP
7FFC
7FF8
0030
0030
0060
00C0
00C0
0180
0300
0300
0600
0C00
0C00
1800
3000
3000
7FFC
FFFC
ENDCHAR
STARTCHAR 007B
ENCODING 123
SWIDTH 300 0
DWIDTH 10 0
BBX 8 30 1 -6
BITMAP
07
0F
1C
18
18
18
18
18
18
18
18
18
30
30
E0
E0
30
30
18
18
18
18
18
18
18
18
18
1C
0F
07
ENDCHAR
STARTCHAR 007C
ENCODING 124
SWIDTH 660 0
DWIDTH 22 0
BBX 2 31 10 -6
BITMAP
C0
C0
C0
C0
C0
C0
C0
C0
C0
C0
C0
C0
C0
C0
C0
C0
C0
C0
C0
C0
C0
C0
C0
C0
C0
C0
C0
C0
C0
C0
C0
ENDCHAR
STARTCHAR 007D
ENCODING 125
SWIDTH 300 0
DWIDTH 10 0
BBX 8 30 1 -6
BITMAP
E0
F0
38
18
18
18
18
18
18
18
18
18
0C
0C
07
07
0C
0C
18
18
18
18
18
18
18
18
18
38
F0
E0
ENDCHAR
STARTCHAR 007E
ENCODING 126
SWIDTH 600 0
DWIDTH 20 0
BBX 16 5 2 9
BITMAP
3C00
7F01
C3C3
80FE
003C
ENDCHAR
STARTCHAR 00A0
ENCODING 160
SWIDTH 270 0
DWIDTH 9 0
BBX 1 1 0 0
BITMAP
00
ENDCHAR
STARTCHAR 00A1
ENCODING 161
SWIDTH 300 0
DWIDTH 10 0
BBX 4 24 3 -6
BITMAP
60
F0
F0
60
00
00
60
60
60
60
60
60
60
60
60
60
60
60
60
60
60
60
60
60
ENDCHAR
STARTCHAR 00A2
ENCODING 162
SWIDTH 540 0
DWIDTH 18 0
BBX 15 25 2 -4
BITMAP
0004
0006
000C
03FC
0FF8
1C3C
303E
6074
6060
C0E0
C0C0
C1C0
C180
C380
C300
6700
6600
3C08
3C3C
1FF8
1FE0
3000
3000
6000
2000
ENDCHAR
STARTCHAR 00A3
ENCODING 163
SWIDTH 540 0
DWIDTH 18 0
BBX 16 24 1 0
BITMAP
01F0
03F8
071C
0E0C
0C06
0C06
0C00
0C00
0C00
0600
0600
7FF8
7FF8
0300
0300
0300
0300
0300
3F03
7F03
C783
CFC6
FCFE
783C
ENDCHAR
STARTCHAR 00A4
ENCODING 164
SWIDTH 540 0
DWIDTH 18 0
BBX 16 17 1 1
BITMAP
47E2
FFFF
7C3E
700E
6006
E007
C003
C003
C003
C003
C003
E007
6006
700E
7C3E
FFFF
47E2
ENDCHAR
STARTCHAR 00A5
ENCODING 165
SWIDTH 540 0
DWIDTH 18 0
BBX 16 24 1 0
BITMAP
C003
6006
700E
300C
381C
1818
0C30
0C30
0660
0660
03C0
03C0
7FFE
7FFE
0180
0180
0180
7FFE
7FFE
0180
0180
0180
0180
0180
ENDCHAR
STARTCHAR 00A6
ENCODING 166
SWIDTH 660 0
DWIDTH 22 0
BBX 2 31 10 -6
BITMAP
C0
C0
C0
C0
C0
C0
C0
C0
C0
C0
C0
C0
C0
80
00
40
C0
C0
C0
C0
C0
C0
C0
C0
C0
C0
C0
C0
C0
C0
C0
ENDCHAR
STARTCHAR 00A7
ENCODING 167
SWIDTH 600 0
DWIDTH 20 0
BBX 14 31 2 -6
BITMAP
0FC0
3FE0
3870
6038
6018
6000
7000
3000
3C00
0E00
3F80
71E0
E070
C038
C01C
C00C
E00C
701C
3C38
1FF0
07C0
03C0
00E0
0060
0030
0030
C030
E030
70E0
3FC0
0F80
ENDCHAR
STARTCHAR 00A8
ENCODING 168
SWIDTH 360 0
DWIDTH 12 0
BBX 11 4 1 21
BITMAP
60C0
F1E0
F1E0
60C0
ENDCHAR
STARTCHAR 00A9
ENCODING 169
SWIDTH 750 0
DWIDTH 25 0
BBX 26 25 -1 0
BITMAP
007F8000
01FFE000
07C0F800
0E001C00
1C000E00
383F0700
30FF8300
61E1C180
6180E180
C38060C0
C30000C0
C30000C0
C30000C0
C30000C0
C30060C0
C38060C0
6180C180
61C1C180
30FF8300
383E0700
1C000E00
0E001C00
07C0F800
01FFE000
007F8000
ENDCHAR
STARTCHAR 00AA
ENCODING 170
SWIDTH 360 0
DWIDTH 12 0
BBX 10 11 0 13
BITMAP
1EC0
7FC0
61C0
E1C0
C0C0
C0C0
C0C0
E0C0
61C0
7FC0
1EC0
ENDCHAR
STARTCHAR 00AB
ENCODING 171
SWIDTH 420 0
DWIDTH 14 0
BBX 13 18 0 0
BITMAP
0C18
1830
1830
3870
3060
3060
60C0
60C0
E1C0
C180
E1C0
60C0
60C0
3060
3060
1830
1830
0C18
ENDCHAR
STARTCHAR 00AC
ENCODING 172
SWIDTH 600 0
DWIDTH 20 0
BBX 16 9 2 8
BITMAP
FFFF
FFFF
0003
0003
0003
0003
0003
0003
0003
ENDCHAR
STARTCHAR 00AD
ENCODING 173
SWIDTH 330 0
DWIDTH 11 0
BBX 9 2 1 8
BITMAP
FF80
FF80
ENDCHAR
STARTCHAR 00AE
ENCODING 174
SWIDTH 750 0
DWIDTH 25 0
BBX 26 25 -1 0
BITMAP
007F8000
01FFE000
07C0F800
0E001C00
1C000E00
38000700
30FF8300
60FFC180
60C0E180
C0C060C0
C0C060C0
C0C0E0C0
C0FF80C0
C0FFE0C0
C0C0E0C0
C0C060C0
60C06180
60C06180
30C07300
38000700
1C000E00
0E001C00
07C0F800
01FFE000
007F8000
ENDCHAR
STARTCHAR 00AF
ENCODING 175
SWIDTH 510 0
DWIDTH 17 0
BBX 19 2 -1 26
BITMAP
FFFFE0
FFFFE0
ENDCHAR
STARTCHAR 00B0
ENCODING 176
SWIDTH 390 0
DWIDTH 13 0
BBX 11 11 1 13
BITMAP
1F00
3F80
71C0
E0E0
C060
C060
C060
E0E0
71C0
3F80
1F00
ENDCHAR
STARTCHAR 00B1
ENCODING 177
SWIDTH 540 0
DWIDTH 18 0
BBX 16 21 1 1
BITMAP
0180
0180
0180
0180
0180
0180
0180
FFFF
FFFF
0180
0180
0180
0180
0180
0180
0180
0000
0000
0000
FFFF
FFFF
ENDCHAR
STARTCHAR 00B2
ENCODING 178
SWIDTH 330 0
DWIDTH 11 0
BBX 9 12 1 12
BITMAP
1E00
7F00
6380
C180
C180
0300
0700
0C00
1800
3000
7F80
FF80
ENDCHAR
STARTCHAR 00B3
ENCODING 179
SWIDTH 330 0
DWIDTH 11 0
BBX 9 12 1 12
BITMAP
3C00
7E00
E300
C300
0300
0E00
0300
C180
C180
6380
7F00
3E00
ENDCHAR
STARTCHAR 00B4
ENCODING 180
SWIDTH 360 0
DWIDTH 12 0
BBX 7 5 3 21
BITMAP
1E
3C
38
70
E0
ENDCHAR
STARTCHAR 00B5
ENCODING 181
SWIDTH 570 0
DWIDTH 19 0
BBX 15 24 2 -6
BITMAP
C006
C006
C006
C006
C006
C006
C006
C006
C006
C006
C006
C006
C006
E00E
F01E
F83E
DFFE
C7E6
C000
C000
C000
C000
C000
C000
ENDCHAR
STARTCHAR 00B6
ENCODING 182
SWIDTH 540 0
DWIDTH 18 0
BBX 15 29 1 -4
BITMAP
0FFE
3F0C
7F0C
7F0C
FF0C
FF0C
FF0C
FF0C
FF0C
7F0C
7F0C
3F0C
1F0C
030C
030C
030C
030C
030C
030C
030C
030C
030C
030C
030C
030C
030C
030C
030C
030C
ENDCHAR
STARTCHAR 00B7
ENCODING 183
SWIDTH 330 0
DWIDTH 11 0
BBX 4 4 8 10
BITMAP
60
F0
F0
60
ENDCHAR
STARTCHAR 00B8
ENCODING 184
SWIDTH 330 0
DWIDTH 11 0
BBX 7 6 2 -6
BITMAP
18
18
1E
06
06
FC
ENDCHAR
STARTCHAR 00B9
ENCODING 185
SWIDTH 330 0
DWIDTH 11 0
BBX 5 12 2 12
BITMAP
78
F8
18
18
18
18
18
18
18
18
18
18
ENDCHAR
STARTCHAR 00BA
ENCODING 186
SWIDTH 360 0
DWIDTH 12 0
BBX 10 11 1 13
BITMAP
1E00
3F00
7380
E1C0
C0C0
C0C0
C0C0
C1C0
6180
3F00
1E00
ENDCHAR
STARTCHAR 00BB
ENCODING 187
SWIDTH 420 0
DWIDTH 14 0
BBX 13 18 0 0
BITMAP
C180
60C0
60C0
3060
3060
1870
1830
1C38
0C18
1C38
1830
1830
3060
3060
70E0
60C0
60C0
C180
ENDCHAR
STARTCHAR 00BC
ENCODING 188
SWIDTH 810 0
DWIDTH 27 0
BBX 25 25 1 0
BITMAP
00001C00
78001800
F8003800
18003000
18006000
18006000
1800C000
1801C000
18018000
18030000
18030000
18060000
180E0000
000C0000
00180200
00180600
00300E00
00701E00
00603E00
00E07600
00C0FF80
0181FF80
03800600
03000600
07000600
ENDCHAR
STARTCHAR 00BD
ENCODING 189
SWIDTH 810 0
DWIDTH 27 0
BBX 24 25 1 0
BITMAP
000070
780060
F800E0
1800C0
180180
180180
180300
180700
180600
180C00
180C00
181800
183800
00303C
0060FE
0060C7
00C183
01C183
018006
03800E
030018
060030
0E0060
0C00FF
1C01FF
ENDCHAR
STARTCHAR 00BE
ENCODING 190
SWIDTH 810 0
DWIDTH 27 0
BBX 25 25 1 0
BITMAP
00000E00
3C000C00
7E001C00
E3001800
C3003000
03003000
0E006000
0300E000
C180C000
C1818000
63818000
7F030000
3E070000
00060000
000C0200
000C0600
00180E00
00381E00
00303E00
00707600
0060FF80
00C1FF80
01C00600
01800600
03800600
ENDCHAR
STARTCHAR 00BF
ENCODING 191
SWIDTH 600 0
DWIDTH 20 0
BBX 15 24 2 -6
BITMAP
0180
03C0
03C0
0180
0000
0000
07E0
1FF8
3838
700C
600C
001C
0038
01F0
0FC0
3E00
7000
C006
C006
C00E
E00C
7038
3FF0
0FE0
ENDCHAR
STARTCHAR 00C0
ENCODING 192
SWIDTH 690 0
DWIDTH 23 0
BBX 21 31 1 0
BITMAP
03C000
01E000
00E000
007000
003800
000000
000000
002000
007000
007000
007000
00D800
00D800
018C00
018C00
038E00
030600
030600
060300
060300
0E0180
0FFF80
0FFF80
1800C0
1800C0
300060
300060
700070
600030
600030
C00018
ENDCHAR
STARTCHAR 00C1
ENCODING 193
SWIDTH 690 0
DWIDTH 23 0
BBX 21 31 1 0
BITMAP
001E00
003C00
003800
007000
00E000
000000
000000
002000
007000
007000
007000
00D800
00D800
018C00
018C00
038E00
030600
030600
060300
060300
0E0180
0FFF80
0FFF80
1800C0
1800C0
300060
300060
700070
600030
600030
C00018
ENDCHAR
STARTCHAR 00C2
ENCODING 194
SWIDTH 690 0
DWIDTH 23 0
BBX 21 31 1 0
BITMAP
007000
00F800
01DC00
038E00
070700
000000
000000
002000
007000
007000
007000
00D800
00D800
018C00
018C00
038E00
030600
030600
060300
060300
0E0180
0FFF80
0FFF80
1800C0
1800C0
300060
300060
700070
600030
600030
C00018
ENDCHAR
STARTCHAR 00C3
ENCODING 195
SWIDTH 690 0
DWIDTH 23 0
BBX 21 29 1 0
BITMAP
03E200
07FF00
023E00
000000
000000
002000
007000
007000
007000
00D800
00D800
018C00
018C00
038E00
030600
030600
060300
060300
0E0180
0FFF80
0FFF80
1800C0
1800C0
300060
300060
700070
600030
600030
C00018
ENDCHAR
STARTCHAR 00C4
ENCODING 196
SWIDTH 690 0
DWIDTH 23 0
BBX 21 30 1 0
BITMAP
030600
078F00
078F00
030600
000000
000000
002000
007000
007000
007000
00D800
00D800
018C00
018C00
038E00
030600
030600
060300
060300
0E0180
0FFF80
0FFF80
1800C0
1800C0
300060
300060
700070
600030
600030
C00018
ENDCHAR
STARTCHAR 00C5
ENCODING 197
SWIDTH 690 0
DWIDTH 23 0
BBX 21 33 1 0
BITMAP
007000
00F800
018C00
018C00
018C00
00F800
007000
000000
000000
002000
007000
007000
007000
00D800
00D800
018C00
018C00
038E00
030600
030600
060300
060300
0E0180
0FFF80
0FFF80
1800C0
1800C0
300060
300060
700070
600030
600030
C00018
ENDCHAR
STARTCHAR 00C6
ENCODING 198
SWIDTH 990 0
DWIDTH 33 0
BBX 30 24 0 0
BITMAP
0001FFFC
0003FFFC
0003C000
0006C000
000EC000
000CC000
0018C000
0038C000
0030C000
0060C000
0060FFFC
00C0FFFC
01C0C000
0180C000
03FFC000
07FFC000
0600C000
0C00C000
1C00C000
1800C000
3000C000
3000C000
6000FFFC
E000FFFC
ENDCHAR
STARTCHAR 00C7
ENCODING 199
SWIDTH 810 0
DWIDTH 27 0
BBX 23 30 2 -6
BITMAP
007F80
03FFE0
0780F8
0E003C
18000E
300004
700000
600000
E00000
C00000
C00000
C00000
C00000
C00000
C00000
E00000
600000
700000
300004
18000E
1E003C
0780F8
03FFE0
007F80
001800
001800
001E00
000600
000600
00FC00
ENDCHAR
STARTCHAR 00C8
ENCODING 200
SWIDTH 540 0
DWIDTH 18 0
BBX 14 31 3 0
BITMAP
3C00
1E00
0E00
0700
0380
0000
0000
FFFC
FFFC
C000
C000
C000
C000
C000
C000
C000
C000
FFFC
FFFC
C000
C000
C000
C000
C000
C000
C000
C000
C000
C000
FFFC
FFFC
ENDCHAR
STARTCHAR 00C9
ENCODING 201
SWIDTH 540 0
DWIDTH 18 0
BBX 14 31 3 0
BITMAP
00F0
01E0
01C0
0380
0700
0000
0000
FFFC
FFFC
C000
C000
C000
C000
C000
C000
C000
C000
FFFC
FFFC
C000
C000
C000
C000
C000
C000
C000
C000
C000
C000
FFFC
FFFC
ENDCHAR
STARTCHAR 00CA
ENCODING 202
SWIDTH 540 0
DWIDTH 18 0
BBX 14 31 3 0
BITMAP
0700
0F80
1DC0
38E0
7070
0000
0000
FFFC
FFFC
C000
C000
C000
C000
C000
C000
C000
C000
FFFC
FFFC
C000
C000
C000
C000
C000
C000
C000
C000
C000
C000
FFFC
FFFC
ENDCHAR
STARTCHAR 00CB
ENCODING 203
SWIDTH 540 0
DWIDTH 18 0
BBX 14 30 3 0
BITMAP
3060
78F0
78F0
3060
0000
0000
FFFC
FFFC
C000
C000
C000
C000
C000
C000
C000
C000
FFFC
FFFC
C000
C000
C000
C000
C000
C000
C000
C000
C000
C000
FFFC
FFFC
ENDCHAR
STARTCHAR 00CC
ENCODING 204
SWIDTH 240 0
DWIDTH 8 0
BBX 7 31 -1 0
BITMAP
F0
78
38
1C
0E
00
00
0C
0C
0C
0C
0C
0C
0C
0C
0C
0C
0C
0C
0C
0C
0C
0C
0C
0C
0C
0C
0C
0C
0C
0C
ENDCHAR
STARTCHAR 00CD
ENCODING 205
SWIDTH 240 0
DWIDTH 8 0
BBX 7 31 2 0
BITMAP
1E
3C
38
70
E0
00
00
60
60
60
60
60
60
60
60
60
60
60
60
60
60
60
60
60
60
60
60
60
60
60
60
ENDCHAR
STARTCHAR 00CE
ENCODING 206
SWIDTH 240 0
DWIDTH 8 0
BBX 11 31 -2 0
BITMAP
0E00
1F00
3B80
71C0
E0E0
0000
0000
0600
0600
0600
0600
0600
0600
0600
0600
0600
0600
0600
0600
0600
0600
0600
0600
0600
0600
0600
0600
0600
0600
0600
0600
ENDCHAR
STARTCHAR 00CF
ENCODING 207
SWIDTH 240 0
DWIDTH 8 0
BBX 11 30 -2 0
BITMAP
60C0
F1E0
F1E0
60C0
0000
0000
0600
0600
0600
0600
0600
0600
0600
0600
0600
0600
0600
0600
0600
0600
0600
0600
0600
0600
0600
0600
0600
0600
0600
0600
ENDCHAR
STARTCHAR 00D0
ENCODING 208
SWIDTH 780 0
DWIDTH 26 0
BBX 24 24 0 0
BITMAP
1FFE00
1FFFC0
1803F0
180078
18001C
18000C
18000E
180006
180007
180003
180003
FFF003
FFF003
180003
180003
180003
180006
180006
18000E
18001C
180038
1801F0
1FFFE0
1FFF00
ENDCHAR
STARTCHAR 00D1
ENCODING 209
SWIDTH 720 0
DWIDTH 24 0
BBX 18 29 3 0
BITMAP
07C400
0FFE00
047C00
000000
000000
8000C0
C000C0
C000C0
E000C0
F000C0
D800C0
DC00C0
CC00C0
C600C0
C300C0
C180C0
C1C0C0
C0C0C0
C060C0
C030C0
C018C0
C00CC0
C00CC0
C006C0
C003C0
C001C0
C000C0
C000C0
C00040
ENDCHAR
STARTCHAR 00D2
ENCODING 210
SWIDTH 870 0
DWIDTH 29 0
BBX 25 31 2 0
BITMAP
00F00000
00780000
00380000
001C0000
000E0000
00000000
00000000
007F0000
03FFE000
0780F000
0E003800
1C001C00
38000E00
70000700
60000300
60000300
C0000180
C0000180
C0000180
C0000180
C0000180
C0000180
E0000380
60000300
70000700
30000600
18000C00
0E003800
0780F000
03FFE000
007F0000
ENDCHAR
STARTCHAR 00D3
ENCODING 211
SWIDTH 870 0
DWIDTH 29 0
BBX 25 31 2 0
BITMAP
00078000
000F0000
000E0000
001C0000
00380000
00000000
00000000
007F0000
03FFE000
0780F000
0E003800
1C001C00
38000E00
70000700
60000300
60000300
C0000180
C0000180
C0000180
C0000180
C0000180
C0000180
E0000380
60000300
70000700
30000600
18000C00
0E003800
0780F000
03FFE000
007F0000
ENDCHAR
STARTCHAR 00D4
ENCODING 212
SWIDTH 870 0
DWIDTH 29 0
BBX 25 31 2 0
BITMAP
001C0000
003E0000
00770000
00E38000
01C1C000
00000000
00000000
007F0000
03FFE000
0780F000
0E003800
1C001C00
38000E00
70000700
60000300
60000300
C0000180
C0000180
C0000180
C0000180
C0000180
C0000180
E0000380
60000300
70000700
30000600
18000C00
0E003800
0780F000
03FFE000
007F0000
ENDCHAR
STARTCHAR 00D5
ENCODING 213
SWIDTH 870 0
DWIDTH 29 0
BBX 25 29 2 0
BITMAP
00F88000
01FFC000
008F8000
00000000
00000000
007F0000
03FFE000
0780F000
0E003800
1C001C00
38000E00
70000700
60000300
60000300
C0000180
C0000180
C0000180
C0000180
C0000180
C0000180
E0000380
60000300
70000700
30000600
18000C00
0E003800
0780F000
03FFE000
007F0000
ENDCHAR
STARTCHAR 00D6
ENCODING 214
SWIDTH 870 0
DWIDTH 29 0
BBX 25 30 2 0
BITMAP
00C18000
01E3C000
01E3C000
00C18000
00000000
00000000
007F0000
03FFE000
0780F000
0E003800
1C001C00
38000E00
70000700
60000300
60000300
C0000180
C0000180
C0000180
C0000180
C0000180
C0000180
E0000380
60000300
70000700
30000600
18000C00
0E003800
0780F000
03FFE000
007F0000
ENDCHAR
STARTCHAR 00D7
ENCODING 215
SWIDTH 600 0
DWIDTH 20 0
BBX 13 13 3 5
BITMAP
8018
E038
7070
38E0
1DC0
0F80
0700
0F80
1DC0
38E0
7070
E038
C018
ENDCHAR
STARTCHAR 00D8
ENCODING 216
SWIDTH 870 0
DWIDTH 29 0
BBX 25 24 2 0
BITMAP
007F0380
03FFE700
0780FE00
0E003C00
1C003C00
38007600
7000E700
6001C300
E0018300
C0030180
C0060180
C00C0180
C0180180
C0300180
C0600180
60C00380
61C00300
73800700
37000600
1E001C00
1E003800
3F80F000
71FFE000
E07F0000
ENDCHAR
STARTCHAR 00D9
ENCODING 217
SWIDTH 630 0
DWIDTH 21 0
BBX 15 31 3 0
BITMAP
1E00
0F00
0700
0380
01C0
0000
0000
C006
C006
C006
C006
C006
C006
C006
C006
C006
C006
C006
C006
C006
C006
C006
C006
C006
C006
C006
600C
701C
3838
1FF0
07C0
ENDCHAR
STARTCHAR 00DA
ENCODING 218
SWIDTH 630 0
DWIDTH 21 0
BBX 15 31 3 0
BITMAP
00F0
01E0
01C0
0380
0700
0000
0000
C006
C006
C006
C006
C006
C006
C006
C006
C006
C006
C006
C006
C006
C006
C006
C006
C006
C006
C006
600C
701C
3838
1FF0
07C0
ENDCHAR
STARTCHAR 00DB
ENCODING 219
SWIDTH 630 0
DWIDTH 21 0
BBX 15 31 3 0
BITMAP
0380
07C0
0EE0
1C70
3838
0000
0000
C006
C006
C006
C006
C006
C006
C006
C006
C006
C006
C006
C006
C006
C006
C006
C006
C006
C006
C006
600C
701C
3838
1FF0
07C0
ENDCHAR
STARTCHAR 00DC
ENCODING 220
SWIDTH 630 0
DWIDTH 21 0
BBX 15 30 3 0
BITMAP
1830
3C78
3C78
1830
0000
0000
C006
C006
C006
C006
C006
C006
C006
C006
C006
C006
C006
C006
C006
C006
C006
C006
C006
C006
C006
600C
701C
3838
1FF0
07C0
ENDCHAR
STARTCHAR 00DD
ENCODING 221
SWIDTH 600 0
DWIDTH 20 0
BBX 18 31 1 0
BITMAP
003C00
007800
007000
00E000
01C000
000000
000000
E001C0
600180
300300
300300
180600
1C0E00
0C0C00
061800
073800
033000
01E000
01E000
00C000
00C000
00C000
00C000
00C000
00C000
00C000
00C000
00C000
00C000
00C000
00C000
ENDCHAR
STARTCHAR 00DE
ENCODING 222
SWIDTH 600 0
DWIDTH 20 0
BBX 15 24 3 0
BITMAP
C000
C000
C000
C000
C000
FFE0
FFF0
C038
C00C
C00E
C006
C006
C006
C006
C00E
C00C
C03C
FFF0
FFC0
C000
C000
C000
C000
C000
ENDCHAR
STARTCHAR 00DF
ENCODING 223
SWIDTH 540 0
DWIDTH 18 0
BBX 14 25 2 0
BITMAP
0FC0
3FE0
7870
6038
E018
C018
C018
C038
C0F0
C7E0
C700
C7E0
C0F0
C038
C018
C00C
C00C
C00C
C00C
C00C
C01C
C038
D070
DFE0
CFC0
ENDCHAR
STARTCHAR 00E0
ENCODING 224
SWIDTH 690 0
DWIDTH 23 0
BBX 19 25 2 0
BITMAP
078000
03C000
01C000
00E000
007000
000000
000000
03F860
0FFE60
1E0F60
3803E0
7001E0
6000E0
E00060
C00060
C00060
C00060
C00060
E00060
6000E0
7001E0
3803E0
1E0FE0
0FFE60
03F860
ENDCHAR
STARTCHAR 00E1
ENCODING 225
SWIDTH 690 0
DWIDTH 23 0
BBX 19 25 2 0
BITMAP
003C00
007800
007000
00E000
01C000
000000
000000
03F860
0FFE60
1E0F60
3803E0
7001E0
6000E0
E00060
C00060
C00060
C00060
C00060
E00060
6000E0
7001E0
3803E0
1E0FE0
0FFE60
03F860
ENDCHAR
STARTCHAR 00E2
ENCODING 226
SWIDTH 690 0
DWIDTH 23 0
BBX 19 25 2 0
BITMAP
00E000
01F000
03B800
071C00
0E0E00
000000
000000
03F860
0FFE60
1E0F60
3803E0
7001E0
6000E0
E00060
C00060
C00060
C00060
C00060
E00060
6000E0
7001E0
3803E0
1E0FE0
0FFE60
03F860
ENDCHAR
STARTCHAR 00E3
ENCODING 227
SWIDTH 690 0
DWIDTH 23 0
BBX 19 23 2 0
BITMAP
07C400
0FFE00
047C00
000000
000000
03F860
0FFE60
1E0F60
3803E0
7001E0
6000E0
E00060
C00060
C00060
C00060
C00060
E00060
6000E0
7001E0
3803E0
1E0FE0
0FFE60
03F860
ENDCHAR
STARTCHAR 00E4
ENCODING 228
SWIDTH 690 0
DWIDTH 23 0
BBX 19 24 2 0
BITMAP
060C00
0F1E00
0F1E00
060C00
000000
000000
03F860
0FFE60
1E0F60
3803E0
7001E0
6000E0
E00060
C00060
C00060
C00060
C00060
E00060
6000E0
7001E0
3803E0
1E0FE0
0FFE60
03F860
ENDCHAR
STARTCHAR 00E5
ENCODING 229
SWIDTH 690 0
DWIDTH 23 0
BBX 19 27 2 0
BITMAP
00E000
01F000
031800
031800
031800
01F000
00E000
000000
000000
03F860
0FFE60
1E0F60
3803E0
7001E0
6000E0
E00060
C00060
C00060
C00060
C00060
E00060
6000E0
7001E0
3803E0
1E0FE0
0FFE60
03F860
ENDCHAR
STARTCHAR 00E6
ENCODING 230
SWIDTH 1140 0
DWIDTH 38 0
BBX 34 18 2 0
BITMAP
03F8C3F000
0FFCCFFC00
1C0EDC0E00
3807F00300
7003E00180
6001E00180
C000C000C0
C000FFFFC0
C000FFFFC0
C000C00000
C000C00000
C000C00000
6001E00100
7003F00380
3807F00700
1C0EFC1E00
0FFCDFFC00
03F8C7F000
ENDCHAR
STARTCHAR 00E7
ENCODING 231
SWIDTH 630 0
DWIDTH 21 0
BBX 17 24 2 -6
BITMAP
03F000
0FFE00
1C0F00
380380
700100
600000
C00000
C00000
C00000
C00000
C00000
C00000
600000
700100
380380
1C0F00
0FFE00
03F800
00C000
00C000
00F000
003000
003000
07E000
ENDCHAR
STARTCHAR 00E8
ENCODING 232
SWIDTH 630 0
DWIDTH 21 0
BBX 17 25 2 0
BITMAP
0F0000
078000
038000
01C000
00E000
000000
000000
03E000
0FF800
1C1C00
300600
600300
600300
C00180
FFFF80
FFFF80
C00000
C00000
C00000
600200
600700
300E00
3C1C00
1FF800
07E000
ENDCHAR
STARTCHAR 00E9
ENCODING 233
SWIDTH 630 0
DWIDTH 21 0
BBX 17 25 2 0
BITMAP
007800
00F000
00E000
01C000
038000
000000
000000
03E000
0FF800
1C1C00
300600
600300
600300
C00180
FFFF80
FFFF80
C00000
C00000
C00000
600200
600700
300E00
3C1C00
1FF800
07E000
ENDCHAR
STARTCHAR 00EA
ENCODING 234
SWIDTH 630 0
DWIDTH 21 0
BBX 17 25 2 0
BITMAP
01C000
03E000
077000
0E3800
1C1C00
000000
000000
03E000
0FF800
1C1C00
300600
600300
600300
C00180
FFFF80
FFFF80
C00000
C00000
C00000
600200
600700
300E00
3C1C00
1FF800
07E000
ENDCHAR
STARTCHAR 00EB
ENCODING 235
SWIDTH 630 0
DWIDTH 21 0
BBX 17 24 2 0
BITMAP
0C1800
1E3C00
1E3C00
0C1800
000000
000000
03E000
0FF800
1C1C00
300600
600300
600300
C00180
FFFF80
FFFF80
C00000
C00000
C00000
600200
600700
300E00
3C1C00
1FF800
07E000
ENDCHAR
STARTCHAR 00EC
ENCODING 236
SWIDTH 180 0
DWIDTH 6 0
BBX 7 25 -2 0
BITMAP
F0
78
38
1C
0E
00
00
0C
0C
0C
0C
0C
0C
0C
0C
0C
0C
0C
0C
0C
0C
0C
0C
0C
0C
ENDCHAR
STARTCHAR 00ED
ENCODING 237
SWIDTH 180 0
DWIDTH 6 0
BBX 7 25 1 0
BITMAP
1E
3C
38
70
E0
00
00
60
60
60
60
60
60
60
60
60
60
60
60
60
60
60
60
60
60
ENDCHAR
STARTCHAR 00EE
ENCODING 238
SWIDTH 180 0
DWIDTH 6 0
BBX 11 25 -2 0
BITMAP
0E00
1F00
3B80
71C0
E0E0
0000
0000
0C00
0C00
0C00
0C00
0C00
0C00
0C00
0C00
0C00
0C00
0C00
0C00
0C00
0C00
0C00
0C00
0C00
0C00
ENDCHAR
STARTCHAR 00EF
ENCODING 239
SWIDTH 180 0
DWIDTH 6 0
BBX 11 24 -3 0
BITMAP
60C0
F1E0
F1E0
60C0
0000
0000
0600
0600
0600
0600
0600
0600
0600
0600
0600
0600
0600
0600
0600
0600
0600
0600
0600
0600
ENDCHAR
STARTCHAR 00F0
ENCODING 240
SWIDTH 660 0
DWIDTH 22 0
BBX 18 25 2 0
BITMAP
070000
03B800
01F000
03E000
077000
001800
000C00
03FE00
0FFF00
1C0F00
380380
700180
6001C0
C000C0
C000C0
C000C0
C000C0
C000C0
C000C0
600180
700380
380700
1C0E00
0FFC00
03F000
ENDCHAR
STARTCHAR 00F1
ENCODING 241
SWIDTH 600 0
DWIDTH 20 0
BBX 16 23 2 0
BITMAP
0F88
1FFC
08F8
0000
0000
C3F0
CFF8
DC1C
F80E
F006
E003
C003
C003
C003
C003
C003
C003
C003
C003
C003
C003
C003
C003
ENDCHAR
STARTCHAR 00F2
ENCODING 242
SWIDTH 660 0
DWIDTH 22 0
BBX 18 25 2 0
BITMAP
0F0000
078000
038000
01C000
00E000
000000
000000
03F000
0FFC00
1C0E00
380700
700380
600180
C000C0
C000C0
C000C0
C000C0
C000C0
C000C0
600180
700380
380700
1C0E00
0FFC00
03F000
ENDCHAR
STARTCHAR 00F3
ENCODING 243
SWIDTH 660 0
DWIDTH 22 0
BBX 18 25 2 0
BITMAP
003C00
007800
007000
00E000
01C000
000000
000000
03F000
0FFC00
1C0E00
380700
700380
600180
C000C0
C000C0
C000C0
C000C0
C000C0
C000C0
600180
700380
380700
1C0E00
0FFC00
03F000
ENDCHAR
STARTCHAR 00F4
ENCODING 244
SWIDTH 660 0
DWIDTH 22 0
BBX 18 25 2 0
BITMAP
01C000
03E000
077000
0E3800
1C1C00
000000
000000
03F000
0FFC00
1C0E00
380700
700380
600180
C000C0
C000C0
C000C0
C000C0
C000C0
C000C0
600180
700380
380700
1C0E00
0FFC00
03F000
ENDCHAR
STARTCHAR 00F5
ENCODING 245
SWIDTH 660 0
DWIDTH 22 0
BBX 18 23 2 0
BITMAP
07C400
0FFE00
047C00
000000
000000
03F000
0FFC00
1C0E00
380700
700380
600180
C000C0
C000C0
C000C0
C000C0
C000C0
C000C0
600180
700380
380700
1C0E00
0FFC00
03F000
ENDCHAR
STARTCHAR 00F6
ENCODING 246
SWIDTH 660 0
DWIDTH 22 0
BBX 18 24 2 0
BITMAP
0C1800
1E3C00
1E3C00
0C1800
000000
000000
03F000
0FFC00
1C0E00
380700
700380
600180
C000C0
C000C0
C000C0
C000C0
C000C0
C000C0
600180
700380
380700
1C0E00
0FFC00
03F000
ENDCHAR
STARTCHAR 00F7
ENCODING 247
SWIDTH 510 0
DWIDTH 17 0
BBX 15 14 1 5
BITMAP
0380
0380
0380
0000
0000
0000
FFFE
FFFE
0000
0000
0000
0380
0380
0380
ENDCHAR
STARTCHAR 00F8
ENCODING 248
SWIDTH 660 0
DWIDTH 22 0
BBX 18 19 2 -1
BITMAP
03F080
0FFDC0
1E0F80
380700
700780
600D80
C019C0
C030C0
C070C0
C0E0C0
C1C0C0
C180C0
630180
760380
3C0700
1C0E00
3FFC00
73F000
200000
ENDCHAR
STARTCHAR 00F9
ENCODING 249
SWIDTH 600 0
DWIDTH 20 0
BBX 16 25 2 0
BITMAP
1E00
0F00
0700
0380
01C0
0000
0000
C003
C003
C003
C003
C003
C003
C003
C003
C003
C003
C003
C003
C003
6006
700E
381C
1FF8
07E0
ENDCHAR
STARTCHAR 00FA
ENCODING 250
SWIDTH 600 0
DWIDTH 20 0
BBX 16 25 2 0
BITMAP
0078
00F0
00E0
01C0
0380
0000
0000
C003
C003
C003
C003
C003
C003
C003
C003
C003
C003
C003
C003
C003
6006
700E
381C
1FF8
07E0
ENDCHAR
STARTCHAR 00FB
ENCODING 251
SWIDTH 600 0
DWIDTH 20 0
BBX 16 25 2 0
BITMAP
0380
07C0
0EE0
1C70
3838
0000
0000
C003
C003
C003
C003
C003
C003
C003
C003
C003
C003
C003
C003
C003
6006
700E
381C
1FF8
07E0
ENDCHAR
STARTCHAR 00FC
ENCODING 252
SWIDTH 600 0
DWIDTH 20 0
BBX 16 24 2 0
BITMAP
1830
3C78
3C78
1830
0000
0000
C003
C003
C003
C003
C003
C003
C003
C003
C003
C003
C003
C003
C003
6006
700E
381C
1FF8
07E0
ENDCHAR
STARTCHAR 00FD
ENCODING 253
SWIDTH 510 0
DWIDTH 17 0
BBX 16 31 1 -6
BITMAP
0078
00F0
00E0
01C0
0380
0000
0000
C003
6006
6006
700E
300C
300C
1818
1818
0C30
0C30
0E70
0660
0660
03C0
03C0
01C0
0180
0180
0300
0300
0600
0600
0E00
0C00
ENDCHAR
STARTCHAR 00FE
ENCODING 254
SWIDTH 690 0
DWIDTH 23 0
BBX 19 31 2 -6
BITMAP
C00000
C00000
C00000
C00000
C00000
C00000
C00000
C3F800
CFFE00
DE0F00
F80380
F001C0
E000C0
C000E0
C00060
C00060
C00060
C00060
C000E0
E000C0
F001C0
F80380
DE0F00
CFFE00
C3F800
C00000
C00000
C00000
C00000
C00000
C00000
ENDCHAR
STARTCHAR 00FF
ENCODING 255
SWIDTH 510 0
DWIDTH 17 0
BBX 16 30 1 -6
BITMAP
1830
3C78
3C78
1830
0000
0000
C003
6006
6006
700E
300C
300C
1818
1818
0C30
0C30
0E70
0660
0660
03C0
03C0
01C0
0180
0180
0300
0300
0600
0600
0E00
0C00
ENDCHAR
STARTCHAR 0100
ENCODING 256
SWIDTH 690 0
DWIDTH 23 0
BBX 21 29 1 0
BITMAP
07FF00
07FF00
000000
000000
000000
002000
007000
007000
007000
00D800
00D800
018C00
018C00
038E00
030600
030600
060300
060300
0E0180
0FFF80
0FFF80
1800C0
1800C0
300060
300060
700070
600030
600030
C00018
ENDCHAR
STARTCHAR 0101
ENCODING 257
SWIDTH 690 0
DWIDTH 23 0
BBX 19 22 2 0
BITMAP
0FFE00
0FFE00
000000
000000
03F860
0FFE60
1E0F60
3803E0
7001E0
6000E0
E00060
C00060
C00060
C00060
C00060
E00060
6000E0
7001E0
3803E0
1E0FE0
0FFE60
03F860
ENDCHAR
STARTCHAR 0102
ENCODING 258
SWIDTH 690 0
DWIDTH 23 0
BBX 21 30 1 0
BITMAP
060300
030600
03FE00
00F800
000000
000000
002000
007000
007000
007000
00D800
00D800
018C00
018C00
038E00
030600
030600
060300
060300
0E0180
0FFF80
0FFF80
1800C0
1800C0
300060
300060
700070
600030
600030
C00018
ENDCHAR
STARTCHAR 0103
ENCODING 259
SWIDTH 690 0
DWIDTH 23 0
BBX 19 24 2 0
BITMAP
0C0600
060C00
07FC00
01F000
000000
000000
03F860
0FFE60
1E0F60
3803E0
7001E0
6000E0
E00060
C00060
C00060
C00060
C00060
E00060
6000E0
7001E0
3803E0
1E0FE0
0FFE60
03F860
ENDCHAR
STARTCHAR 0104
ENCODING 260
SWIDTH 690 0
DWIDTH 23 0
BBX 23 30 1 -6
BITMAP
002000
007000
007000
007000
00D800
00D800
018C00
018C00
038E00
030600
030600
060300
060300
0E0180
0FFF80
0FFF80
1800C0
1800C0
300060
300060
700070
600030
600030
C00018
000030
000070
000060
000060
000070
00001E
ENDCHAR
STARTCHAR 0105
ENCODING 261
SWIDTH 690 0
DWIDTH 23 0
BBX 20 24 2 -6
BITMAP
03F860
0FFE60
1E0F60
3803E0
7001E0
6000E0
E00060
C00060
C00060
C00060
C00060
E00060
6000E0
7001E0
3803E0
1E0FE0
0FFE60
03F860
000180
000380
000300
000300
000380
0000F0
ENDCHAR
STARTCHAR 0106
ENCODING 262
SWIDTH 810 0
DWIDTH 27 0
BBX 23 31 2 0
BITMAP
000F00
001E00
001C00
003800
007000
000000
000000
007F80
03FFE0
0780F8
0E003C
18000E
300004
700000
600000
E00000
C00000
C00000
C00000
C00000
C00000
C00000
E00000
600000
700000
300004
18000E
1E003C
0780F8
03FFE0
007F80
ENDCHAR
STARTCHAR 0107
ENCODING 263
SWIDTH 630 0
DWIDTH 21 0
BBX 17 25 2 0
BITMAP
007800
00F000
00E000
01C000
038000
000000
000000
03F000
0FFE00
1C0F00
380380
700100
600000
C00000
C00000
C00000
C00000
C00000
C00000
600000
700100
380380
1C0F00
0FFE00
03F800
ENDCHAR
STARTCHAR 0108
ENCODING 264
SWIDTH 810 0
DWIDTH 27 0
BBX 23 31 2 0
BITMAP
001C00
003E00
007700
00E380
01C1C0
000000
000000
007F80
03FFE0
0780F8
0E003C
18000E
300004
700000
600000
E00000
C00000
C00000
C00000
C00000
C00000
C00000
E00000
600000
700000
300004
18000E
1E003C
0780F8
03FFE0
007F80
ENDCHAR
STARTCHAR 0109
ENCODING 265
SWIDTH 630 0
DWIDTH 21 0
BBX 17 25 2 0
BITMAP
01C000
03E000
077000
0E3800
1C1C00
000000
000000
03F000
0FFE00
1C0F00
380380
700100
600000
C00000
C00000
C00000
C00000
C00000
C00000
600000
700100
380380
1C0F00
0FFE00
03F800
ENDCHAR
STARTCHAR 010A
ENCODING 266
SWIDTH 810 0
DWIDTH 27 0
BBX 23 30 2 0
BITMAP
003000
007800
007800
003000
000000
000000
007F80
03FFE0
0780F8
0E003C
18000E
300004
700000
600000
E00000
C00000
C00000
C00000
C00000
C00000
C00000
E00000
600000
700000
300004
18000E
1E003C
0780F8
03FFE0
007F80
ENDCHAR
STARTCHAR 010B
ENCODING 267
SWIDTH 630 0
DWIDTH 21 0
BBX 17 24 2 0
BITMAP
018000
03C000
03C000
018000
000000
000000
03F000
0FFE00
1C0F00
380380
700100
600000
C00000
C00000
C00000
C00000
C00000
C00000
600000
700100
380380
1C0F00
0FFE00
03F800
ENDCHAR
STARTCHAR 010C
ENCODING 268
SWIDTH 810 0
DWIDTH 27 0
BBX 23 31 2 0
BITMAP
038380
01C700
00EE00
007C00
003800
000000
000000
007F80
03FFE0
0780F8
0E003C
18000E
300004
700000
600000
E00000
C00000
C00000
C00000
C00000
C00000
C00000
E00000
600000
700000
300004
18000E
1E003C
0780F8
03FFE0
007F80
ENDCHAR
STARTCHAR 010D
ENCODING 269
SWIDTH 630 0
DWIDTH 21 0
BBX 17 25 2 0
BITMAP
1C1C00
0E3800
077000
03E000
01C000
000000
000000
03F000
0FFE00
1C0F00
380380
700100
600000
C00000
C00000
C00000
C00000
C00000
C00000
600000
700100
380380
1C0F00
0FFE00
03F800
ENDCHAR
STARTCHAR 010E
ENCODING 270
SWIDTH 750 0
DWIDTH 25 0
BBX 20 31 3 0
BITMAP
383800
1C7000
0EE000
07C000
038000
000000
000000
FFE000
FFFC00
C03F00
C00780
C001C0
C000C0
C000E0
C00060
C00070
C00030
C00030
C00030
C00030
C00030
C00030
C00030
C00060
C00060
C000E0
C001C0
C00380
C01F00
FFFE00
FFF000
ENDCHAR
STARTCHAR 010F
ENCODING 271
SWIDTH 690 0
DWIDTH 23 0
BBX 22 25 2 0
BITMAP
00006C
00006C
00006C
00006C
000064
000064
00006C
03F868
0FFE60
1E0F60
3803E0
7001E0
6000E0
C00060
C00060
C00060
C00060
C00060
C00060
6000E0
7001E0
3803E0
1E0F60
0FFE60
03F860
ENDCHAR
STARTCHAR 0110
ENCODING 272
SWIDTH 780 0
DWIDTH 26 0
BBX 24 24 0 0
BITMAP
1FFE00
1FFFC0
1803F0
180078
18001C
18000C
18000E
180006
180007
180003
180003
FFF003
FFF003
180003
180003
180003
180006
180006
18000E
18001C
180038
1801F0
1FFFE0
1FFF00
ENDCHAR
STARTCHAR 0111
ENCODING 273
SWIDTH 690 0
DWIDTH 23 0
BBX 21 25 2 0
BITMAP
000060
000060
000060
000060
000FF8
000FF8
000060
03F860
0FFE60
1E0F60
3803E0
7001E0
6000E0
E00060
C00060
C00060
C00060
C00060
E00060
6000E0
7001E0
3803E0
1E0FE0
0FFE60
03F860
ENDCHAR
STARTCHAR 0112
ENCODING 274
SWIDTH 540 0
DWIDTH 18 0
BBX 14 29 3 0
BITMAP
3FF8
3FF8
0000
0000
0000
FFFC
FFFC
C000
C000
C000
C000
C000
C000
C000
C000
FFFC
FFFC
C000
C000
C000
C000
C000
C000
C000
C000
C000
C000
FFFC
FFFC
ENDCHAR
STARTCHAR 0113
ENCODING 275
SWIDTH 630 0
DWIDTH 21 0
BBX 17 24 2 0
BITMAP
1FFC00
1FFC00
000000
000000
000000
000000
03E000
0FF800
1C1C00
300600
600300
600300
C00180
FFFF80
FFFF80
C00000
C00000
C00000
600200
600700
300E00
3C1C00
1FF800
07E000
ENDCHAR
STARTCHAR 0114
ENCODING 276
SWIDTH 540 0
DWIDTH 18 0
BBX 14 30 3 0
BITMAP
6030
3060
3FE0
0F80
0000
0000
FFFC
FFFC
C000
C000
C000
C000
C000
C000
C000
C000
FFFC
FFFC
C000
C000
C000
C000
C000
C000
C000
C000
C000
C000
FFFC
FFFC
ENDCHAR
STARTCHAR 0115
ENCODING 277
SWIDTH 630 0
DWIDTH 21 0
BBX 17 24 2 0
BITMAP
180C00
0C1800
0FF800
03E000
000000
000000
03E000
0FF800
1C1C00
300600
600300
600300
C00180
FFFF80
FFFF80
C00000
C00000
C00000
600200
600700
300E00
3C1C00
1FF800
07E000
ENDCHAR
STARTCHAR 0116
ENCODING 278
SWIDTH 540 0
DWIDTH 18 0
BBX 14 30 3 0
BITMAP
0300
0780
0780
0300
0000
0000
FFFC
FFFC
C000
C000
C000
C000
C000
C000
C000
C000
FFFC
FFFC
C000
C000
C000
C000
C000
C000
C000
C000
C000
C000
FFFC
FFFC
ENDCHAR
STARTCHAR 0117
ENCODING 279
SWIDTH 630 0
DWIDTH 21 0
BBX 17 24 2 0
BITMAP
018000
03C000
03C000
018000
000000
000000
03E000
0FF800
1C1C00
300600
600300
600300
C00180
FFFF80
FFFF80
C00000
C00000
C00000
600200
600700
300E00
3C1C00
1FF800
07E000
ENDCHAR
STARTCHAR 0118
ENCODING 280
SWIDTH 540 0
DWIDTH 18 0
BBX 14 30 3 -6
BITMAP
FFFC
FFFC
C000
C000
C000
C000
C000
C000
C000
C000
FFFC
FFFC
C000
C000
C000
C000
C000
C000
C000
C000
C000
C000
FFFC
FFFC
0180
0380
0300
0300
0380
00F0
ENDCHAR
STARTCHAR 0119
ENCODING 281
SWIDTH 630 0
DWIDTH 21 0
BBX 17 24 2 -6
BITMAP
03E000
0FF800
1C1C00
300600
600300
600300
C00180
FFFF80
FFFF80
C00000
C00000
C00000
600200
600700
300E00
3C1C00
1FF800
07E000
018000
038000
030000
030000
038000
00F000
ENDCHAR
STARTCHAR 011A
ENCODING 282
SWIDTH 540 0
DWIDTH 18 0
BBX 14 31 3 0
BITMAP
7070
38E0
1DC0
0F80
0700
0000
0000
FFFC
FFFC
C000
C000
C000
C000
C000
C000
C000
C000
FFFC
FFFC
C000
C000
C000
C000
C000
C000
C000
C000
C000
C000
FFFC
FFFC
ENDCHAR
STARTCHAR 011B
ENCODING 283
SWIDTH 630 0
DWIDTH 21 0
BBX 17 25 2 0
BITMAP
1C1C00
0E3800
077000
03E000
01C000
000000
000000
03E000
0FF800
1C1C00
300600
600300
600300
C00180
FFFF80
FFFF80
C00000
C00000
C00000
600200
600700
300E00
3C1C00
1FF800
07E000
ENDCHAR
STARTCHAR 011C
ENCODING 284
SWIDTH 870 0
DWIDTH 29 0
BBX 25 31 2 0
BITMAP
001C0000
003E0000
00770000
00E38000
01C1C000
00000000
00000000
007F0000
03FFE000
0781F800
0E003C00
1C001E00
30000400
70000000
60000000
E0000000
C0000000
C0000000
C0000000
C001FF80
C001FF80
C0000180
60000180
60000300
70000300
38000600
1C000E00
0E001C00
07C07800
03FFF000
007F8000
ENDCHAR
STARTCHAR 011D
ENCODING 285
SWIDTH 660 0
DWIDTH 22 0
BBX 18 31 2 -6
BITMAP
01C000
03E000
077000
0E3800
1C1C00
000000
000000
03F0C0
0FFCC0
1E0EC0
3807C0
7003C0
6001C0
E000C0
C000C0
C000C0
C000C0
C000C0
C000C0
6001C0
6001C0
3003C0
1C0EC0
0FFCC0
03F0C0
0000C0
C00180
600380
380F00
1FFE00
07F000
ENDCHAR
STARTCHAR 011E
ENCODING 286
SWIDTH 870 0
DWIDTH 29 0
BBX 25 30 2 0
BITMAP
0180C000
00C18000
00FF8000
003E0000
00000000
00000000
007F0000
03FFE000
0781F800
0E003C00
1C001E00
30000400
70000000
60000000
E0000000
C0000000
C0000000
C0000000
C001FF80
C001FF80
C0000180
60000180
60000300
70000300
38000600
1C000E00
0E001C00
07C07800
03FFF000
007F8000
ENDCHAR
STARTCHAR 011F
ENCODING 287
SWIDTH 660 0
DWIDTH 22 0
BBX 18 30 2 -6
BITMAP
180C00
0C1800
0FF800
03E000
000000
000000
03F0C0
0FFCC0
1E0EC0
3807C0
7003C0
6001C0
E000C0
C000C0
C000C0
C000C0
C000C0
C000C0
6001C0
6001C0
3003C0
1C0EC0
0FFCC0
03F0C0
0000C0
C00180
600380
380F00
1FFE00
07F000
ENDCHAR
STARTCHAR 0120
ENCODING 288
SWIDTH 870 0
DWIDTH 29 0
BBX 25 30 2 0
BITMAP
00180000
003C0000
003C0000
00180000
00000000
00000000
007F0000
03FFE000
0781F800
0E003C00
1C001E00
30000400
70000000
60000000
E0000000
C0000000
C0000000
C0000000
C001FF80
C001FF80
C0000180
60000180
60000300
70000300
38000600
1C000E00
0E001C00
07C07800
03FFF000
007F8000
ENDCHAR
STARTCHAR 0121
ENCODING 289
SWIDTH 660 0
DWIDTH 22 0
BBX 18 30 2 -6
BITMAP
00C000
01E000
01E000
00C000
000000
000000
03F0C0
0FFCC0
1E0EC0
3807C0
7003C0
6001C0
E000C0
C000C0
C000C0
C000C0
C000C0
C000C0
6001C0
6001C0
3003C0
1C0EC0
0FFCC0
03F0C0
0000C0
C00180
600380
380F00
1FFE00
07F000
ENDCHAR
STARTCHAR 0122
ENCODING 290
SWIDTH 870 0
DWIDTH 29 0
BBX 25 30 2 -6
BITMAP
007F0000
03FFE000
0781F800
0E003C00
1C001E00
30000400
70000000
60000000
E0000000
C0000000
C0000000
C0000000
C001FF80
C001FF80
C0000180
60000180
60000300
70000300
38000600
1C000E00
0E001C00
07C07800
03FFF000
007F8000
000C0000
000C0000
000F0000
00030000
00030000
007E0000
ENDCHAR
STARTCHAR 0123
ENCODING 291
SWIDTH 660 0
DWIDTH 22 0
BBX 18 34 2 -6
BITMAP
004000
00C000
008000
008000
00C000
00C000
00C000
00C000
000000
000000
03F0C0
0FFCC0
1E0EC0
3807C0
7003C0
6001C0
E000C0
C000C0
C000C0
C000C0
C000C0
C000C0
6001C0
6001C0
3003C0
1C0EC0
0FFCC0
03F0C0
0000C0
C00180
600380
380F00
1FFE00
07F000
ENDCHAR
STARTCHAR 0124
ENCODING 292
SWIDTH 690 0
DWIDTH 23 0
BBX 17 31 3 0
BITMAP
01C000
03E000
077000
0E3800
1C1C00
000000
000000
C00180
C00180
C00180
C00180
C00180
C00180
C00180
C00180
C00180
C00180
FFFF80
FFFF80
C00180
C00180
C00180
C00180
C00180
C00180
C00180
C00180
C00180
C00180
C00180
C00180
ENDCHAR
STARTCHAR 0125
ENCODING 293
SWIDTH 600 0
DWIDTH 20 0
BBX 16 31 2 0
BITMAP
01C0
03E0
0770
0E38
1C1C
0000
C000
C000
C000
C000
C000
C000
C000
C3F0
CFF8
DC1C
F806
F006
E003
C003
C003
C003
C003
C003
C003
C003
C003
C003
C003
C003
C003
ENDCHAR
STARTCHAR 0126
ENCODING 294
SWIDTH 690 0
DWIDTH 23 0
BBX 21 24 1 0
BITMAP
300060
300060
300060
300060
FFFFF8
FFFFF8
300060
300060
300060
300060
3FFFE0
3FFFE0
300060
300060
300060
300060
300060
300060
300060
300060
300060
300060
300060
300060
ENDCHAR
STARTCHAR 0127
ENCODING 295
SWIDTH 600 0
DWIDTH 20 0
BBX 18 25 0 0
BITMAP
300000
300000
300000
FFC000
FFC000
300000
300000
30FC00
33FE00
370700
3E0180
3C01C0
3800C0
3000C0
3000C0
3000C0
3000C0
3000C0
3000C0
3000C0
3000C0
3000C0
3000C0
3000C0
3000C0
ENDCHAR
STARTCHAR 0128
ENCODING 296
SWIDTH 240 0
DWIDTH 8 0
BBX 11 29 -2 0
BITMAP
7C40
FFE0
47C0
0000
0000
0600
0600
0600
0600
0600
0600
0600
0600
0600
0600
0600
0600
0600
0600
0600
0600
0600
0600
0600
0600
0600
0600
0600
0600
ENDCHAR
STARTCHAR 0129
ENCODING 297
SWIDTH 180 0
DWIDTH 6 0
BBX 11 23 -2 0
BITMAP
7C40
FFE0
47C0
0000
0000
0C00
0C00
0C00
0C00
0C00
0C00
0C00
0C00
0C00
0C00
0C00
0C00
0C00
0C00
0C00
0C00
0C00
0C00
ENDCHAR
STARTCHAR 012A
ENCODING 298
SWIDTH 240 0
DWIDTH 8 0
BBX 11 29 -1 0
BITMAP
FFE0
FFE0
0000
0000
0000
0C00
0C00
0C00
0C00
0C00
0C00
0C00
0C00
0C00
0C00
0C00
0C00
0C00
0C00
0C00
0C00
0C00
0C00
0C00
0C00
0C00
0C00
0C00
0C00
ENDCHAR
STARTCHAR 012B
ENCODING 299
SWIDTH 180 0
DWIDTH 6 0
BBX 11 24 -2 0
BITMAP
FFE0
FFE0
0000
0000
0000
0000
0C00
0C00
0C00
0C00
0C00
0C00
0C00
0C00
0C00
0C00
0C00
0C00
0C00
0C00
0C00
0C00
0C00
0C00
ENDCHAR
STARTCHAR 012C
ENCODING 300
SWIDTH 240 0
DWIDTH 8 0
BBX 11 30 -1 0
BITMAP
C060
60C0
7FC0
1F00
0000
0000
0C00
0C00
0C00
0C00
0C00
0C00
0C00
0C00
0C00
0C00
0C00
0C00
0C00
0C00
0C00
0C00
0C00
0C00
0C00
0C00
0C00
0C00
0C00
0C00
ENDCHAR
STARTCHAR 012D
ENCODING 301
SWIDTH 180 0
DWIDTH 6 0
BBX 11 24 -3 0
BITMAP
C060
60C0
7FC0
1F00
0000
0000
0600
0600
0600
0600
0600
0600
0600
0600
0600
0600
0600
0600
0600
0600
0600
0600
0600
0600
ENDCHAR
STARTCHAR 012E
ENCODING 302
SWIDTH 240 0
DWIDTH 8 0
BBX 6 30 1 -6
BITMAP
30
30
30
30
30
30
30
30
30
30
30
30
30
30
30
30
30
30
30
30
30
30
30
30
60
E0
C0
C0
E0
3C
ENDCHAR
STARTCHAR 012F
ENCODING 303
SWIDTH 210 0
DWIDTH 7 0
BBX 6 31 0 -6
BITMAP
30
78
78
30
00
00
00
30
30
30
30
30
30
30
30
30
30
30
30
30
30
30
30
30
30
60
E0
C0
C0
E0
3C
ENDCHAR
STARTCHAR 0130
ENCODING 304
SWIDTH 240 0
DWIDTH 8 0
BBX 4 30 2 0
BITMAP
60
F0
F0
60
00
00
60
60
60
60
60
60
60
60
60
60
60
60
60
60
60
60
60
60
60
60
60
60
60
60
ENDCHAR
STARTCHAR 0131
ENCODING 305
SWIDTH 180 0
DWIDTH 6 0
BBX 2 18 2 0
BITMAP
C0
C0
C0
C0
C0
C0
C0
C0
C0
C0
C0
C0
C0
C0
C0
C0
C0
C0
ENDCHAR
STARTCHAR 0132
ENCODING 306
SWIDTH 690 0
DWIDTH 23 0
BBX 17 24 3 0
BITMAP
C00180
C00180
C00180
C00180
C00180
C00180
C00180
C00180
C00180
C00180
C00180
C00180
C00180
C00180
C00180
C00180
C00180
C00180
C00180
C00180
C10380
C3C700
C1FE00
C07C00
ENDCHAR
STARTCHAR 0133
ENCODING 307
SWIDTH 390 0
DWIDTH 13 0
BBX 10 31 1 -6
BITMAP
6180
F3C0
F3C0
6180
0000
0000
0000
6180
6180
6180
6180
6180
6180
6180
6180
6180
6180
6180
6180
6180
6180
6180
6180
6180
6180
0180
0180
0180
0180
0F80
0F00
ENDCHAR
STARTCHAR 0134
ENCODING 308
SWIDTH 480 0
DWIDTH 16 0
BBX 14 31 1 0
BITMAP
01C0
03E0
0770
0E38
1C1C
0000
0000
0030
0030
0030
0030
0030
0030
0030
0030
0030
0030
0030
0030
0030
0030
0030
0030
0030
0030
0030
0030
4070
F0E0
7FC0
1F80
ENDCHAR
STARTCHAR 0135
ENCODING 309
SWIDTH 180 0
DWIDTH 6 0
BBX 11 32 -3 -6
BITMAP
0E00
1F00
3B80
71C0
E0E0
0000
0000
0000
0600
0600
0600
0600
0600
0600
0600
0600
0600
0600
0600
0600
0600
0600
0600
0600
0600
0600
0600
0600
0600
0600
3E00
3C00
ENDCHAR
STARTCHAR 0136
ENCODING 310
SWIDTH 600 0
DWIDTH 20 0
BBX 16 30 3 -6
BITMAP
C00E
C01C
C038
C070
C0E0
C180
C300
CE00
DC00
F800
F000
F000
F800
DC00
CE00
C700
C380
C1C0
C0E0
C070
C038
C01C
C00E
C007
0000
0000
0700
0180
0180
1F00
ENDCHAR
STARTCHAR 0137
ENCODING 311
SWIDTH 510 0
DWIDTH 17 0
BBX 14 31 2 -6
BITMAP
C000
C000
C000
C000
C000
C000
C000
C018
C030
C0E0
C1C0
C380
C700
CE00
DC00
F000
F000
DC00
CE00
C700
C180
C0E0
C070
C038
C01C
0000
0000
0E00
0300
0300
3E00
ENDCHAR
STARTCHAR 0138
ENCODING 312
SWIDTH 510 0
DWIDTH 17 0
BBX 14 18 2 0
BITMAP
C018
C030
C0E0
C1C0
C380
C700
CE00
DC00
F000
F000
DC00
CE00
C700
C380
C0E0
C070
C038
C01C
ENDCHAR
STARTCHAR 0139
ENCODING 313
SWIDTH 450 0
DWIDTH 15 0
BBX 11 31 3 0
BITMAP
0780
0F00
0E00
1C00
3800
0000
0000
C000
C000
C000
C000
C000
C000
C000
C000
C000
C000
C000
C000
C000
C000
C000
C000
C000
C000
C000
C000
C000
C000
FFE0
FFE0
ENDCHAR
STARTCHAR 013A
ENCODING 314
SWIDTH 180 0
DWIDTH 6 0
BBX 7 31 1 0
BITMAP
1E
3C
38
70
E0
00
60
60
60
60
60
60
60
60
60
60
60
60
60
60
60
60
60
60
60
60
60
60
60
60
60
ENDCHAR
STARTCHAR 013B
ENCODING 315
SWIDTH 450 0
DWIDTH 15 0
BBX 11 30 3 -6
BITMAP
C000
C000
C000
C000
C000
C000
C000
C000
C000
C000
C000
C000
C000
C000
C000
C000
C000
C000
C000
C000
C000
C000
FFE0
FFE0
0000
0000
0E00
0300
0300
3E00
ENDCHAR
STARTCHAR 013C
ENCODING 316
SWIDTH 180 0
DWIDTH 6 0
BBX 5 28 0 -3
BITMAP
30
30
30
30
30
30
30
30
30
30
30
30
30
30
30
30
30
30
30
30
30
30
30
30
30
00
F0
38
ENDCHAR
STARTCHAR 013D
ENCODING 317
SWIDTH 450 0
DWIDTH 15 0
BBX 11 24 3 0
BITMAP
CC00
CC00
CC00
CC00
C400
C400
CC00
C800
C000
C000
C000
C000
C000
C000
C000
C000
C000
C000
C000
C000
C000
C000
FFE0
FFE0
ENDCHAR
STARTCHAR 013E
ENCODING 318
SWIDTH 210 0
DWIDTH 7 0
BBX 5 25 2 0
BITMAP
D8
D8
D8
D8
C8
C8
D8
D0
C0
C0
C0
C0
C0
C0
C0
C0
C0
C0
C0
C0
C0
C0
C0
C0
C0
ENDCHAR
STARTCHAR 013F
ENCODING 319
SWIDTH 450 0
DWIDTH 15 0
BBX 11 24 3 0
BITMAP
C000
C000
C000
C000
C000
C000
C000
C000
C000
C000
C300
C780
C780
C300
C000
C000
C000
C000
C000
C000
C000
C000
FFE0
FFE0
ENDCHAR
STARTCHAR 0140
ENCODING 320
SWIDTH 270 0
DWIDTH 9 0
BBX 8 25 2 0
BITMAP
C0
C0
C0
C0
C0
C0
C0
C0
C0
C0
C0
C6
CF
CF
C6
C0
C0
C0
C0
C0
C0
C0
C0
C0
C0
ENDCHAR
STARTCHAR 0141
ENCODING 321
SWIDTH 510 0
DWIDTH 17 0
BBX 15 24 1 0
BITMAP
1800
1800
1800
1800
1800
1800
1840
18C0
1980
1B00
1E00
1C00
1800
3800
7800
D800
9800
1800
1800
1800
1800
1800
1FFE
1FFE
ENDCHAR
STARTCHAR 0142
ENCODING 322
SWIDTH 270 0
DWIDTH 9 0
BBX 8 25 0 0
BITMAP
18
18
18
18
18
18
18
19
1B
1F
1E
18
78
F8
D8
98
18
18
18
18
18
18
18
18
18
ENDCHAR
STARTCHAR 0143
ENCODING 323
SWIDTH 720 0
DWIDTH 24 0
BBX 18 31 3 0
BITMAP
007800
00F000
00E000
01C000
038000
000000
000000
8000C0
C000C0
C000C0
E000C0
F000C0
D800C0
DC00C0
CC00C0
C600C0
C300C0
C180C0
C1C0C0
C0C0C0
C060C0
C030C0
C018C0
C00CC0
C00CC0
C006C0
C003C0
C001C0
C000C0
C000C0
C00040
ENDCHAR
STARTCHAR 0144
ENCODING 324
SWIDTH 600 0
DWIDTH 20 0
BBX 16 25 2 0
BITMAP
00F0
01E0
01C0
0380
0700
0000
0000
C3F0
CFF8
DC1C
F80E
F006
E003
C003
C003
C003
C003
C003
C003
C003
C003
C003
C003
C003
C003
ENDCHAR
STARTCHAR 0145
ENCODING 325
SWIDTH 720 0
DWIDTH 24 0
BBX 18 30 3 -6
BITMAP
8000C0
C000C0
C000C0
E000C0
F000C0
D800C0
DC00C0
CC00C0
C600C0
C300C0
C180C0
C0C0C0
C0C0C0
C060C0
C030C0
C018C0
C00CC0
C00CC0
C006C0
C003C0
C001C0
C000C0
C000C0
C00040
000000
000000
01C000
006000
006000
07C000
ENDCHAR
STARTCHAR 0146
ENCODING 326
SWIDTH 600 0
DWIDTH 20 0
BBX 16 24 2 -6
BITMAP
C3F0
CFF8
DC1C
F80E
F006
E003
C003
C003
C003
C003
C003
C003
C003
C003
C003
C003
C003
C003
0000
0000
0380
00C0
00C0
0F80
ENDCHAR
STARTCHAR 0147
ENCODING 327
SWIDTH 720 0
DWIDTH 24 0
BBX 18 31 3 0
BITMAP
1C1C00
0E3800
077000
03E000
01C000
000000
000000
8000C0
C000C0
C000C0
E000C0
F000C0
D800C0
DC00C0
CC00C0
C600C0
C300C0
C180C0
C1C0C0
C0C0C0
C060C0
C030C0
C018C0
C00CC0
C00CC0
C006C0
C003C0
C001C0
C000C0
C000C0
C00040
ENDCHAR
STARTCHAR 0148
ENCODING 328
SWIDTH 600 0
DWIDTH 20 0
BBX 16 25 2 0
BITMAP
3838
1C70
0EE0
07C0
0380
0000
0000
C3F0
CFF8
DC1C
F80E
F006
E003
C003
C003
C003
C003
C003
C003
C003
C003
C003
C003
C003
C003
ENDCHAR
STARTCHAR 0149
ENCODING 329
SWIDTH 600 0
DWIDTH 20 0
BBX 19 25 -1 0
BITMAP
C00000
C00000
C00000
C00000
400000
400000
C00000
987E00
19FF00
1B8380
1F01C0
1E00C0
1C0060
180060
180060
180060
180060
180060
180060
180060
180060
180060
180060
180060
180060
ENDCHAR
STARTCHAR 014A
ENCODING 330
SWIDTH 780 0
DWIDTH 26 0
BBX 21 24 3 0
BITMAP
C1F800
C7FF00
DE0780
F801C0
E000E0
C00060
C00030
C00030
C00038
C00018
C00018
C00018
C00018
C00018
C00018
C00018
C00030
C00030
C00070
C00060
C200C0
C78380
C3FF00
C0FC00
ENDCHAR
STARTCHAR 014B
ENCODING 331
SWIDTH 600 0
DWIDTH 20 0
BBX 16 24 2 -6
BITMAP
C3F0
CFFC
DC1E
F806
F007
E003
C003
C003
C003
C003
C003
C003
C003
C003
C003
C003
C003
C003
0003
0003
0003
0003
001F
001E
ENDCHAR
STARTCHAR 014C
ENCODING 332
SWIDTH 870 0
DWIDTH 29 0
BBX 25 29 2 0
BITMAP
01FFC000
01FFC000
00000000
00000000
00000000
007F0000
03FFE000
0780F000
0E003800
1C001C00
38000E00
70000700
60000300
60000300
C0000180
C0000180
C0000180
C0000180
C0000180
C0000180
E0000380
60000300
70000700
30000600
18000C00
0E003800
0780F000
03FFE000
007F0000
ENDCHAR
STARTCHAR 014D
ENCODING 333
SWIDTH 660 0
DWIDTH 22 0
BBX 18 24 2 0
BITMAP
0FFE00
0FFE00
000000
000000
000000
000000
03F000
0FFC00
1C0E00
380700
700380
600180
C000C0
C000C0
C000C0
C000C0
C000C0
C000C0
600180
700380
380700
1C0E00
0FFC00
03F000
ENDCHAR
STARTCHAR 014E
ENCODING 334
SWIDTH 870 0
DWIDTH 29 0
BBX 25 30 2 0
BITMAP
0180C000
00C18000
00FF8000
003E0000
00000000
00000000
007F0000
03FFE000
0780F000
0E003800
1C001C00
38000E00
70000700
60000300
60000300
C0000180
C0000180
C0000180
C0000180
C0000180
C0000180
E0000380
60000300
70000700
30000600
18000C00
0E003800
0780F000
03FFE000
007F0000
ENDCHAR
STARTCHAR 014F
ENCODING 335
SWIDTH 660 0
DWIDTH 22 0
BBX 18 24 2 0
BITMAP
0C0600
060C00
07FC00
01F000
000000
000000
03F000
0FFC00
1C0E00
380700
700380
600180
C000C0
C000C0
C000C0
C000C0
C000C0
C000C0
600180
700380
380700
1C0E00
0FFC00
03F000
ENDCHAR
STARTCHAR 0150
ENCODING 336
SWIDTH 870 0
DWIDTH 29 0
BBX 25 31 2 0
BITMAP
000F7800
001EF000
001CE000
0039C000
00738000
00000000
00000000
007F0000
03FFE000
0780F000
0E003800
1C001C00
38000E00
70000700
60000300
60000300
C0000180
C0000180
C0000180
C0000180
C0000180
C0000180
E0000380
60000300
70000700
30000600
18000C00
0E003800
0780F000
03FFE000
007F0000
ENDCHAR
STARTCHAR 0151
ENCODING 337
SWIDTH 660 0
DWIDTH 22 0
BBX 18 25 2 0
BITMAP
00F780
01EF00
01CE00
039C00
073800
000000
000000
03F000
0FFC00
1C0E00
380700
700380
600180
C000C0
C000C0
C000C0
C000C0
C000C0
C000C0
600180
700380
380700
1C0E00
0FFC00
03F000
ENDCHAR
STARTCHAR 0152
ENCODING 338
SWIDTH 1170 0
DWIDTH 39 0
BBX 36 24 2 0
BITMAP
007F03FFF0
03FFE3FFF0
0781F30000
0E007B0000
18001F0000
30000F0000
70000F0000
6000070000
6000070000
C000030000
C00003FFF0
C00003FFF0
C000030000
C000030000
C000030000
E000070000
6000070000
70000F0000
30000F0000
18001F0000
1E007B0000
0781F30000
03FFE3FFF0
00FF83FFF0
ENDCHAR
STARTCHAR 0153
ENCODING 339
SWIDTH 1140 0
DWIDTH 38 0
BBX 34 18 2 0
BITMAP
03F003F000
0FFC0FFC00
1C0E1C0E00
3807300300
7003E00180
6001E00180
C000C000C0
C000FFFFC0
C000FFFFC0
C000C00000
C000C00000
C000C00000
6001E00100
7003E00380
3807300700
1C0E3C1E00
0FFC0FFC00
03F003F000
ENDCHAR
STARTCHAR 0154
ENCODING 340
SWIDTH 600 0
DWIDTH 20 0
BBX 15 31 3 0
BITMAP
01E0
03C0
0380
0700
0E00
0000
0000
FFE0
FFF8
C01C
C00C
C006
C006
C006
C006
C00C
C01C
FFF8
FFE0
CE00
C600
C300
C180
C1C0
C0C0
C060
C070
C030
C018
C00C
C00E
ENDCHAR
STARTCHAR 0155
ENCODING 341
SWIDTH 300 0
DWIDTH 10 0
BBX 8 25 2 0
BITMAP
1E
3C
38
70
E0
00
00
CF
DE
F0
E0
E0
C0
C0
C0
C0
C0
C0
C0
C0
C0
C0
C0
C0
C0
ENDCHAR
STARTCHAR 0156
ENCODING 342
SWIDTH 600 0
DWIDTH 20 0
BBX 15 30 3 -6
BITMAP
FFE0
FFF8
C01C
C00C
C006
C006
C006
C006
C00C
C01C
FFF8
FFE0
CE00
C600
C300
C180
C1C0
C0C0
C060
C070
C030
C018
C00C
C00E
0000
0000
0700
0180
0180
1F00
ENDCHAR
STARTCHAR 0157
ENCODING 343
SWIDTH 300 0
DWIDTH 10 0
BBX 9 24 1 -6
BITMAP
6780
6F00
7800
7000
7000
6000
6000
6000
6000
6000
6000
6000
6000
6000
6000
6000
6000
6000
0000
0000
3800
0C00
0C00
F800
ENDCHAR
STARTCHAR 0158
ENCODING 344
SWIDTH 600 0
DWIDTH 20 0
BBX 15 31 3 0
BITMAP
7070
38E0
1DC0
0F80
0700
0000
0000
FFE0
FFF8
C01C
C00C
C006
C006
C006
C006
C00C
C01C
FFF8
FFE0
CE00
C600
C300
C180
C1C0
C0C0
C060
C070
C030
C018
C00C
C00E
ENDCHAR
STARTCHAR 0159
ENCODING 345
SWIDTH 300 0
DWIDTH 10 0
BBX 11 26 -1 0
BITMAP
E0E0
71C0
3B80
1F00
0E00
0000
0000
0000
19E0
1BC0
1E00
1C00
1C00
1800
1800
1800
1800
1800
1800
1800
1800
1800
1800
1800
1800
1800
ENDCHAR
STARTCHAR 015A
ENCODING 346
SWIDTH 480 0
DWIDTH 16 0
BBX 13 31 1 0
BITMAP
00F0
01E0
01C0
0380
0700
0000
0000
07C0
0FE0
1870
3038
3010
3000
3000
3800
1C00
0E00
0700
0380
01C0
00E0
0070
0038
0018
0018
4018
E018
7030
7870
3FE0
0F80
ENDCHAR
STARTCHAR 015B
ENCODING 347
SWIDTH 390 0
DWIDTH 13 0
BBX 10 25 1 0
BITMAP
1E00
3C00
3800
7000
E000
0000
0000
1E00
3F80
71C0
6080
6000
6000
7000
3800
1E00
0700
0380
01C0
00C0
00C0
40C0
E180
7F80
1E00
ENDCHAR
STARTCHAR 015C
ENCODING 348
SWIDTH 480 0
DWIDTH 16 0
BBX 13 31 1 0
BITMAP
0380
07C0
0EE0
1C70
3838
0000
0000
07C0
0FE0
1870
3038
3010
3000
3000
3800
1C00
0E00
0700
0380
01C0
00E0
0070
0038
0018
0018
4018
E018
7030
7870
3FE0
0F80
ENDCHAR
STARTCHAR 015D
ENCODING 349
SWIDTH 390 0
DWIDTH 13 0
BBX 11 25 1 0
BITMAP
0E00
1F00
3B80
71C0
E0E0
0000
0000
1E00
3F80
71C0
6080
6000
6000
7000
3800
1E00
0700
0380
01C0
00C0
00C0
40C0
E180
7F80
1E00
ENDCHAR
STARTCHAR 015E
ENCODING 350
SWIDTH 480 0
DWIDTH 16 0
BBX 13 30 1 -6
BITMAP
07C0
0FE0
1870
3038
3010
3000
3000
3800
1C00
0E00
0700
0380
01C0
00E0
0070
0038
0018
0018
4018
E018
7030
7870
3FE0
0F80
0300
0300
03C0
00C0
00C0
1F80
ENDCHAR
STARTCHAR 015F
ENCODING 351
SWIDTH 390 0
DWIDTH 13 0
BBX 10 24 1 -6
BITMAP
1E00
3F80
71C0
6080
6000
6000
7000
3800
1E00
0700
0380
01C0
00C0
00C0
40C0
E180
7F80
1E00
0600
0600
0780
0180
0180
3F00
ENDCHAR
STARTCHAR 0160
ENCODING 352
SWIDTH 480 0
DWIDTH 16 0
BBX 13 31 1 0
BITMAP
7070
38E0
1DC0
0F80
0700
0000
0000
07C0
0FE0
1870
3038
3010
3000
3000
3800
1C00
0E00
0700
0380
01C0
00E0
0070
0038
0018
0018
4018
E018
7030
7870
3FE0
0F80
ENDCHAR
STARTCHAR 0161
ENCODING 353
SWIDTH 390 0
DWIDTH 13 0
BBX 11 25 0 0
BITMAP
E0E0
71C0
3B80
1F00
0E00
0000
0000
0F00
1FC0
38E0
3040
3000
3000
3800
1C00
0F00
0380
01C0
00E0
0060
0060
2060
70C0
3FC0
0F00
ENDCHAR
STARTCHAR 0162
ENCODING 354
SWIDTH 390 0
DWIDTH 13 0
BBX 12 30 0 -6
BITMAP
FFF0
FFF0
0600
0600
0600
0600
0600
0600
0600
0600
0600
0600
0600
0600
0600
0600
0600
0600
0600
0600
0600
0600
0600
0600
0000
0000
0600
0600
0200
0400
ENDCHAR
STARTCHAR 0163
ENCODING 355
SWIDTH 300 0
DWIDTH 10 0
BBX 8 31 1 -6
BITMAP
18
18
18
18
18
18
18
FF
FF
18
18
18
18
18
18
18
18
18
18
18
18
18
18
18
18
00
00
18
18
08
10
ENDCHAR
STARTCHAR 0164
ENCODING 356
SWIDTH 390 0
DWIDTH 13 0
BBX 12 31 0 0
BITMAP
E0E0
71C0
3B80
1F00
0E00
0000
0000
FFF0
FFF0
0600
0600
0600
0600
0600
0600
0600
0600
0600
0600
0600
0600
0600
0600
0600
0600
0600
0600
0600
0600
0600
0600
ENDCHAR
STARTCHAR 0165
ENCODING 357
SWIDTH 300 0
DWIDTH 10 0
BBX 9 25 1 0
BITMAP
1980
1980
1980
1880
1880
1900
1800
FF00
FF00
1800
1800
1800
1800
1800
1800
1800
1800
1800
1800
1800
1800
1800
1800
1800
1800
ENDCHAR
STARTCHAR 0166
ENCODING 358
SWIDTH 420 0
DWIDTH 14 0
BBX 12 24 1 0
BITMAP
FFF0
FFF0
0600
0600
0600
0600
0600
0600
0600
0600
0600
0600
7FE0
7FE0
0600
0600
0600
0600
0600
0600
0600
0600
0600
0600
ENDCHAR
STARTCHAR 0167
ENCODING 359
SWIDTH 330 0
DWIDTH 11 0
BBX 8 25 1 0
BITMAP
18
18
18
18
18
18
18
FF
FF
18
18
18
18
18
18
FF
FF
18
18
18
18
18
18
18
18
ENDCHAR
STARTCHAR 0168
ENCODING 360
SWIDTH 630 0
DWIDTH 21 0
BBX 15 29 3 0
BITMAP
1F10
3FF8
11F0
0000
0000
C006
C006
C006
C006
C006
C006
C006
C006
C006
C006
C006
C006
C006
C006
C006
C006
C006
C006
C006
600C
701C
3838
1FF0
07C0
ENDCHAR
STARTCHAR 0169
ENCODING 361
SWIDTH 600 0
DWIDTH 20 0
BBX 16 23 2 0
BITMAP
0F88
1FFC
08F8
0000
0000
C003
C003
C003
C003
C003
C003
C003
C003
C003
C003
C003
C003
C003
6006
700E
381C
1FF8
07E0
ENDCHAR
STARTCHAR 016A
ENCODING 362
SWIDTH 630 0
DWIDTH 21 0
BBX 15 29 3 0
BITMAP
3FF8
3FF8
0000
0000
0000
C006
C006
C006
C006
C006
C006
C006
C006
C006
C006
C006
C006
C006
C006
C006
C006
C006
C006
C006
600C
701C
3838
1FF0
07C0
ENDCHAR
STARTCHAR 016B
ENCODING 363
SWIDTH 600 0
DWIDTH 20 0
BBX 16 24 2 0
BITMAP
1FFC
1FFC
0000
0000
0000
0000
C003
C003
C003
C003
C003
C003
C003
C003
C003
C003
C003
C003
C003
6006
700E
381C
1FF8
07E0
ENDCHAR
STARTCHAR 016C
ENCODING 364
SWIDTH 630 0
DWIDTH 21 0
BBX 15 30 3 0
BITMAP
3018
1830
1FF0
07C0
0000
0000
C006
C006
C006
C006
C006
C006
C006
C006
C006
C006
C006
C006
C006
C006
C006
C006
C006
C006
C006
600C
701C
3838
1FF0
07C0
ENDCHAR
STARTCHAR 016D
ENCODING 365
SWIDTH 600 0
DWIDTH 20 0
BBX 16 24 2 0
BITMAP
3018
1830
1FF0
07C0
0000
0000
C003
C003
C003
C003
C003
C003
C003
C003
C003
C003
C003
C003
C003
6006
700E
381C
1FF8
07E0
ENDCHAR
STARTCHAR 016E
ENCODING 366
SWIDTH 630 0
DWIDTH 21 0
BBX 15 33 3 0
BITMAP
0380
07C0
0C60
0C60
0C60
07C0
0380
0000
0000
C006
C006
C006
C006
C006
C006
C006
C006
C006
C006
C006
C006
C006
C006
C006
C006
C006
C006
C006
600C
701C
3838
1FF0
07C0
ENDCHAR
STARTCHAR 016F
ENCODING 367
SWIDTH 600 0
DWIDTH 20 0
BBX 16 27 2 0
BITMAP
01C0
03E0
0630
0630
0630
03E0
01C0
0000
0000
C003
C003
C003
C003
C003
C003
C003
C003
C003
C003
C003
C003
C003
6006
700E
381C
1FF8
07E0
ENDCHAR
STARTCHAR 0170
ENCODING 368
SWIDTH 630 0
DWIDTH 21 0
BBX 16 31 3 0
BITMAP
01EF
03DE
039C
0738
0E70
0000
0000
C006
C006
C006
C006
C006
C006
C006
C006
C006
C006
C006
C006
C006
C006
C006
C006
C006
C006
C006
600C
701C
3838
1FF0
07C0
ENDCHAR
STARTCHAR 0171
ENCODING 369
SWIDTH 600 0
DWIDTH 20 0
BBX 16 25 2 0
BITMAP
01EF
03DE
039C
0738
0E70
0000
0000
C003
C003
C003
C003
C003
C003
C003
C003
C003
C003
C003
C003
C003
6006
700E
381C
1FF8
07E0
ENDCHAR
STARTCHAR 0172
ENCODING 370
SWIDTH 630 0
DWIDTH 21 0
BBX 15 30 3 -6
BITMAP
C006
C006
C006
C006
C006
C006
C006
C006
C006
C006
C006
C006
C006
C006
C006
C006
C006
C006
C006
600C
701C
3838
1FF0
07C0
0300
0700
0600
0600
0700
01E0
ENDCHAR
STARTCHAR 0173
ENCODING 371
SWIDTH 600 0
DWIDTH 20 0
BBX 16 24 2 -6
BITMAP
C003
C003
C003
C003
C003
C003
C003
C003
C003
C003
C003
C003
C003
6006
700E
381C
1FF8
07E0
0300
0700
0600
0600
0700
01E0
ENDCHAR
STARTCHAR 0174
ENCODING 372
SWIDTH 900 0
DWIDTH 30 0
BBX 27 31 1 0
BITMAP
000E0000
001F0000
003B8000
0071C000
00E0E000
00000000
00000000
C0040060
C0060060
600E00C0
600E00C0
601F00C0
601B00C0
301B0180
303B8180
30318180
30318180
3860C380
1860C300
1860C300
18C06300
1CC06700
0CC06600
0D803600
0D803600
0D803E00
07001C00
07001C00
06001C00
06000C00
06000800
ENDCHAR
STARTCHAR 0175
ENCODING 373
SWIDTH 840 0
DWIDTH 28 0
BBX 27 25 0 0
BITMAP
000E0000
001F0000
003B8000
0071C000
00E0E000
00000000
00000000
C0040060
600E00C0
600E00C0
600E00C0
301B0180
301B0180
183B8300
18318300
18318300
0C60C600
0C60C600
0EE0EE00
06C06C00
06C06C00
03803800
03803800
03803800
01001000
ENDCHAR
STARTCHAR 0176
ENCODING 374
SWIDTH 600 0
DWIDTH 20 0
BBX 18 31 1 0
BITMAP
01C000
03E000
077000
0E3800
1C1C00
000000
000000
E001C0
600180
300300
300300
180600
1C0E00
0C0C00
061800
073800
033000
01E000
01E000
00C000
00C000
00C000
00C000
00C000
00C000
00C000
00C000
00C000
00C000
00C000
00C000
ENDCHAR
STARTCHAR 0177
ENCODING 375
SWIDTH 510 0
DWIDTH 17 0
BBX 16 31 1 -6
BITMAP
01C0
03E0
0770
0E38
1C1C
0000
0000
C003
6006
6006
700E
300C
300C
1818
1818
0C30
0C30
0E70
0660
0660
03C0
03C0
01C0
0180
0180
0300
0300
0600
0600
0E00
0C00
ENDCHAR
STARTCHAR 0178
ENCODING 376
SWIDTH 600 0
DWIDTH 20 0
BBX 18 30 1 0
BITMAP
0C1800
1E3C00
1E3C00
0C1800
000000
000000
E001C0
600180
300300
300300
180600
1C0E00
0C0C00
061800
073800
033000
01E000
01E000
00C000
00C000
00C000
00C000
00C000
00C000
00C000
00C000
00C000
00C000
00C000
00C000
ENDCHAR
STARTCHAR 0179
ENCODING 377
SWIDTH 480 0
DWIDTH 16 0
BBX 13 31 1 0
BITMAP
01E0
03C0
0380
0700
0E00
0000
0000
7FF8
7FF0
0030
0060
0060
00E0
00C0
01C0
0180
0180
0300
0300
0600
0600
0C00
0C00
1C00
1800
3800
3000
3000
6000
7FF8
FFF8
ENDCHAR
STARTCHAR 017A
ENCODING 378
SWIDTH 420 0
DWIDTH 14 0
BBX 14 25 0 0
BITMAP
01E0
03C0
0380
0700
0E00
0000
0000
7FFC
7FF8
0030
0030
0060
00C0
00C0
0180
0300
0300
0600
0C00
0C00
1800
3000
3000
7FFC
FFFC
ENDCHAR
STARTCHAR 017B
ENCODING 379
SWIDTH 480 0
DWIDTH 16 0
BBX 13 30 1 0
BITMAP
0600
0F00
0F00
0600
0000
0000
7FF8
7FF0
0030
0060
0060
00E0
00C0
01C0
0180
0180
0300
0300
0600
0600
0C00
0C00
1C00
1800
3800
3000
3000
6000
7FF8
FFF8
ENDCHAR
STARTCHAR 017C
ENCODING 380
SWIDTH 420 0
DWIDTH 14 0
BBX 14 24 0 0
BITMAP
0180
03C0
03C0
0180
0000
0000
7FFC
7FF8
0030
0030
0060
00C0
00C0
0180
0300
0300
0600
0C00
0C00
1800
3000
3000
7FFC
FFFC
ENDCHAR
STARTCHAR 017D
ENCODING 381
SWIDTH 480 0
DWIDTH 16 0
BBX 13 31 1 0
BITMAP
7070
38E0
1DC0
0F80
0700
0000
0000
7FF8
7FF0
0030
0060
0060
00E0
00C0
01C0
0180
0180
0300
0300
0600
0600
0C00
0C00
1C00
1800
3800
3000
3000
6000
7FF8
FFF8
ENDCHAR
STARTCHAR 017E
ENCODING 382
SWIDTH 420 0
DWIDTH 14 0
BBX 14 25 0 0
BITMAP
7070
38E0
1DC0
0F80
0700
0000
0000
7FFC
7FF8
0030
0030
0060
00C0
00C0
0180
0300
0300
0600
0C00
0C00
1800
3000
3000
7FFC
FFFC
ENDCHAR
STARTCHAR 017F
ENCODING 383
SWIDTH 180 0
DWIDTH 6 0
BBX 6 25 2 0
BITMAP
3C
FC
C0
C0
C0
C0
C0
C0
C0
C0
C0
C0
C0
C0
C0
C0
C0
C0
C0
C0
C0
C0
C0
C0
C0
ENDCHAR
STARTCHAR 0192
ENCODING 402
SWIDTH 570 0
DWIDTH 19 0
BBX 15 31 1 -6
BITMAP
003C
007E
0062
00E0
00C0
00C0
00C0
00C0
00C0
0180
0FF8
0FF8
0180
0180
0180
0300
0300
0300
0300
0300
0300
0600
0600
0600
0600
0600
0E00
0C00
9C00
F800
F000
ENDCHAR
STARTCHAR 01FA
ENCODING 506
SWIDTH 690 0
DWIDTH 23 0
BBX 21 37 1 0
BITMAP
001E00
003C00
003800
007000
00E000
000000
000000
007000
00F800
018C00
018C00
018C00
00F800
007000
007000
007000
007000
00D800
00D800
018C00
018C00
038E00
030600
030600
060300
060300
0E0180
0FFF80
0FFF80
1800C0
1800C0
300060
300060
700070
600030
600030
C00018
ENDCHAR
STARTCHAR 01FB
ENCODING 507
SWIDTH 690 0
DWIDTH 23 0
BBX 19 34 2 0
BITMAP
007800
00F000
00E000
01C000
038000
000000
000000
00E000
01F000
031800
031800
031800
01F000
00E000
000000
000000
03F860
0FFE60
1E0F60
3803E0
7001E0
6000E0
E00060
C00060
C00060
C00060
C00060
E00060
6000E0
7001E0
3803E0
1E0FE0
0FFE60
03F860
ENDCHAR
STARTCHAR 01FC
ENCODING 508
SWIDTH 990 0
DWIDTH 33 0
BBX 30 31 0 0
BITMAP
00000F00
00001E00
00001C00
00003800
00007000
00000000
00000000
0001FFFC
0003FFFC
0003C000
0006C000
000EC000
000CC000
0018C000
0038C000
0030C000
0060C000
0060FFFC
00C0FFFC
01C0C000
0180C000
03FFC000
07FFC000
0600C000
0C00C000
1C00C000
1800C000
3000C000
3000C000
6000FFFC
E000FFFC
ENDCHAR
STARTCHAR 01FD
ENCODING 509
SWIDTH 1140 0
DWIDTH 38 0
BBX 34 25 2 0
BITMAP
0000780000
0000F00000
0000E00000
0001C00000
0003800000
0000000000
0000000000
03F8C3F000
0FFCCFFC00
1C0EDC0E00
3807F00300
7003E00180
6001E00180
C000C000C0
C000FFFFC0
C000FFFFC0
C000C00000
C000C00000
C000C00000
6001E00100
7003F00380
3807F00700
1C0EFC1E00
0FFCDFFC00
03F8C7F000
ENDCHAR
STARTCHAR 01FE
ENCODING 510
SWIDTH 870 0
DWIDTH 29 0
BBX 25 31 2 0
BITMAP
00078000
000F0000
000E0000
001C0000
00380000
00000000
00000000
007F0380
03FFE700
0780FE00
0E003C00
1C003C00
38007600
7000E700
6001C300
E0018300
C0030180
C0060180
C00C0180
C0180180
C0300180
C0600180
60C00380
61C00300
73800700
37000600
1E001C00
1E003800
3F80F000
71FFE000
E07F0000
ENDCHAR
STARTCHAR 01FF
ENCODING 511
SWIDTH 660 0
DWIDTH 22 0
BBX 18 26 2 -1
BITMAP
007800
00F000
00E000
01C000
038000
000000
000000
03F080
0FFDC0
1E0F80
380700
700780
600D80
C019C0
C030C0
C070C0
C0E0C0
C1C0C0
C180C0
630180
760380
3C0700
1C0E00
3FFC00
73F000
200000
ENDCHAR
STARTCHAR 02C6
ENCODING 710
SWIDTH 480 0
DWIDTH 16 0
BBX 11 5 2 21
BITMAP
0E00
1F00
3B80
71C0
E0E0
ENDCHAR
STARTCHAR 02C7
ENCODING 711
SWIDTH 480 0
DWIDTH 16 0
BBX 11 5 2 21
BITMAP
E0E0
71C0
3B80
1F00
0E00
ENDCHAR
STARTCHAR 02C9
ENCODING 713
SWIDTH 480 0
DWIDTH 16 0
BBX 11 2 2 22
BITMAP
FFE0
FFE0
ENDCHAR
STARTCHAR 02D8
ENCODING 728
SWIDTH 450 0
DWIDTH 15 0
BBX 11 4 2 21
BITMAP
C060
60C0
7FC0
1F00
ENDCHAR
STARTCHAR 02D9
ENCODING 729
SWIDTH 210 0
DWIDTH 7 0
BBX 4 4 2 21
BITMAP
60
F0
F0
60
ENDCHAR
STARTCHAR 02DA
ENCODING 730
SWIDTH 330 0
DWIDTH 11 0
BBX 7 7 2 20
BITMAP
38
7C
C6
C6
C6
7C
38
ENDCHAR
STARTCHAR 02DB
ENCODING 731
SWIDTH 300 0
DWIDTH 10 0
BBX 6 6 2 -6
BITMAP
60
E0
C0
C0
E0
3C
ENDCHAR
STARTCHAR 02DC
ENCODING 732
SWIDTH 420 0
DWIDTH 14 0
BBX 11 3 1 21
BITMAP
7C40
FFE0
47C0
ENDCHAR
STARTCHAR 02DD
ENCODING 733
SWIDTH 540 0
DWIDTH 18 0
BBX 12 5 5 21
BITMAP
1EF0
3DE0
39C0
7380
E700
ENDCHAR
STARTCHAR 037E
ENCODING 894
SWIDTH 270 0
DWIDTH 9 0
BBX 5 21 2 -3
BITMAP
30
78
78
30
00
00
00
00
00
00
00
00
00
00
10
38
30
70
60
E0
C0
ENDCHAR
STARTCHAR 0384
ENCODING 900
SWIDTH 360 0
DWIDTH 12 0
BBX 3 5 5 21
BITMAP
E0
E0
E0
C0
C0
ENDCHAR
STARTCHAR 0385
ENCODING 901
SWIDTH 360 0
DWIDTH 12 0
BBX 11 5 1 21
BITMAP
0E00
EEE0
EEE0
ECE0
0C00
ENDCHAR
STARTCHAR 0386
ENCODING 902
SWIDTH 690 0
DWIDTH 23 0
BBX 21 25 1 0
BITMAP
0E0000
0C2000
0C7000
0C7000
087000
00D800
00D800
018C00
018C00
038E00
030600
030600
060300
060300
0E0180
0FFF80
0FFF80
1800C0
1800C0
300060
300060
700070
600030
600030
C00018
ENDCHAR
STARTCHAR 0387
ENCODING 903
SWIDTH 270 0
DWIDTH 9 0
BBX 4 4 3 14
BITMAP
60
F0
F0
60
ENDCHAR
STARTCHAR 0388
ENCODING 904
SWIDTH 570 0
DWIDTH 19 0
BBX 19 25 -1 0
BITMAP
E00000
E7FFE0
E7FFE0
C60000
C60000
C60000
060000
060000
060000
060000
060000
07FFE0
07FFE0
060000
060000
060000
060000
060000
060000
060000
060000
060000
060000
07FFE0
07FFE0
ENDCHAR
STARTCHAR 0389
ENCODING 905
SWIDTH 720 0
DWIDTH 24 0
BBX 22 25 -1 0
BITMAP
E00000
E6000C
E6000C
C6000C
C6000C
C6000C
06000C
06000C
06000C
06000C
06000C
07FFFC
07FFFC
06000C
06000C
06000C
06000C
06000C
06000C
06000C
06000C
06000C
06000C
06000C
06000C
ENDCHAR
STARTCHAR 038A
ENCODING 906
SWIDTH 270 0
DWIDTH 9 0
BBX 7 25 -1 0
BITMAP
E0
C6
C6
C6
86
06
06
06
06
06
06
06
06
06
06
06
06
06
06
06
06
06
06
06
06
ENDCHAR
STARTCHAR 038C
ENCODING 908
SWIDTH 870 0
DWIDTH 29 0
BBX 28 25 -1 0
BITMAP
E0000000
E00FE000
E07FFC00
C0F01E00
C1C00700
C3800380
070001C0
0E0000E0
0C000060
0C000060
18000030
18000030
18000030
18000030
18000030
18000030
1C000070
0C000060
0E0000E0
060000C0
03000180
01C00700
00F01E00
007FFC00
000FE000
ENDCHAR
STARTCHAR 038E
ENCODING 910
SWIDTH 630 0
DWIDTH 21 0
BBX 22 25 -1 0
BITMAP
E00000
CE001C
C60018
C30030
830030
018060
01C0E0
00C0C0
006180
007380
003300
001E00
001E00
000C00
000C00
000C00
000C00
000C00
000C00
000C00
000C00
000C00
000C00
000C00
000C00
ENDCHAR
STARTCHAR 038F
ENCODING 911
SWIDTH 840 0
DWIDTH 28 0
BBX 27 25 -1 0
BITMAP
E0000000
E01FE000
E07FF800
C1E01E00
C3800700
C7000380
0E0001C0
0C0000C0
1C0000C0
18000060
18000060
18000060
18000060
18000060
18000060
0C0000C0
0C0000C0
06000180
07000380
03800700
01C00E00
00703800
00387000
0FF87FC0
0FF87FC0
ENDCHAR
STARTCHAR 0390
ENCODING 912
SWIDTH 180 0
DWIDTH 6 0
BBX 9 26 1 0
BITMAP
3800
F380
F380
F380
2000
0000
0000
0000
6000
6000
6000
6000
6000
6000
6000
6000
6000
6000
6000
6000
6000
6000
6000
6000
6000
6000
ENDCHAR
STARTCHAR 0391
ENCODING 913
SWIDTH 690 0
DWIDTH 23 0
BBX 21 24 1 0
BITMAP
002000
007000
007000
007000
00D800
00D800
018C00
018C00
038E00
030600
030600
060300
060300
0E0180
0FFF80
0FFF80
1800C0
1800C0
300060
300060
700070
600030
600030
C00018
ENDCHAR
STARTCHAR 0392
ENCODING 914
SWIDTH 570 0
DWIDTH 19 0
BBX 14 24 3 0
BITMAP
FF00
FFC0
C0E0
C070
C030
C030
C030
C030
C060
C1E0
FFC0
FFE0
C0F0
C038
C01C
C00C
C00C
C00C
C00C
C01C
C018
C070
FFE0
FFC0
ENDCHAR
STARTCHAR 0393
ENCODING 915
SWIDTH 450 0
DWIDTH 15 0
BBX 11 24 3 0
BITMAP
FFE0
FFE0
C000
C000
C000
C000
C000
C000
C000
C000
C000
C000
C000
C000
C000
C000
C000
C000
C000
C000
C000
C000
C000
C000
ENDCHAR
STARTCHAR 0394
ENCODING 916
SWIDTH 720 0
DWIDTH 24 0
BBX 23 24 1 0
BITMAP
001000
003800
003800
007C00
006C00
00EE00
00C600
01C700
018300
018300
030180
030180
0600C0
0600C0
0C0060
0C0060
180030
180030
380018
300018
70001C
60000C
FFFFFE
FFFFFE
ENDCHAR
STARTCHAR 0395
ENCODING 917
SWIDTH 540 0
DWIDTH 18 0
BBX 14 24 3 0
BITMAP
FFFC
FFFC
C000
C000
C000
C000
C000
C000
C000
C000
FFFC
FFFC
C000
C000
C000
C000
C000
C000
C000
C000
C000
C000
FFFC
FFFC
ENDCHAR
STARTCHAR 0396
ENCODING 918
SWIDTH 480 0
DWIDTH 16 0
BBX 13 24 1 0
BITMAP
7FF8
7FF0
0030
0060
0060
00E0
00C0
01C0
0180
0180
0300
0300
0600
0600
0C00
0C00
1C00
1800
3800
3000
3000
6000
7FF8
FFF8
ENDCHAR
STARTCHAR 0397
ENCODING 919
SWIDTH 690 0
DWIDTH 23 0
BBX 17 24 3 0
BITMAP
C00180
C00180
C00180
C00180
C00180
C00180
C00180
C00180
C00180
C00180
FFFF80
FFFF80
C00180
C00180
C00180
C00180
C00180
C00180
C00180
C00180
C00180
C00180
C00180
C00180
ENDCHAR
STARTCHAR 0398
ENCODING 920
SWIDTH 870 0
DWIDTH 29 0
BBX 25 24 2 0
BITMAP
007F0000
03FFE000
0780F000
0E003800
1C001C00
38000600
70000700
60000300
E0000300
C0000180
C0000180
C3FFE180
C3FFE180
C0000180
C0000180
E0000380
60000300
70000700
30000600
18000C00
0E003800
0780F000
03FFE000
007F0000
ENDCHAR
STARTCHAR 0399
ENCODING 921
SWIDTH 240 0
DWIDTH 8 0
BBX 2 24 3 0
BITMAP
C0
C0
C0
C0
C0
C0
C0
C0
C0
C0
C0
C0
C0
C0
C0
C0
C0
C0
C0
C0
C0
C0
C0
C0
ENDCHAR
STARTCHAR 039A
ENCODING 922
SWIDTH 600 0
DWIDTH 20 0
BBX 16 24 3 0
BITMAP
C00E
C01C
C038
C070
C0E0
C180
C300
CE00
DC00
F800
F000
F000
F800
DC00
CE00
C700
C380
C1C0
C0E0
C070
C038
C01C
C00E
C007
ENDCHAR
STARTCHAR 039B
ENCODING 923
SWIDTH 690 0
DWIDTH 23 0
BBX 21 24 1 0
BITMAP
002000
007000
007000
007000
00D800
00D800
018C00
018C00
038E00
030600
030600
060300
060300
0E0180
0C0180
0C0180
1800C0
1800C0
300060
300060
700070
600030
600030
C00018
ENDCHAR
STARTCHAR 039C
ENCODING 924
SWIDTH 930 0
DWIDTH 31 0
BBX 27 24 2 0
BITMAP
10000100
10000300
38000300
38000780
3C000780
34000580
36000D80
32000D80
33001980
33001980
31803180
718031C0
70C061C0
60C060C0
6060C0C0
6060C0C0
603180C0
603180C0
601B80C0
601B00C0
E01F0060
C00E0060
C00E0060
C0040060
ENDCHAR
STARTCHAR 039D
ENCODING 925
SWIDTH 720 0
DWIDTH 24 0
BBX 18 24 3 0
BITMAP
8000C0
C000C0
C000C0
E000C0
F000C0
D800C0
DC00C0
CC00C0
C600C0
C300C0
C180C0
C1C0C0
C0C0C0
C060C0
C030C0
C018C0
C00CC0
C00CC0
C006C0
C003C0
C001C0
C000C0
C000C0
C00040
ENDCHAR
STARTCHAR 039E
ENCODING 926
SWIDTH 540 0
DWIDTH 18 0
BBX 14 24 2 0
BITMAP
FFFC
FFFC
0000
0000
0000
0000
0000
0000
0000
0000
FFFC
FFFC
0000
0000
0000
0000
0000
0000
0000
0000
0000
0000
FFFC
FFFC
ENDCHAR
STARTCHAR 039F
ENCODING 927
SWIDTH 870 0
DWIDTH 29 0
BBX 25 24 2 0
BITMAP
007F0000
03FFE000
0780F000
0E003800
1C001C00
38000E00
70000700
60000300
60000300
C0000180
C0000180
C0000180
C0000180
C0000180
C0000180
E0000380
60000300
70000700
30000600
18000C00
0E003800
0780F000
03FFE000
007F0000
ENDCHAR
STARTCHAR 03A0
ENCODING 928
SWIDTH 690 0
DWIDTH 23 0
BBX 17 24 3 0
BITMAP
FFFF80
FFFF80
C00180
C00180
C00180
C00180
C00180
C00180
C00180
C00180
C00180
C00180
C00180
C00180
C00180
C00180
C00180
C00180
C00180
C00180
C00180
C00180
C00180
C00180
ENDCHAR
STARTCHAR 03A1
ENCODING 929
SWIDTH 600 0
DWIDTH 20 0
BBX 15 24 3 0
BITMAP
FFE0
FFF8
C01C
C00C
C006
C006
C006
C006
C00C
C01C
FFF8
FFE0
C000
C000
C000
C000
C000
C000
C000
C000
C000
C000
C000
C000
ENDCHAR
STARTCHAR 03A3
ENCODING 931
SWIDTH 510 0
DWIDTH 17 0
BBX 14 24 1 0
BITMAP
FFFC
7FFC
6000
3000
3800
1800
0C00
0C00
0600
0700
0300
0180
0180
0300
0700
0600
0C00
0C00
1800
3800
3000
6000
7FFC
FFFC
ENDCHAR
STARTCHAR 03A4
ENCODING 932
SWIDTH 390 0
DWIDTH 13 0
BBX 12 24 0 0
BITMAP
FFF0
FFF0
0600
0600
0600
0600
0600
0600
0600
0600
0600
0600
0600
0600
0600
0600
0600
0600
0600
0600
0600
0600
0600
0600
ENDCHAR
STARTCHAR 03A5
ENCODING 933
SWIDTH 600 0
DWIDTH 20 0
BBX 18 24 1 0
BITMAP
E001C0
600180
300300
300300
180600
1C0E00
0C0C00
061800
073800
033000
01E000
01E000
00C000
00C000
00C000
00C000
00C000
00C000
00C000
00C000
00C000
00C000
00C000
00C000
ENDCHAR
STARTCHAR 03A6
ENCODING 934
SWIDTH 840 0
DWIDTH 28 0
BBX 24 24 2 0
BITMAP
001800
001800
00FF00
07FFE0
0F18F0
3C183C
30180C
601806
601806
C01803
C01803
C01803
C01803
C01803
C01803
601806
601806
30180C
3C183C
0F18F0
07FFE0
00FF00
001800
001800
ENDCHAR
STARTCHAR 03A7
ENCODING 935
SWIDTH 600 0
DWIDTH 20 0
BBX 16 24 2 0
BITMAP
C003
E007
6006
300C
300C
1818
0C38
0C30
0660
07E0
03C0
0180
0180
03C0
07E0
0660
0C30
0C30
1818
300C
300C
6006
E007
C003
ENDCHAR
STARTCHAR 03A8
ENCODING 936
SWIDTH 780 0
DWIDTH 26 0
BBX 22 24 2 0
BITMAP
C0300C
C0300C
C0300C
C0300C
C0300C
C0300C
C0300C
C0300C
C0300C
C0300C
C0300C
C0300C
603018
603018
383070
1E31E0
0FFFC0
01FE00
003000
003000
003000
003000
003000
003000
ENDCHAR
STARTCHAR 03A9
ENCODING 937
SWIDTH 840 0
DWIDTH 28 0
BBX 24 24 2 0
BITMAP
00FF00
03FFC0
0F00F0
1C0038
38001C
70000E
600006
E00006
C00003
C00003
C00003
C00003
C00003
C00003
600006
600006
30000C
38001C
1C0038
0E0070
0381C0
01C380
7FC3FE
7FC3FE
ENDCHAR
STARTCHAR 03AA
ENCODING 938
SWIDTH 240 0
DWIDTH 8 0
BBX 11 30 -2 0
BITMAP
60C0
F1E0
F1E0
60C0
0000
0000
0600
0600
0600
0600
0600
0600
0600
0600
0600
0600
0600
0600
0600
0600
0600
0600
0600
0600
0600
0600
0600
0600
0600
0600
ENDCHAR
STARTCHAR 03AB
ENCODING 939
SWIDTH 600 0
DWIDTH 20 0
BBX 18 30 1 0
BITMAP
0C1800
1E3C00
1E3C00
0C1800
000000
000000
E001C0
600180
300300
300300
180600
1C0E00
0C0C00
061800
073800
033000
01E000
01E000
00C000
00C000
00C000
00C000
00C000
00C000
00C000
00C000
00C000
00C000
00C000
00C000
ENDCHAR
STARTCHAR 03AC
ENCODING 940
SWIDTH 690 0
DWIDTH 23 0
BBX 19 26 2 0
BITMAP
007000
007000
007000
006000
006000
006000
000000
000000
03F860
0FFE60
1E0F60
3803E0
7001E0
6000E0
E00060
C00060
C00060
C00060
C00060
E00060
6000E0
7001E0
3803E0
1E0FE0
0FFE60
03F860
ENDCHAR
STARTCHAR 03AD
ENCODING 941
SWIDTH 420 0
DWIDTH 14 0
BBX 11 26 2 0
BITMAP
0700
0700
0700
0600
0600
0600
0000
0000
0F00
3FC0
70C0
6000
6000
6000
6000
3000
1E00
3E00
7000
C000
C000
C000
C040
60E0
7FC0
1F80
ENDCHAR
STARTCHAR 03AE
ENCODING 942
SWIDTH 600 0
DWIDTH 20 0
BBX 16 32 2 -6
BITMAP
01C0
01C0
01C0
0180
0180
0180
0000
0000
C3F0
CFFC
DC1C
F806
F007
E003
C003
C003
C003
C003
C003
C003
C003
C003
C003
C003
C003
C003
0003
0003
0003
0003
0003
0003
ENDCHAR
STARTCHAR 03AF
ENCODING 943
SWIDTH 180 0
DWIDTH 6 0
BBX 4 26 2 0
BITMAP
70
60
60
60
40
00
00
00
C0
C0
C0
C0
C0
C0
C0
C0
C0
C0
C0
C0
C0
C0
C0
C0
C0
C0
ENDCHAR
STARTCHAR 03B0
ENCODING 944
SWIDTH 600 0
DWIDTH 20 0
BBX 16 26 2 0
BITMAP
0380
3B38
3B38
3B38
0200
0000
0000
0000
C010
C038
C01C
C00E
C006
C007
C003
C003
C003
C003
C003
C003
C007
6006
700E
381C
1FF8
07E0
ENDCHAR
STARTCHAR 03B1
ENCODING 945
SWIDTH 690 0
DWIDTH 23 0
BBX 19 18 2 0
BITMAP
03F860
0FFE60
1E0F60
3803E0
7001E0
6000E0
E00060
C00060
C00060
C00060
C00060
E00060
6000E0
7001E0
3803E0
1E0FE0
0FFE60
03F860
ENDCHAR
STARTCHAR 03B2
ENCODING 946
SWIDTH 600 0
DWIDTH 20 0
BBX 16 31 2 -6
BITMAP
0F80
3FC0
70E0
6070
C030
C030
C030
C030
C060
C1C0
CFC0
CFF8
C03C
C00E
C006
C003
C003
C003
C003
C003
E006
F00E
F81C
DFF8
C7E0
C000
C000
C000
C000
C000
C000
ENDCHAR
STARTCHAR 03B3
ENCODING 947
SWIDTH 540 0
DWIDTH 18 0
BBX 16 24 1 -6
BITMAP
C003
E007
6006
700E
300C
300C
1818
1818
0C30
0C30
0660
0660
07E0
03C0
03C0
0180
0180
0180
0180
0180
0180
0180
0180
0180
ENDCHAR
STARTCHAR 03B4
ENCODING 948
SWIDTH 570 0
DWIDTH 19 0
BBX 15 25 2 0
BITMAP
01F8
07F0
0E00
1C00
1800
1800
1800
1800
0C00
0F00
07C0
1FF0
3838
701C
600C
C006
C006
C006
C006
C006
600C
701C
3838
1FF0
07C0
ENDCHAR
STARTCHAR 03B5
ENCODING 949
SWIDTH 420 0
DWIDTH 14 0
BBX 11 18 2 0
BITMAP
0F00
3FC0
70C0
6000
6000
6000
6000
3000
1E00
3E00
7000
C000
C000
C000
C040
60E0
7FC0
1F80
ENDCHAR
STARTCHAR 03B6
ENCODING 950
SWIDTH 450 0
DWIDTH 15 0
BBX 13 31 2 -6
BITMAP
3FF8
3FF8
0030
00E0
01C0
0380
0700
0E00
1C00
1800
3000
7000
6000
E000
C000
C000
C000
C000
C000
C000
6000
7000
3C00
1FC0
03F0
0038
0018
0018
0038
07F0
0FC0
ENDCHAR
STARTCHAR 03B7
ENCODING 951
SWIDTH 600 0
DWIDTH 20 0
BBX 16 24 2 -6
BITMAP
C3F0
CFFC
DC1C
F806
F007
E003
C003
C003
C003
C003
C003
C003
C003
C003
C003
C003
C003
C003
0003
0003
0003
0003
0003
0003
ENDCHAR
STARTCHAR 03B8
ENCODING 952
SWIDTH 660 0
DWIDTH 22 0
BBX 18 25 2 0
BITMAP
03F000
0FFC00
1E1E00
380700
300300
600180
600180
600180
C000C0
C000C0
C000C0
FFFFC0
FFFFC0
C000C0
C000C0
C000C0
C000C0
600180
600180
600180
300300
380700
1C1E00
0FFC00
03F000
ENDCHAR
STARTCHAR 03B9
ENCODING 953
SWIDTH 180 0
DWIDTH 6 0
BBX 2 18 2 0
BITMAP
C0
C0
C0
C0
C0
C0
C0
C0
C0
C0
C0
C0
C0
C0
C0
C0
C0
C0
ENDCHAR
STARTCHAR 03BA
ENCODING 954
SWIDTH 510 0
DWIDTH 17 0
BBX 14 18 2 0
BITMAP
C018
C030
C0E0
C1C0
C380
C700
CE00
DC00
F000
F000
DC00
CE00
C700
C380
C0E0
C070
C038
C01C
ENDCHAR
STARTCHAR 03BB
ENCODING 955
SWIDTH 540 0
DWIDTH 18 0
BBX 17 25 1 0
BITMAP
0C0000
0E0000
060000
060000
030000
030000
018000
018000
01C000
01C000
03E000
036000
037000
063000
063000
0C1800
0C1800
180C00
180C00
300600
300600
700300
600300
E00380
C00180
ENDCHAR
STARTCHAR 03BC
ENCODING 956
SWIDTH 600 0
DWIDTH 20 0
BBX 16 24 2 -6
BITMAP
C003
C003
C003
C003
C003
C003
C003
C003
C003
C003
C003
C003
C007
E00F
E01F
F83B
FFF3
CFC3
C000
C000
C000
C000
C000
C000
ENDCHAR
STARTCHAR 03BD
ENCODING 957
SWIDTH 570 0
DWIDTH 19 0
BBX 17 18 1 0
BITMAP
C00180
600300
600300
300600
300600
380E00
180C00
181C00
0C1800
0C1800
063000
063000
036000
036000
03E000
01C000
01C000
008000
ENDCHAR
STARTCHAR 03BE
ENCODING 958
SWIDTH 450 0
DWIDTH 15 0
BBX 13 31 2 -6
BITMAP
07F8
1FF8
3810
7000
6000
6000
6000
6000
3000
1E00
0FF0
1FF0
3C00
7000
6000
C000
C000
C000
C000
C000
6000
7000
3C00
1FC0
03F0
0038
0018
0018
0038
07F0
07C0
ENDCHAR
STARTCHAR 03BF
ENCODING 959
SWIDTH 660 0
DWIDTH 22 0
BBX 18 18 2 0
BITMAP
03F000
0FFC00
1C0E00
380700
700380
600180
C000C0
C000C0
C000C0
C000C0
C000C0
C000C0
600180
700380
380700
1C0E00
0FFC00
03F000
ENDCHAR
STARTCHAR 03C0
ENCODING 960
SWIDTH 660 0
DWIDTH 22 0
BBX 20 18 1 0
BITMAP
FFFFF0
FFFFF0
0C0300
0C0300
0C0300
0C0300
0C0300
0C0300
0C0300
0C0300
0C0300
0C0300
0C0300
0C0300
0C0300
0C0300
0C0300
0C0300
ENDCHAR
STARTCHAR 03C1
ENCODING 961
SWIDTH 660 0
DWIDTH 22 0
BBX 18 24 2 -6
BITMAP
03F000
0FFC00
1C0E00
380700
700380
600180
C000C0
C000C0
C000C0
C000C0
C000C0
C000C0
E00180
F00380
F80700
DC0E00
CFFC00
C3F000
C00000
C00000
C00000
C00000
C00000
C00000
ENDCHAR
STARTCHAR 03C2
ENCODING 962
SWIDTH 570 0
DWIDTH 19 0
BBX 16 24 2 -6
BITMAP
03F0
0FFC
1C1E
3007
6002
6000
C000
C000
C000
C000
C000
C000
6000
7000
3800
1F00
0FF0
01FC
000E
0006
0006
000E
01FC
03F0
ENDCHAR
STARTCHAR 03C3
ENCODING 963
SWIDTH 720 0
DWIDTH 24 0
BBX 21 18 2 0
BITMAP
03FFF8
0FFFF8
1C0E00
380700
700380
600180
C000C0
C000C0
C000C0
C000C0
C000C0
C000C0
600180
700380
380700
1C0E00
0FFC00
03F000
ENDCHAR
STARTCHAR 03C4
ENCODING 964
SWIDTH 390 0
DWIDTH 13 0
BBX 11 18 1 0
BITMAP
FFE0
FFE0
0C00
0C00
0C00
0C00
0C00
0C00
0C00
0C00
0C00
0C00
0C00
0C00
0C00
0C00
0C00
0C00
ENDCHAR
STARTCHAR 03C5
ENCODING 965
SWIDTH 600 0
DWIDTH 20 0
BBX 16 18 2 0
BITMAP
C010
C038
C01C
C00E
C006
C007
C003
C003
C003
C003
C003
C003
C007
6006
700E
381C
1FF8
07E0
ENDCHAR
STARTCHAR 03C6
ENCODING 966
SWIDTH 750 0
DWIDTH 25 0
BBX 21 24 2 -6
BITMAP
027C00
0E7F80
1E63C0
3860E0
706070
606030
C06018
C06018
C06018
C06018
C06018
C06018
606030
606070
3060E0
1C63C0
0FFF80
03FC00
006000
006000
006000
006000
006000
006000
ENDCHAR
STARTCHAR 03C7
ENCODING 967
SWIDTH 480 0
DWIDTH 16 0
BBX 16 24 0 -6
BITMAP
6006
300C
300C
1818
1818
0C30
0C30
0660
07E0
03C0
0180
0180
03C0
03C0
0660
0E70
0C30
1818
1818
300C
300C
6006
6006
C003
ENDCHAR
STARTCHAR 03C8
ENCODING 968
SWIDTH 720 0
DWIDTH 24 0
BBX 20 24 2 -6
BITMAP
C06030
C06030
C06030
C06030
C06030
C06030
C06030
C06030
C06030
C06030
C06030
C06030
E06070
606060
7060E0
3C63C0
0FFF00
03FC00
006000
006000
006000
006000
006000
006000
ENDCHAR
STARTCHAR 03C9
ENCODING 969
SWIDTH 840 0
DWIDTH 28 0
BBX 24 18 2 0
BITMAP
0381C0
0F81F0
1E0078
38001C
70000E
600006
E00007
C00003
C01803
C01803
C01803
C01803
C01803
603C06
603C06
387E1C
1FE7F8
0F81F0
ENDCHAR
STARTCHAR 03CA
ENCODING 970
SWIDTH 180 0
DWIDTH 6 0
BBX 11 24 -3 0
BITMAP
60C0
F1E0
F1E0
60C0
0000
0000
0600
0600
0600
0600
0600
0600
0600
0600
0600
0600
0600
0600
0600
0600
0600
0600
0600
0600
ENDCHAR
STARTCHAR 03CB
ENCODING 971
SWIDTH 600 0
DWIDTH 20 0
BBX 16 25 2 0
BITMAP
1830
3C78
3C78
1830
0000
0000
0000
C010
C038
C01C
C00E
C006
C007
C003
C003
C003
C003
C003
C003
C007
6006
700E
381C
1FF8
07E0
ENDCHAR
STARTCHAR 03CC
ENCODING 972
SWIDTH 660 0
DWIDTH 22 0
BBX 18 26 2 0
BITMAP
00E000
00E000
00E000
00C000
00C000
00C000
000000
000000
03F000
0FFC00
1C0E00
380700
700380
600180
C000C0
C000C0
C000C0
C000C0
C000C0
C000C0
600180
700380
380700
1C0E00
0FFC00
03F000
ENDCHAR
STARTCHAR 03CD
ENCODING 973
SWIDTH 600 0
DWIDTH 20 0
BBX 16 26 2 0
BITMAP
0380
0380
0380
0300
0300
0300
0000
0000
C010
C038
C01C
C00E
C006
C007
C003
C003
C003
C003
C003
C003
C007
6006
700E
381C
1FF8
07E0
ENDCHAR
STARTCHAR 03CE
ENCODING 974
SWIDTH 840 0
DWIDTH 28 0
BBX 24 26 2 0
BITMAP
001C00
001C00
001C00
001800
001800
001800
000000
000000
0381C0
0F81F0
1E0078
38001C
70000E
600006
E00007
C00003
C01803
C01803
C01803
C01803
C01803
603C06
603C06
387E1C
1FE7F8
0F81F0
ENDCHAR
STARTCHAR 0401
ENCODING 1025
SWIDTH 540 0
DWIDTH 18 0
BBX 14 30 3 0
BITMAP
3060
78F0
78F0
3060
0000
0000
FFFC
FFFC
C000
C000
C000
C000
C000
C000
C000
C000
FFFC
FFFC
C000
C000
C000
C000
C000
C000
C000
C000
C000
C000
FFFC
FFFC
ENDCHAR
STARTCHAR 0402
ENCODING 1026
SWIDTH 660 0
DWIDTH 22 0
BBX 19 24 1 0
BITMAP
FFF000
FFF000
060000
060000
060000
060000
060000
060000
060000
060000
07FE00
07FF80
0603C0
0600C0
060060
060060
060060
060060
060060
060060
0600E0
0631C0
063F80
061F00
ENDCHAR
STARTCHAR 0403
ENCODING 1027
SWIDTH 450 0
DWIDTH 15 0
BBX 11 31 3 0
BITMAP
01E0
03C0
0380
0700
0E00
0000
0000
FFE0
FFE0
C000
C000
C000
C000
C000
C000
C000
C000
C000
C000
C000
C000
C000
C000
C000
C000
C000
C000
C000
C000
C000
C000
ENDCHAR
STARTCHAR 0404
ENCODING 1028
SWIDTH 810 0
DWIDTH 27 0
BBX 23 24 2 0
BITMAP
007F80
03FFE0
0780F8
0E003C
18000E
300004
700000
600000
E00000
C00000
C00000
FFFC00
FFFC00
C00000
C00000
E00000
600000
700000
300004
18000E
1E001C
0780F8
03FFE0
007F80
ENDCHAR
STARTCHAR 0405
ENCODING 1029
SWIDTH 480 0
DWIDTH 16 0
BBX 13 24 1 0
BITMAP
07C0
0FE0
1870
3038
3010
3000
3000
3800
1C00
0E00
0700
0380
01C0
00E0
0070
0038
0018
0018
4018
E018
7030
7870
3FE0
0F80
ENDCHAR
STARTCHAR 0406
ENCODING 1030
SWIDTH 240 0
DWIDTH 8 0
BBX 2 24 3 0
BITMAP
C0
C0
C0
C0
C0
C0
C0
C0
C0
C0
C0
C0
C0
C0
C0
C0
C0
C0
C0
C0
C0
C0
C0
C0
ENDCHAR
STARTCHAR 0407
ENCODING 1031
SWIDTH 240 0
DWIDTH 8 0
BBX 11 30 -2 0
BITMAP
60C0
F1E0
F1E0
60C0
0000
0000
0600
0600
0600
0600
0600
0600
0600
0600
0600
0600
0600
0600
0600
0600
0600
0600
0600
0600
0600
0600
0600
0600
0600
0600
ENDCHAR
STARTCHAR 0408
ENCODING 1032
SWIDTH 480 0
DWIDTH 16 0
BBX 12 24 1 0
BITMAP
0030
0030
0030
0030
0030
0030
0030
0030
0030
0030
0030
0030
0030
0030
0030
0030
0030
0030
0030
0030
4070
F0E0
7FC0
1F80
ENDCHAR
STARTCHAR 0409
ENCODING 1033
SWIDTH 1050 0
DWIDTH 35 0
BBX 32 24 1 0
BITMAP
00300000
00300000
00780000
00780000
007C0000
00CC0000
00CC0000
01860000
01860000
03030000
03030000
0703FFE0
0601FFFC
0E01801E
0C00C006
0C00C003
18006003
18006003
30007003
30003003
60003806
6000180E
E0001FFC
C0000FF0
ENDCHAR
STARTCHAR 040A
ENCODING 1034
SWIDTH 1020 0
DWIDTH 34 0
BBX 29 24 3 0
BITMAP
C0030000
C0030000
C0030000
C0030000
C0030000
C0030000
C0030000
C0030000
C0030000
C0030000
FFFFFF80
FFFFFFE0
C00300F0
C0030030
C0030018
C0030018
C0030018
C0030018
C0030018
C0030018
C0030030
C0030070
C003FFE0
C003FF80
ENDCHAR
STARTCHAR 040B
ENCODING 1035
SWIDTH 660 0
DWIDTH 22 0
BBX 19 24 1 0
BITMAP
FFF000
FFF000
060000
060000
060000
060000
060000
060000
060000
060000
07FE00
07FF80
0601C0
0600C0
060060
060060
060060
060060
060060
060060
060060
060060
060060
060060
ENDCHAR
STARTCHAR 040C
ENCODING 1036
SWIDTH 600 0
DWIDTH 20 0
BBX 16 31 3 0
BITMAP
00F0
01E0
01C0
0380
0700
0000
0000
C00E
C01C
C038
C070
C0E0
C180
C300
CE00
DC00
F800
F000
F000
F800
DC00
CE00
C700
C380
C1C0
C0E0
C070
C038
C01C
C00E
C007
ENDCHAR
STARTCHAR 040E
ENCODING 1038
SWIDTH 630 0
DWIDTH 21 0
BBX 19 30 1 0
BITMAP
0C0600
060C00
07FC00
01F000
000000
000000
C00060
E00060
6000C0
7000C0
300180
380180
180380
1C0300
0C0700
0E0600
060600
070C00
030C00
039800
019800
01F800
00F000
00F000
006000
006000
60C000
F1C000
7F8000
1F0000
ENDCHAR
STARTCHAR 040F
ENCODING 1039
SWIDTH 630 0
DWIDTH 21 0
BBX 15 28 3 -4
BITMAP
C006
C006
C006
C006
C006
C006
C006
C006
C006
C006
C006
C006
C006
C006
C006
C006
C006
C006
C006
C006
C006
C006
FFFE
FFFE
0300
0300
0300
0300
ENDCHAR
STARTCHAR 0410
ENCODING 1040
SWIDTH 690 0
DWIDTH 23 0
BBX 21 24 1 0
BITMAP
002000
007000
007000
007000
00D800
00D800
018C00
018C00
038E00
030600
030600
060300
060300
0E0180
0FFF80
0FFF80
1800C0
1800C0
300060
300060
700070
600030
600030
C00018
ENDCHAR
STARTCHAR 0411
ENCODING 1041
SWIDTH 570 0
DWIDTH 19 0
BBX 14 24 3 0
BITMAP
FFF0
FFF0
C000
C000
C000
C000
C000
C000
C000
C000
FF80
FFE0
C0F0
C038
C018
C00C
C00C
C00C
C00C
C01C
C018
C070
FFE0
FFC0
ENDCHAR
STARTCHAR 0412
ENCODING 1042
SWIDTH 570 0
DWIDTH 19 0
BBX 14 24 3 0
BITMAP
FF00
FFC0
C0E0
C070
C030
C030
C030
C030
C060
C1E0
FFC0
FFE0
C0F0
C038
C01C
C00C
C00C
C00C
C00C
C01C
C018
C070
FFE0
FFC0
ENDCHAR
STARTCHAR 0413
ENCODING 1043
SWIDTH 450 0
DWIDTH 15 0
BBX 11 24 3 0
BITMAP
FFE0
FFE0
C000
C000
C000
C000
C000
C000
C000
C000
C000
C000
C000
C000
C000
C000
C000
C000
C000
C000
C000
C000
C000
C000
ENDCHAR
STARTCHAR 0414
ENCODING 1044
SWIDTH 750 0
DWIDTH 25 0
BBX 23 28 1 -4
BITMAP
001000
003800
003800
007800
006C00
006C00
00C600
00C600
018300
018300
038380
030180
030180
0600C0
0600C0
0C0060
0C0060
1C0070
180030
180030
300018
300018
FFFFFE
FFFFFE
C00006
C00006
C00006
C00006
ENDCHAR
STARTCHAR 0415
ENCODING 1045
SWIDTH 540 0
DWIDTH 18 0
BBX 14 24 3 0
BITMAP
FFFC
FFFC
C000
C000
C000
C000
C000
C000
C000
C000
FFFC
FFFC
C000
C000
C000
C000
C000
C000
C000
C000
C000
C000
FFFC
FFFC
ENDCHAR
STARTCHAR 0416
ENCODING 1046
SWIDTH 930 0
DWIDTH 31 0
BBX 28 24 1 0
BITMAP
60060060
300600C0
18060180
0C060300
06060600
03060C00
01861800
00C63000
00666000
0036C000
001FC000
001F8000
0036C000
00666000
00C63000
01861800
03860C00
07060E00
0E060700
1C060380
18060180
300600C0
60060060
C0060030
ENDCHAR
STARTCHAR 0417
ENCODING 1047
SWIDTH 570 0
DWIDTH 19 0
BBX 16 24 1 0
BITMAP
07E0
1FF8
3C1C
100E
0006
0006
0006
0006
000C
0038
03F0
03F8
001C
000E
0007
0003
0003
0003
4003
E007
7006
781C
1FF8
07E0
ENDCHAR
STARTCHAR 0418
ENCODING 1048
SWIDTH 720 0
DWIDTH 24 0
BBX 18 24 3 0
BITMAP
C00040
C000C0
C001C0
C001C0
C003C0
C006C0
C00CC0
C01CC0
C018C0
C030C0
C060C0
C0E0C0
C1C0C0
C180C0
C300C0
C600C0
CE00C0
CC00C0
D800C0
F000C0
E000C0
E000C0
C000C0
8000C0
ENDCHAR
STARTCHAR 0419
ENCODING 1049
SWIDTH 720 0
DWIDTH 24 0
BBX 18 30 3 0
BITMAP
180C00
0C1800
0FF800
03E000
000000
000000
C00040
C000C0
C001C0
C001C0
C003C0
C006C0
C00CC0
C01CC0
C018C0
C030C0
C060C0
C0E0C0
C1C0C0
C180C0
C300C0
C600C0
CE00C0
CC00C0
D800C0
F000C0
E000C0
E000C0
C000C0
8000C0
ENDCHAR
STARTCHAR 041A
ENCODING 1050
SWIDTH 600 0
DWIDTH 20 0
BBX 16 24 3 0
BITMAP
C00E
C01C
C038
C070
C0E0
C180
C300
CE00
DC00
F800
F000
F000
F800
DC00
CE00
C700
C380
C1C0
C0E0
C070
C038
C01C
C00E
C007
ENDCHAR
STARTCHAR 041B
ENCODING 1051
SWIDTH 690 0
DWIDTH 23 0
BBX 21 24 1 0
BITMAP
002000
007000
007000
007000
00D800
00D800
018C00
018C00
038E00
030600
030600
060300
060300
0E0180
0C0180
0C0180
1800C0
1800C0
300060
300060
700070
600030
600030
C00018
ENDCHAR
STARTCHAR 041C
ENCODING 1052
SWIDTH 930 0
DWIDTH 31 0
BBX 27 24 2 0
BITMAP
10000100
10000300
38000300
38000780
3C000780
34000580
36000D80
32000D80
33001980
33001980
31803180
718031C0
70C061C0
60C060C0
6060C0C0
6060C0C0
603180C0
603180C0
601B80C0
601B00C0
E01F0060
C00E0060
C00E0060
C0040060
ENDCHAR
STARTCHAR 041D
ENCODING 1053
SWIDTH 690 0
DWIDTH 23 0
BBX 17 24 3 0
BITMAP
C00180
C00180
C00180
C00180
C00180
C00180
C00180
C00180
C00180
C00180
FFFF80
FFFF80
C00180
C00180
C00180
C00180
C00180
C00180
C00180
C00180
C00180
C00180
C00180
C00180
ENDCHAR
STARTCHAR 041E
ENCODING 1054
SWIDTH 870 0
DWIDTH 29 0
BBX 25 24 2 0
BITMAP
007F0000
03FFE000
0780F000
0E003800
1C001C00
38000E00
70000700
60000300
60000300
C0000180
C0000180
C0000180
C0000180
C0000180
C0000180
E0000380
60000300
70000700
30000600
18000C00
0E003800
0780F000
03FFE000
007F0000
ENDCHAR
STARTCHAR 041F
ENCODING 1055
SWIDTH 690 0
DWIDTH 23 0
BBX 17 24 3 0
BITMAP
FFFF80
FFFF80
C00180
C00180
C00180
C00180
C00180
C00180
C00180
C00180
C00180
C00180
C00180
C00180
C00180
C00180
C00180
C00180
C00180
C00180
C00180
C00180
C00180
C00180
ENDCHAR
STARTCHAR 0420
ENCODING 1056
SWIDTH 600 0
DWIDTH 20 0
BBX 15 24 3 0
BITMAP
FFE0
FFF8
C01C
C00C
C006
C006
C006
C006
C00C
C01C
FFF8
FFE0
C000
C000
C000
C000
C000
C000
C000
C000
C000
C000
C000
C000
ENDCHAR
STARTCHAR 0421
ENCODING 1057
SWIDTH 810 0
DWIDTH 27 0
BBX 23 24 2 0
BITMAP
007F80
03FFE0
0780F8
0E003C
18000E
300004
700000
600000
E00000
C00000
C00000
C00000
C00000
C00000
C00000
E00000
600000
700000
300004
18000E
1E003C
0780F8
03FFE0
007F80
ENDCHAR
STARTCHAR 0422
ENCODING 1058
SWIDTH 390 0
DWIDTH 13 0
BBX 12 24 0 0
BITMAP
FFF0
FFF0
0600
0600
0600
0600
0600
0600
0600
0600
0600
0600
0600
0600
0600
0600
0600
0600
0600
0600
0600
0600
0600
0600
ENDCHAR
STARTCHAR 0423
ENCODING 1059
SWIDTH 630 0
DWIDTH 21 0
BBX 19 24 1 0
BITMAP
C00060
E00060
6000C0
7000C0
300180
380180
180380
1C0300
0C0700
0E0600
060600
070C00
030C00
039800
019800
01F800
00F000
00F000
006000
006000
60C000
F1C000
7F8000
1F0000
ENDCHAR
STARTCHAR 0424
ENCODING 1060
SWIDTH 870 0
DWIDTH 29 0
BBX 25 24 2 0
BITMAP
00180000
00180000
00180000
07FFF000
1FFFFC00
38181E00
60180700
E0180300
C0180180
C0180180
C0180180
C0180180
E0180380
60180300
78180E00
3FFFFC00
0FFFF000
00180000
00180000
00180000
00180000
00180000
00180000
00180000
ENDCHAR
STARTCHAR 0425
ENCODING 1061
SWIDTH 600 0
DWIDTH 20 0
BBX 16 24 2 0
BITMAP
C003
E007
6006
300C
300C
1818
0C38
0C30
0660
07E0
03C0
0180
0180
03C0
07E0
0660
0C30
0C30
1818
300C
300C
6006
E007
C003
ENDCHAR
STARTCHAR 0426
ENCODING 1062
SWIDTH 690 0
DWIDTH 23 0
BBX 19 28 3 -4
BITMAP
C00600
C00600
C00600
C00600
C00600
C00600
C00600
C00600
C00600
C00600
C00600
C00600
C00600
C00600
C00600
C00600
C00600
C00600
C00600
C00600
C00600
C00600
FFFFE0
FFFFE0
000060
000060
000060
000060
ENDCHAR
STARTCHAR 0427
ENCODING 1063
SWIDTH 540 0
DWIDTH 18 0
BBX 14 24 1 0
BITMAP
C00C
C00C
C00C
C00C
C00C
C00C
C00C
C00C
C00C
600C
700C
3FFC
0FFC
000C
000C
000C
000C
000C
000C
000C
000C
000C
000C
000C
ENDCHAR
STARTCHAR 0428
ENCODING 1064
SWIDTH 990 0
DWIDTH 33 0
BBX 27 24 3 0
BITMAP
C00C0060
C00C0060
C00C0060
C00C0060
C00C0060
C00C0060
C00C0060
C00C0060
C00C0060
C00C0060
C00C0060
C00C0060
C00C0060
C00C0060
C00C0060
C00C0060
C00C0060
C00C0060
C00C0060
C00C0060
C00C0060
C00C0060
FFFFFFE0
FFFFFFE0
ENDCHAR
STARTCHAR 0429
ENCODING 1065
SWIDTH 1050 0
DWIDTH 35 0
BBX 31 28 3 -4
BITMAP
C00C0060
C00C0060
C00C0060
C00C0060
C00C0060
C00C0060
C00C0060
C00C0060
C00C0060
C00C0060
C00C0060
C00C0060
C00C0060
C00C0060
C00C0060
C00C0060
C00C0060
C00C0060
C00C0060
C00C0060
C00C0060
C00C0060
FFFFFFFE
FFFFFFFE
00000006
00000006
00000006
00000006
ENDCHAR
STARTCHAR 042A
ENCODING 1066
SWIDTH 690 0
DWIDTH 23 0
BBX 20 24 1 0
BITMAP
FE0000
FE0000
060000
060000
060000
060000
060000
060000
060000
060000
060000
07FF00
07FFC0
0601E0
060060
060030
060030
060030
060030
060030
060060
0600E0
07FFC0
07FF00
ENDCHAR
STARTCHAR 042B
ENCODING 1067
SWIDTH 780 0
DWIDTH 26 0
BBX 20 24 3 0
BITMAP
C00030
C00030
C00030
C00030
C00030
C00030
C00030
C00030
C00030
C00030
C00030
FFE030
FFF830
C03C30
C00C30
C00630
C00630
C00630
C00630
C00630
C00C30
C01C30
FFF830
FFE030
ENDCHAR
STARTCHAR 042C
ENCODING 1068
SWIDTH 600 0
DWIDTH 20 0
BBX 15 24 3 0
BITMAP
C000
C000
C000
C000
C000
C000
C000
C000
C000
C000
C000
FFE0
FFF8
C03C
C00C
C006
C006
C006
C006
C006
C00C
C01C
FFF8
FFE0
ENDCHAR
STARTCHAR 042D
ENCODING 1069
SWIDTH 810 0
DWIDTH 27 0
BBX 23 24 2 0
BITMAP
03FC00
0FFF80
3E03C0
7800E0
E00070
400018
00001C
00000C
00000E
000006
000006
007FFE
007FFE
000006
000006
00000E
00000C
00001C
400018
E00030
7000F0
3E03C0
0FFF80
03FC00
ENDCHAR
STARTCHAR 042E
ENCODING 1070
SWIDTH 1080 0
DWIDTH 36 0
BBX 31 24 3 0
BITMAP
C001FC00
C00FFF80
C01E03C0
C03800E0
C0700070
C0E00038
C1C0001C
C180000C
C180000C
C3000006
C3000006
FF000006
FF000006
C3000006
C3000006
C380000E
C180000C
C1C0001C
C0C00018
C0600030
C07800E0
C01E03C0
C00FFF80
C001FC00
ENDCHAR
STARTCHAR 042F
ENCODING 1071
SWIDTH 570 0
DWIDTH 19 0
BBX 15 24 1 0
BITMAP
0FFE
3FFE
7006
6006
C006
C006
C006
C006
6006
7006
3FFE
0FFE
00E6
00C6
0186
0306
0706
0606
0C06
1C06
1806
3006
6006
E006
ENDCHAR
STARTCHAR 0430
ENCODING 1072
SWIDTH 690 0
DWIDTH 23 0
BBX 19 18 2 0
BITMAP
03F860
0FFE60
1E0F60
3803E0
7001E0
6000E0
E00060
C00060
C00060
C00060
C00060
E00060
6000E0
7001E0
3803E0
1E0FE0
0FFE60
03F860
ENDCHAR
STARTCHAR 0431
ENCODING 1073
SWIDTH 660 0
DWIDTH 22 0
BBX 18 25 2 0
BITMAP
00FF80
07FF80
1E0000
380000
300000
600000
600000
E1F000
C7FC00
CE0E00
DC0700
F80380
F00180
E000C0
E000C0
E000C0
E000C0
E000C0
6000C0
700180
300180
380300
1E0E00
0FFC00
03F000
ENDCHAR
STARTCHAR 0432
ENCODING 1074
SWIDTH 450 0
DWIDTH 15 0
BBX 11 18 2 0
BITMAP
FE00
FF80
C180
C0C0
C0C0
C0C0
C0C0
C180
FF00
FF80
C0C0
C060
C060
C060
C060
C0E0
FFC0
FF00
ENDCHAR
STARTCHAR 0433
ENCODING 1075
SWIDTH 360 0
DWIDTH 12 0
BBX 10 18 2 0
BITMAP
FFC0
FFC0
C000
C000
C000
C000
C000
C000
C000
C000
C000
C000
C000
C000
C000
C000
C000
C000
ENDCHAR
STARTCHAR 0434
ENCODING 1076
SWIDTH 600 0
DWIDTH 20 0
BBX 20 20 0 -2
BITMAP
006000
006000
00F000
00F000
019800
019800
030C00
030C00
060600
060600
0E0300
0C0300
1C0380
180180
3801C0
3000C0
FFFFF0
FFFFF0
C00030
C00030
ENDCHAR
STARTCHAR 0435
ENCODING 1077
SWIDTH 630 0
DWIDTH 21 0
BBX 17 18 2 0
BITMAP
03E000
0FF800
1C1C00
300600
600300
600300
C00180
FFFF80
FFFF80
C00000
C00000
C00000
600200
600700
300E00
3C1C00
1FF800
07E000
ENDCHAR
STARTCHAR 0436
ENCODING 1078
SWIDTH 750 0
DWIDTH 25 0
BBX 24 18 0 0
BITMAP
E01807
70180E
38181C
1C1838
0E1870
0718E0
039980
01DB00
00FF00
01FF80
0399C0
0718E0
061860
0C1830
181818
30180C
601806
E01807
ENDCHAR
STARTCHAR 0437
ENCODING 1079
SWIDTH 420 0
DWIDTH 14 0
BBX 11 18 1 0
BITMAP
1F00
3F80
31C0
00C0
00C0
00C0
00C0
0180
0F00
0F80
01C0
0060
0060
0060
4060
E0C0
7FC0
1F00
ENDCHAR
STARTCHAR 0438
ENCODING 1080
SWIDTH 600 0
DWIDTH 20 0
BBX 16 18 2 0
BITMAP
C001
C003
C007
C00F
C01B
C033
C063
C0C3
C1C3
C383
C303
C603
CC03
D803
F003
E003
C003
8003
ENDCHAR
STARTCHAR 0439
ENCODING 1081
SWIDTH 600 0
DWIDTH 20 0
BBX 16 24 2 0
BITMAP
3018
1830
1FF0
07C0
0000
0000
C001
C003
C007
C00F
C01B
C033
C063
C0C3
C1C3
C383
C303
C603
CC03
D803
F003
E003
C003
8003
ENDCHAR
STARTCHAR 043A
ENCODING 1082
SWIDTH 510 0
DWIDTH 17 0
BBX 14 18 2 0
BITMAP
C018
C070
C0E0
C1C0
C380
C700
CE00
D800
F000
F800
CC00
C600
C300
C180
C0E0
C070
C038
C01C
ENDCHAR
STARTCHAR 043B
ENCODING 1083
SWIDTH 540 0
DWIDTH 18 0
BBX 16 18 1 0
BITMAP
0180
0180
03C0
03C0
03C0
0660
0660
0C30
0C30
1C38
1818
1818
300C
300C
6006
6006
E007
C003
ENDCHAR
STARTCHAR 043C
ENCODING 1084
SWIDTH 870 0
DWIDTH 29 0
BBX 27 18 1 0
BITMAP
02000800
06000C00
07001C00
07001C00
0D803600
0D803600
0CC06600
18C06300
1860C300
1860C300
30718180
30318180
30338180
601B00C0
601F00C0
600E00C0
C00E0060
C0040060
ENDCHAR
STARTCHAR 043D
ENCODING 1085
SWIDTH 600 0
DWIDTH 20 0
BBX 16 18 2 0
BITMAP
C003
C003
C003
C003
C003
C003
C003
FFFF
FFFF
C003
C003
C003
C003
C003
C003
C003
C003
C003
ENDCHAR
STARTCHAR 043E
ENCODING 1086
SWIDTH 660 0
DWIDTH 22 0
BBX 18 18 2 0
BITMAP
03F000
0FFC00
1C0E00
380700
700380
600180
C000C0
C000C0
C000C0
C000C0
C000C0
C000C0
600180
700380
380700
1C0E00
0FFC00
03F000
ENDCHAR
STARTCHAR 043F
ENCODING 1087
SWIDTH 600 0
DWIDTH 20 0
BBX 16 18 2 0
BITMAP
FFFF
FFFF
C003
C003
C003
C003
C003
C003
C003
C003
C003
C003
C003
C003
C003
C003
C003
C003
ENDCHAR
STARTCHAR 0440
ENCODING 1088
SWIDTH 690 0
DWIDTH 23 0
BBX 19 24 2 -6
BITMAP
C3F800
CFFE00
DE0F00
F80380
F001C0
E000C0
C000E0
C00060
C00060
C00060
C00060
C000E0
E000C0
F001C0
F80380
DE0F00
CFFE00
C3F800
C00000
C00000
C00000
C00000
C00000
C00000
ENDCHAR
STARTCHAR 0441
ENCODING 1089
SWIDTH 630 0
DWIDTH 21 0
BBX 17 18 2 0
BITMAP
03F000
0FFE00
1C0F00
380380
700100
600000
C00000
C00000
C00000
C00000
C00000
C00000
600000
700100
380380
1C0F00
0FFE00
03F800
ENDCHAR
STARTCHAR 0442
ENCODING 1090
SWIDTH 390 0
DWIDTH 13 0
BBX 11 18 1 0
BITMAP
FFE0
FFE0
0C00
0C00
0C00
0C00
0C00
0C00
0C00
0C00
0C00
0C00
0C00
0C00
0C00
0C00
0C00
0C00
ENDCHAR
STARTCHAR 0443
ENCODING 1091
SWIDTH 510 0
DWIDTH 17 0
BBX 16 24 1 -6
BITMAP
C003
6006
6006
700E
300C
300C
1818
1818
0C30
0C30
0E70
0660
0660
03C0
03C0
01C0
0180
0180
0300
0300
0600
0600
0E00
0C00
ENDCHAR
STARTCHAR 0444
ENCODING 1092
SWIDTH 1080 0
DWIDTH 36 0
BBX 32 31 2 -6
BITMAP
00018000
00018000
00018000
00018000
00018000
00018000
00018000
03F18FC0
0FF99FF0
1C1DB838
3807E01C
7003C00E
6003C006
C0018003
C0018003
C0018003
C0018003
C0018003
C0018003
6003C006
7003C00E
3007E01C
1C1DB838
0FF99FF0
03F18FC0
00018000
00018000
00018000
00018000
00018000
00018000
ENDCHAR
STARTCHAR 0445
ENCODING 1093
SWIDTH 480 0
DWIDTH 16 0
BBX 16 18 0 0
BITMAP
700E
300C
1818
1C38
0C30
0660
03C0
03C0
0180
03C0
07E0
0660
0C30
1818
381C
300C
6006
E007
ENDCHAR
STARTCHAR 0446
ENCODING 1094
SWIDTH 660 0
DWIDTH 22 0
BBX 20 21 2 -3
BITMAP
C00600
C00600
C00600
C00600
C00600
C00600
C00600
C00600
C00600
C00600
C00600
C00600
C00600
C00600
C00600
C00600
FFFFF0
FFFFF0
000030
000030
000030
ENDCHAR
STARTCHAR 0447
ENCODING 1095
SWIDTH 450 0
DWIDTH 15 0
BBX 12 18 1 0
BITMAP
C030
C030
C030
C030
C030
C030
C030
6030
7FF0
1FF0
0030
0030
0030
0030
0030
0030
0030
0030
ENDCHAR
STARTCHAR 0448
ENCODING 1096
SWIDTH 930 0
DWIDTH 31 0
BBX 27 18 2 0
BITMAP
C00C0060
C00C0060
C00C0060
C00C0060
C00C0060
C00C0060
C00C0060
C00C0060
C00C0060
C00C0060
C00C0060
C00C0060
C00C0060
C00C0060
C00C0060
C00C0060
FFFFFFE0
FFFFFFE0
ENDCHAR
STARTCHAR 0449
ENCODING 1097
SWIDTH 990 0
DWIDTH 33 0
BBX 31 21 2 -3
BITMAP
C00C0060
C00C0060
C00C0060
C00C0060
C00C0060
C00C0060
C00C0060
C00C0060
C00C0060
C00C0060
C00C0060
C00C0060
C00C0060
C00C0060
C00C0060
C00C0060
FFFFFFFE
FFFFFFFE
00000006
00000006
00000006
ENDCHAR
STARTCHAR 044A
ENCODING 1098
SWIDTH 510 0
DWIDTH 17 0
BBX 15 18 1 0
BITMAP
F800
F800
1800
1800
1800
1800
1800
1FF0
1FF8
181C
180E
1806
1806
1806
180E
181C
1FF8
1FF0
ENDCHAR
STARTCHAR 044B
ENCODING 1099
SWIDTH 660 0
DWIDTH 22 0
BBX 18 18 2 0
BITMAP
C000C0
C000C0
C000C0
C000C0
C000C0
C000C0
C000C0
FF80C0
FFE0C0
C070C0
C038C0
C018C0
C018C0
C018C0
C038C0
C070C0
FFE0C0
FFC0C0
ENDCHAR
STARTCHAR 044C
ENCODING 1100
SWIDTH 480 0
DWIDTH 16 0
BBX 13 18 2 0
BITMAP
C000
C000
C000
C000
C000
C000
C000
FF80
FFE0
C070
C038
C018
C018
C018
C038
C070
FFE0
FFC0
ENDCHAR
STARTCHAR 044D
ENCODING 1101
SWIDTH 630 0
DWIDTH 21 0
BBX 17 18 2 0
BITMAP
0FE000
3FF800
783C00
E00E00
400700
000300
000380
000180
01FF80
01FF80
000180
000180
000300
400700
E00E00
781C00
3FF800
0FE000
ENDCHAR
STARTCHAR 044E
ENCODING 1102
SWIDTH 840 0
DWIDTH 28 0
BBX 24 18 2 0
BITMAP
C00FC0
C03FF0
C07038
C0E01C
C1C00E
C18006
C30003
C30003
FF0003
FF0003
C30003
C30003
C18006
C1C00E
C0E01C
C07038
C03FF0
C00FC0
ENDCHAR
STARTCHAR 044F
ENCODING 1103
SWIDTH 450 0
DWIDTH 15 0
BBX 12 18 1 0
BITMAP
0FF0
3FF0
3030
6030
6030
6030
6030
3030
1FF0
07F0
0330
0630
0C30
1C30
3830
3030
6030
C030
ENDCHAR
STARTCHAR 0451
ENCODING 1105
SWIDTH 630 0
DWIDTH 21 0
BBX 17 24 2 0
BITMAP
0C1800
1E3C00
1E3C00
0C1800
000000
000000
03E000
0FF800
1C1C00
300600
600300
600300
C00180
FFFF80
FFFF80
C00000
C00000
C00000
600200
600700
300E00
3C1C00
1FF800
07E000
ENDCHAR
STARTCHAR 0452
ENCODING 1106
SWIDTH 630 0
DWIDTH 21 0
BBX 20 31 -1 -6
BITMAP
180000
180000
180000
FFFC00
FFFC00
180000
180000
183E00
18FF80
1BC1C0
1F0060
1E0070
1C0030
1C0030
180030
180030
180030
180030
180030
180030
180030
180030
180030
180030
180030
000030
000030
000030
000030
0001F0
0001E0
ENDCHAR
STARTCHAR 0453
ENCODING 1107
SWIDTH 360 0
DWIDTH 12 0
BBX 10 25 2 0
BITMAP
0780
0F00
0E00
1C00
3800
0000
0000
FFC0
FFC0
C000
C000
C000
C000
C000
C000
C000
C000
C000
C000
C000
C000
C000
C000
C000
C000
ENDCHAR
STARTCHAR 0454
ENCODING 1108
SWIDTH 630 0
DWIDTH 21 0
BBX 17 18 2 0
BITMAP
03F800
0FFE00
1E0F00
380380
700100
600000
E00000
C00000
FFC000
FFC000
C00000
C00000
600000
700100
380380
1C0F00
0FFE00
03F800
ENDCHAR
STARTCHAR 0455
ENCODING 1109
SWIDTH 390 0
DWIDTH 13 0
BBX 10 18 1 0
BITMAP
1E00
3F80
71C0
6080
6000
6000
7000
3800
1E00
0700
0380
01C0
00C0
00C0
40C0
E180
7F80
1E00
ENDCHAR
STARTCHAR 0456
ENCODING 1110
SWIDTH 210 0
DWIDTH 7 0
BBX 4 25 1 0
BITMAP
60
F0
F0
60
00
00
00
60
60
60
60
60
60
60
60
60
60
60
60
60
60
60
60
60
60
ENDCHAR
STARTCHAR 0457
ENCODING 1111
SWIDTH 180 0
DWIDTH 6 0
BBX 11 24 -3 0
BITMAP
60C0
F1E0
F1E0
60C0
0000
0000
0600
0600
0600
0600
0600
0600
0600
0600
0600
0600
0600
0600
0600
0600
0600
0600
0600
0600
ENDCHAR
STARTCHAR 0458
ENCODING 1112
SWIDTH 210 0
DWIDTH 7 0
BBX 6 31 -1 -6
BITMAP
18
3C
3C
18
00
00
00
18
18
18
18
18
18
18
18
18
18
18
18
18
18
18
18
18
18
18
18
18
18
F8
F0
ENDCHAR
STARTCHAR 0459
ENCODING 1113
SWIDTH 780 0
DWIDTH 26 0
BBX 24 18 1 0
BITMAP
018000
018000
03C000
03C000
03C000
066000
066000
0C3FF8
0C3FFC
1C380E
181807
181803
300C03
300C03
600607
60060E
E007FC
C003F8
ENDCHAR
STARTCHAR 045A
ENCODING 1114
SWIDTH 840 0
DWIDTH 28 0
BBX 25 18 2 0
BITMAP
C0060000
C0060000
C0060000
C0060000
C0060000
C0060000
C0060000
FFFFF800
FFFFFE00
C0060700
C0060380
C0060180
C0060180
C0060180
C0060380
C0060700
C007FE00
C007FC00
ENDCHAR
STARTCHAR 045B
ENCODING 1115
SWIDTH 630 0
DWIDTH 21 0
BBX 20 25 -1 0
BITMAP
180000
180000
180000
FFFC00
FFFC00
180000
180000
183E00
18FF80
1BC1C0
1F0060
1E0060
1C0030
1C0030
180030
180030
180030
180030
180030
180030
180030
180030
180030
180030
180030
ENDCHAR
STARTCHAR 045C
ENCODING 1116
SWIDTH 510 0
DWIDTH 17 0
BBX 14 25 2 0
BITMAP
01E0
03C0
0380
0700
0E00
0000
0000
C018
C070
C0E0
C1C0
C380
C700
CE00
D800
F000
F800
CC00
C600
C300
C180
C0E0
C070
C038
C01C
ENDCHAR
STARTCHAR 045E
ENCODING 1118
SWIDTH 510 0
DWIDTH 17 0
BBX 16 30 1 -6
BITMAP
180C
0C18
0FF8
03E0
0000
0000
C003
6006
6006
700E
300C
300C
1818
1818
0C30
0C30
0E70
0660
0660
03C0
03C0
01C0
0180
0180
0300
0300
0600
0600
0E00
0C00
ENDCHAR
STARTCHAR 045F
ENCODING 1119
SWIDTH 600 0
DWIDTH 20 0
BBX 16 21 2 -3
BITMAP
C003
C003
C003
C003
C003
C003
C003
C003
C003
C003
C003
C003
C003
C003
C003
C003
FFFF
FFFF
0180
0180
0180
ENDCHAR
STARTCHAR 0490
ENCODING 1168
SWIDTH 390 0
DWIDTH 13 0
BBX 9 27 3 0
BITMAP
0180
0180
0180
FF80
FF80
C000
C000
C000
C000
C000
C000
C000
C000
C000
C000
C000
C000
C000
C000
C000
C000
C000
C000
C000
C000
C000
C000
ENDCHAR
STARTCHAR 0491
ENCODING 1169
SWIDTH 360 0
DWIDTH 12 0
BBX 9 20 2 0
BITMAP
0180
0180
FF80
FF80
C000
C000
C000
C000
C000
C000
C000
C000
C000
C000
C000
C000
C000
C000
C000
C000
ENDCHAR
STARTCHAR 1E80
ENCODING 7808
SWIDTH 900 0
DWIDTH 30 0
BBX 27 31 1 0
BITMAP
003C0000
001E0000
000E0000
00070000
00038000
00000000
00000000
C0040060
C0060060
600E00C0
600E00C0
601F00C0
601B00C0
301B0180
303B8180
30318180
30318180
3860C380
1860C300
1860C300
18C06300
1CC06700
0CC06600
0D803600
0D803600
0D803E00
07001C00
07001C00
06001C00
06000C00
06000800
ENDCHAR
STARTCHAR 1E81
ENCODING 7809
SWIDTH 840 0
DWIDTH 28 0
BBX 27 25 0 0
BITMAP
00780000
003C0000
001C0000
000E0000
00070000
00000000
00000000
C0040060
600E00C0
600E00C0
600E00C0
301B0180
301B0180
183B8300
18318300
18318300
0C60C600
0C60C600
0EE0EE00
06C06C00
06C06C00
03803800
03803800
03803800
01001000
ENDCHAR
STARTCHAR 1E82
ENCODING 7810
SWIDTH 900 0
DWIDTH 30 0
BBX 27 31 1 0
BITMAP
0000F000
0001E000
0001C000
00038000
00070000
00000000
00000000
C0040060
C0060060
600E00C0
600E00C0
601F00C0
601B00C0
301B0180
303B8180
30318180
30318180
3860C380
1860C300
1860C300
18C06300
1CC06700
0CC06600
0D803600
0D803600
0D803E00
07001C00
07001C00
06001C00
06000C00
06000800
ENDCHAR
STARTCHAR 1E83
ENCODING 7811
SWIDTH 840 0
DWIDTH 28 0
BBX 27 25 0 0
BITMAP
0003C000
00078000
00070000
000E0000
001C0000
00000000
00000000
C0040060
600E00C0
600E00C0
600E00C0
301B0180
301B0180
183B8300
18318300
18318300
0C60C600
0C60C600
0EE0EE00
06C06C00
06C06C00
03803800
03803800
03803800
01001000
ENDCHAR
STARTCHAR 1E84
ENCODING 7812
SWIDTH 960 0
DWIDTH 32 0
BBX 27 30 1 0
BITMAP
00306000
0078F000
0078F000
00306000
00000000
00000000
C0040060
C0060060
600E00C0
600E00C0
601F00C0
601B00C0
301B0180
303B8180
30318180
30318180
3860C380
1860C300
1860C300
18C06300
1CC06700
0CC06600
0D803600
0D803600
0D803E00
07001C00
07001C00
06001C00
06000C00
06000800
ENDCHAR
STARTCHAR 1E85
ENCODING 7813
SWIDTH 840 0
DWIDTH 28 0
BBX 27 24 0 0
BITMAP
0060C000
00F1E000
00F1E000
0060C000
00000000
00000000
C0040060
600E00C0
600E00C0
600E00C0
301B0180
301B0180
183B8300
18318300
18318300
0C60C600
0C60C600
0EE0EE00
06C06C00
06C06C00
03803800
03803800
03803800
01001000
ENDCHAR
STARTCHAR 1EF2
ENCODING 7922
SWIDTH 600 0
DWIDTH 20 0
BBX 18 31 1 0
BITMAP
0F0000
078000
038000
01C000
00E000
000000
000000
E001C0
600180
300300
300300
180600
1C0E00
0C0C00
061800
073800
033000
01E000
01E000
00C000
00C000
00C000
00C000
00C000
00C000
00C000
00C000
00C000
00C000
00C000
00C000
ENDCHAR
STARTCHAR 1EF3
ENCODING 7923
SWIDTH 510 0
DWIDTH 17 0
BBX 16 31 1 -6
BITMAP
1E00
0F00
0700
0380
01C0
0000
0000
C003
6006
6006
700E
300C
300C
1818
1818
0C30
0C30
0E70
0660
0660
03C0
03C0
01C0
0180
0180
0300
0300
0600
0600
0E00
0C00
ENDCHAR
STARTCHAR 2013
ENCODING 8211
SWIDTH 510 0
DWIDTH 17 0
BBX 18 2 -1 8
BITMAP
FFFFC0
FFFFC0
ENDCHAR
STARTCHAR 2014
ENCODING 8212
SWIDTH 990 0
DWIDTH 33 0
BBX 34 2 -1 8
BITMAP
FFFFFFFFC0
FFFFFFFFC0
ENDCHAR
STARTCHAR 2015
ENCODING 8213
SWIDTH 750 0
DWIDTH 25 0
BBX 26 2 -1 8
BITMAP
FFFFFFC0
FFFFFFC0
ENDCHAR
STARTCHAR 2017
ENCODING 8215
SWIDTH 510 0
DWIDTH 17 0
BBX 19 5 -1 -7
BITMAP
FFFFE0
FFFFE0
000000
FFFFE0
FFFFE0
ENDCHAR
STARTCHAR 2018
ENCODING 8216
SWIDTH 360 0
DWIDTH 12 0
BBX 2 8 5 17
BITMAP
40
C0
80
80
C0
C0
C0
C0
ENDCHAR
STARTCHAR 2019
ENCODING 8217
SWIDTH 360 0
DWIDTH 12 0
BBX 2 8 4 17
BITMAP
C0
C0
C0
C0
40
40
C0
80
ENDCHAR
STARTCHAR 201A
ENCODING 8218
SWIDTH 360 0
DWIDTH 12 0
BBX 2 8 4 -4
BITMAP
C0
C0
C0
C0
40
40
C0
80
ENDCHAR
STARTCHAR 201B
ENCODING 8219
SWIDTH 360 0
DWIDTH 12 0
BBX 2 8 4 17
BITMAP
C0
C0
C0
C0
80
80
80
40
ENDCHAR
STARTCHAR 201C
ENCODING 8220
SWIDTH 510 0
DWIDTH 17 0
BBX 8 8 4 17
BITMAP
41
C3
82
82
C3
C3
C3
C3
ENDCHAR
STARTCHAR 201D
ENCODING 8221
SWIDTH 480 0
DWIDTH 16 0
BBX 8 8 3 17
BITMAP
C3
C3
C3
C3
41
41
C3
82
ENDCHAR
STARTCHAR 201E
ENCODING 8222
SWIDTH 510 0
DWIDTH 17 0
BBX 8 8 3 -4
BITMAP
C3
C3
C3
C3
41
41
C3
82
ENDCHAR
STARTCHAR 2020
ENCODING 8224
SWIDTH 540 0
DWIDTH 18 0
BBX 12 30 2 -5
BITMAP
0600
0600
0600
0600
0600
0600
0600
FFF0
FFF0
0600
0600
0600
0600
0600
0600
0600
0600
0600
0600
0600
0600
0600
0600
0600
0600
0600
0600
0600
0600
0600
ENDCHAR
STARTCHAR 2021
ENCODING 8225
SWIDTH 510 0
DWIDTH 17 0
BBX 12 30 2 -5
BITMAP
0600
0600
0600
0600
0600
FFF0
FFF0
0600
0600
0600
0600
0600
0600
0600
0600
0600
0600
0600
0600
0600
0600
0600
0600
FFF0
FFF0
0600
0600
0600
0600
0600
ENDCHAR
STARTCHAR 2022
ENCODING 8226
SWIDTH 600 0
DWIDTH 20 0
BBX 10 10 5 7
BITMAP
1E00
7F80
7F80
FFC0
FFC0
FFC0
FFC0
7F80
7F80
1E00
ENDCHAR
STARTCHAR 2026
ENCODING 8230
SWIDTH 990 0
DWIDTH 33 0
BBX 26 4 3 0
BITMAP
600C0180
F01E03C0
F01E03C0
600C0180
ENDCHAR
STARTCHAR 2030
ENCODING 8240
SWIDTH 1170 0
DWIDTH 39 0
BBX 37 25 1 -1
BITMAP
1F00780000
3FFFF00000
71FF600000
E0C0E00000
C060C00000
C061800000
C063800000
E0E3000000
71C6000000
3F8E000000
1F0C000000
0018000000
0038000000
0030F807C0
0061FC0FE0
00C38E1C70
00C7073838
0186033018
0306033018
0706033018
0607073838
0C038E1C70
1C01FC0FE0
1800F807C0
3000000000
ENDCHAR
STARTCHAR 2032
ENCODING 8242
SWIDTH 210 0
DWIDTH 7 0
BBX 3 7 2 18
BITMAP
60
60
60
C0
C0
C0
C0
ENDCHAR
STARTCHAR 2033
ENCODING 8243
SWIDTH 300 0
DWIDTH 10 0
BBX 9 7 1 18
BITMAP
6180
6180
6180
C300
C300
C300
C300
ENDCHAR
STARTCHAR 2039
ENCODING 8249
SWIDTH 240 0
DWIDTH 8 0
BBX 6 18 1 0
BITMAP
0C
18
18
38
30
30
60
60
E0
C0
E0
60
70
30
30
18
18
0C
ENDCHAR
STARTCHAR 203A
ENCODING 8250
SWIDTH 240 0
DWIDTH 8 0
BBX 6 18 1 0
BITMAP
C0
60
60
70
30
30
18
18
1C
0C
1C
18
38
30
30
60
60
C0
ENDCHAR
STARTCHAR 203C
ENCODING 8252
SWIDTH 540 0
DWIDTH 18 0
BBX 12 25 3 0
BITMAP
6060
6060
6060
6060
6060
6060
6060
6060
6060
6060
6060
6060
6060
6060
6060
6060
6060
6060
6060
0000
0000
6060
F0F0
F0F0
6060
ENDCHAR
STARTCHAR 203E
ENCODING 8254
SWIDTH 540 0
DWIDTH 18 0
BBX 20 1 -1 30
BITMAP
FFFFF0
ENDCHAR
STARTCHAR 2044
ENCODING 8260
SWIDTH 150 0
DWIDTH 5 0
BBX 17 25 -6 0
BITMAP
000380
000300
000700
000600
000C00
000C00
001800
003800
003000
006000
006000
00C000
01C000
018000
030000
030000
060000
0E0000
0C0000
1C0000
180000
300000
700000
600000
E00000
ENDCHAR
STARTCHAR 207F
ENCODING 8319
SWIDTH 360 0
DWIDTH 12 0
BBX 9 11 1 10
BITMAP
DE00
FF00
E380
E180
C180
C180
C180
C180
C180
C180
C180
ENDCHAR
STARTCHAR 20A3
ENCODING 8355
SWIDTH 480 0
DWIDTH 16 0
BBX 14 24 0 0
BITMAP
1FFC
1FFC
1800
1800
1800
1800
1800
1800
1800
1800
1FFC
1FFC
1800
1800
1800
1800
1800
1800
FF80
FF80
1800
1800
1800
1800
ENDCHAR
STARTCHAR 20A4
ENCODING 8356
SWIDTH 540 0
DWIDTH 18 0
BBX 16 24 1 0
BITMAP
01F0
03F8
061C
0C0E
0C06
0C06
0C00
0C00
7FF8
7FF8
0600
0600
7FF8
7FF8
0600
0600
0600
0600
7E03
FE03
CF03
CFC6
F9FE
707C
ENDCHAR
STARTCHAR 20A7
ENCODING 8359
SWIDTH 1080 0
DWIDTH 36 0
BBX 32 25 2 0
BITMAP
00006000
FFE06000
FFF86000
C03C6000
C00C6000
C0066000
C0066000
C007FFF8
C007FFFE
C00660C7
C00C6182
C03C6180
FFF86180
FFC061C0
C00060E0
C0006078
C000601C
C0006006
C0006003
C0006003
C0006003
C0006103
C0006386
C00061FE
C00060F8
ENDCHAR
STARTCHAR 20AC
ENCODING 8364
SWIDTH 540 0
DWIDTH 18 0
BBX 16 24 1 0
BITMAP
003F
00FF
03E0
0700
0E00
0C00
1800
1800
FFFC
FFFC
3000
3000
3000
FFF8
FFF8
1800
1800
1C00
0C00
0E00
0780
03E0
00FF
003F
ENDCHAR
STARTCHAR 2105
ENCODING 8453
SWIDTH 870 0
DWIDTH 29 0
BBX 27 25 1 0
BITMAP
1F001C00
3F801800
71C03000
E0803000
C0006000
C000E000
C000C000
E081C000
71C18000
3F830000
1F030000
00060000
000E0000
000C0F00
00181F80
001839C0
003070E0
00706060
00606060
00E06060
00C06060
018070E0
018031C0
03001F80
07000F00
ENDCHAR
STARTCHAR 2113
ENCODING 8467
SWIDTH 360 0
DWIDTH 12 0
BBX 10 25 1 0
BITMAP
0700
0F80
18C0
18C0
18C0
18C0
1980
1980
1B80
1B00
1E00
1E00
1C00
1800
1800
3800
7800
F800
5800
1800
1800
1800
18C0
1FC0
0F80
ENDCHAR
STARTCHAR 2116
ENCODING 8470
SWIDTH 1080 0
DWIDTH 36 0
BBX 32 24 3 0
BITMAP
8000C000
C000C000
C000C000
E000C000
F000C000
D800C000
CC00C000
CC00C000
C600C0F8
C300C1FC
C180C38E
C0C0C707
C0C0C603
C060C603
C030C603
C018C707
C00CC38E
C00CC1FC
C006C0F8
C003C000
C001C000
C001C000
C000C7FF
C00047FF
ENDCHAR
STARTCHAR 2122
ENCODING 8482
SWIDTH 990 0
DWIDTH 33 0
BBX 30 14 0 11
BITMAP
FFF1C01C
FFF1E03C
0601E03C
0601B06C
0601B06C
0601B8EC
060198CC
06019DCC
06018D8C
06018D8C
0601870C
0601870C
0601820C
0601820C
ENDCHAR
STARTCHAR 2126
ENCODING 8486
SWIDTH 750 0
DWIDTH 25 0
BBX 22 24 2 0
BITMAP
01FE00
07FF80
0FFFC0
1F03E0
3C00F0
780078
700038
F0003C
E0001C
E0001C
E0001C
E0001C
E0001C
E0001C
E0001C
700038
700038
380070
3C00E0
1E01C0
070380
FF87FC
FF87FC
FF87FC
ENDCHAR
STARTCHAR 212E
ENCODING 8494
SWIDTH 600 0
DWIDTH 20 0
BBX 18 19 1 -1
BITMAP
03F000
0C0C00
180600
300300
700380
700380
F003C0
F003C0
FFFFC0
F00000
F00000
F00000
F00000
700000
700080
300180
100300
0C0C00
03F000
ENDCHAR
STARTCHAR 215B
ENCODING 8539
SWIDTH 810 0
DWIDTH 27 0
BBX 24 25 2 0
BITMAP
000060
7800C0
F800C0
180180
180380
180300
180700
180600
180C00
180C00
181800
183800
183000
00703C
0060FE
00C0C6
00C0C6
01807C
03807C
0300C6
070183
060183
0C01C7
0C00FE
18007C
ENDCHAR
STARTCHAR 215C
ENCODING 8540
SWIDTH 810 0
DWIDTH 27 0
BBX 25 25 1 0
BITMAP
00001800
3E003000
7F003000
E3806000
0180E000
0380C000
0F018000
0F818000
01C30000
C0C70000
E1C60000
7F8C0000
3F1C0000
00181E00
00387F00
00306300
00606300
00E03E00
00C03E00
01C06300
0180C180
0300C180
0700E380
06007F00
0E003E00
ENDCHAR
STARTCHAR 215D
ENCODING 8541
SWIDTH 810 0
DWIDTH 27 0
BBX 25 25 1 0
BITMAP
00001800
3F803000
3F807000
30006000
6000E000
7E00C000
7F018000
03838000
01830000
01860000
C3860000
FF0C0000
3E1C0000
00181C00
00307F00
00306300
00606300
00E03E00
00C03E00
01806300
0380C180
0300C180
0700E380
06007F00
0C003E00
ENDCHAR
STARTCHAR 215E
ENCODING 8542
SWIDTH 810 0
DWIDTH 27 0
BBX 25 25 1 0
BITMAP
00006000
FF80C000
FF00C000
07018000
06038000
0C030000
1C070000
18060000
300C0000
300C0000
60180000
E0380000
C0300000
00701C00
00607F00
00C06300
00C06300
01803E00
03803E00
03006300
0700C180
0600C180
0C00E380
0C007F00
18003E00
ENDCHAR
STARTCHAR 2190
ENCODING 8592
SWIDTH 990 0
DWIDTH 33 0
BBX 30 12 1 3
BITMAP
03000000
06000000
0E000000
1C000000
38000000
FFFFFFFC
FFFFFFFC
38000000
1C000000
0E000000
06000000
03000000
ENDCHAR
STARTCHAR 2191
ENCODING 8593
SWIDTH 510 0
DWIDTH 17 0
BBX 12 30 2 -6
BITMAP
0600
0600
0F00
1F80
3FC0
76E0
E670
8610
0600
0600
0600
0600
0600
0600
0600
0600
0600
0600
0600
0600
0600
0600
0600
0600
0600
0600
0600
0600
0600
0600
ENDCHAR
STARTCHAR 2192
ENCODING 8594
SWIDTH 990 0
DWIDTH 33 0
BBX 30 12 1 3
BITMAP
00000300
00000180
000001C0
000000E0
00000070
FFFFFFFC
FFFFFFFC
00000070
000000E0
000001C0
00000180
00000300
ENDCHAR
STARTCHAR 2193
ENCODING 8595
SWIDTH 510 0
DWIDTH 17 0
BBX 12 30 2 -6
BITMAP
0600
0600
0600
0600
0600
0600
0600
0600
0600
0600
0600
0600
0600
0600
0600
0600
0600
0600
0600
0600
0600
0600
8610
E670
76E0
3FC0
1F80
0F00
0600
0600
ENDCHAR
STARTCHAR 2194
ENCODING 8596
SWIDTH 990 0
DWIDTH 33 0
BBX 30 12 1 3
BITMAP
03000300
06000180
0E0001C0
1C0000E0
38000070
FFFFFFFC
FFFFFFFC
38000070
1C0000E0
0E0001C0
06000180
03000300
ENDCHAR
STARTCHAR 2195
ENCODING 8597
SWIDTH 510 0
DWIDTH 17 0
BBX 12 30 2 -6
BITMAP
0600
0600
0F00
1F80
3FC0
76E0
E670
8610
0600
0600
0600
0600
0600
0600
0600
0600
0600
0600
0600
0600
0600
0600
8610
E670
76E0
3FC0
1F80
0F00
0600
0600
ENDCHAR
STARTCHAR 21A8
ENCODING 8616
SWIDTH 510 0
DWIDTH 17 0
BBX 12 34 2 -10
BITMAP
0600
0600
0F00
1F80
3FC0
76E0
E670
8610
0600
0600
0600
0600
0600
0600
0600
0600
0600
0600
0600
0600
0600
0600
8610
E670
76E0
3FC0
1F80
0F00
0600
0600
0000
0000
FFF0
FFF0
ENDCHAR
STARTCHAR 2202
ENCODING 8706
SWIDTH 480 0
DWIDTH 16 0
BBX 14 25 1 0
BITMAP
01E0
03F0
0738
0618
0E0C
040C
000C
000C
000C
00FC
07FC
1F0C
3C0C
380C
701C
6018
E018
C018
C030
C030
C060
C0E0
61C0
7F80
1E00
ENDCHAR
STARTCHAR 2206
ENCODING 8710
SWIDTH 600 0
DWIDTH 20 0
BBX 19 22 0 0
BITMAP
004000
004000
00E000
00E000
00E000
013000
013000
021800
021800
041C00
040C00
040C00
080600
080600
100300
100300
200180
200180
600180
4000C0
4000C0
FFFFE0
ENDCHAR
STARTCHAR 220F
ENCODING 8719
SWIDTH 810 0
DWIDTH 27 0
BBX 22 31 2 -6
BITMAP
FFFFFC
FFFFFC
FFFFFC
E0001C
E0001C
E0001C
E0001C
E0001C
E0001C
E0001C
E0001C
E0001C
E0001C
E0001C
E0001C
E0001C
E0001C
E0001C
E0001C
E0001C
E0001C
E0001C
E0001C
E0001C
E0001C
E0001C
E0001C
E0001C
E0001C
E0001C
E0001C
ENDCHAR
STARTCHAR 2211
ENCODING 8721
SWIDTH 720 0
DWIDTH 24 0
BBX 20 31 2 -6
BITMAP
FFFFF0
FFFFF0
FFFFF0
E00000
700000
380000
1C0000
0E0000
0E0000
070000
038000
01C000
00E000
00E000
007000
003800
007000
00E000
01E000
01C000
038000
070000
0E0000
1C0000
1C0000
380000
700000
E00000
FFFFF0
FFFFF0
FFFFF0
ENDCHAR
STARTCHAR 2212
ENCODING 8722
SWIDTH 600 0
DWIDTH 20 0
BBX 16 2 2 11
BITMAP
FFFF
FFFF
ENDCHAR
STARTCHAR 2215
ENCODING 8725
SWIDTH 150 0
DWIDTH 5 0
BBX 17 25 -6 0
BITMAP
000380
000300
000700
000600
000C00
000C00
001800
003800
003000
006000
006000
00C000
01C000
018000
030000
030000
060000
0E0000
0C0000
1C0000
180000
300000
700000
600000
E00000
ENDCHAR
STARTCHAR 2219
ENCODING 8729
SWIDTH 270 0
DWIDTH 9 0
BBX 4 4 2 10
BITMAP
60
F0
F0
60
ENDCHAR
STARTCHAR 221A
ENCODING 8730
SWIDTH 540 0
DWIDTH 18 0
BBX 17 30 1 1
BITMAP
000080
000080
000080
000100
000100
000100
000100
000100
000100
000100
000200
000200
000200
0C0200
3C0200
C60200
060400
030400
030400
038400
018400
01C400
00CC00
00E800
006800
006800
003800
003800
001800
001000
ENDCHAR
STARTCHAR 221E
ENCODING 8734
SWIDTH 720 0
DWIDTH 24 0
BBX 19 11 2 6
BITMAP
000F00
3C1FC0
7F38C0
E3F060
C1E060
C0C060
C1E060
E3E060
7F38C0
3C1FC0
000F00
ENDCHAR
STARTCHAR 221F
ENCODING 8735
SWIDTH 960 0
DWIDTH 32 0
BBX 20 21 6 0
BITMAP
C00000
C00000
C00000
C00000
C00000
C00000
C00000
C00000
C00000
C00000
C00000
C00000
C00000
C00000
C00000
C00000
C00000
C00000
C00000
FFFFF0
FFFFF0
ENDCHAR
STARTCHAR 2229
ENCODING 8745
SWIDTH 570 0
DWIDTH 19 0
BBX 15 24 2 0
BITMAP
07C0
1FF0
3C78
3018
600C
600C
C006
C006
C006
C006
C006
C006
C006
C006
C006
C006
C006
C006
C006
C006
C006
C006
C006
C006
ENDCHAR
STARTCHAR 222B
ENCODING 8747
SWIDTH 240 0
DWIDTH 8 0
BBX 8 33 0 -3
BITMAP
06
0F
17
10
10
10
10
10
18
18
18
18
18
18
18
18
18
18
18
18
18
18
18
18
18
18
08
08
08
10
F0
F0
E0
ENDCHAR
STARTCHAR 2248
ENCODING 8776
SWIDTH 540 0
DWIDTH 18 0
BBX 16 11 1 6
BITMAP
7C00
FF00
83C1
00FF
003E
0000
7C00
FF00
83C1
00FF
003E
ENDCHAR
STARTCHAR 2260
ENCODING 8800
SWIDTH 540 0
DWIDTH 18 0
BBX 16 25 1 -1
BITMAP
000C
0018
0018
0038
0030
0030
0060
0060
FFFF
FFFF
00C0
0180
0180
0180
0300
FFFF
FFFF
0600
0600
0C00
0C00
1C00
1800
1800
3000
ENDCHAR
STARTCHAR 2261
ENCODING 8801
SWIDTH 600 0
DWIDTH 20 0
BBX 16 16 2 4
BITMAP
FFFF
FFFF
0000
0000
0000
0000
0000
FFFF
FFFF
0000
0000
0000
0000
0000
FFFF
FFFF
ENDCHAR
STARTCHAR 2264
ENCODING 8804
SWIDTH 540 0
DWIDTH 18 0
BBX 16 21 1 1
BITMAP
0001
0007
001E
0078
01E0
0780
1E00
7800
E000
7800
1E00
0780
01E0
0078
001E
0007
0001
0000
0000
FFFF
FFFF
ENDCHAR
STARTCHAR 2265
ENCODING 8805
SWIDTH 540 0
DWIDTH 18 0
BBX 16 21 1 1
BITMAP
8000
E000
7800
1E00
0780
01E0
0078
001E
0007
001E
0078
01E0
0780
1E00
7800
E000
8000
0000
0000
FFFF
FFFF
ENDCHAR
STARTCHAR 2302
ENCODING 8962
SWIDTH 600 0
DWIDTH 20 0
BBX 15 18 2 0
BITMAP
0180
03C0
0660
0C30
1810
3008
200C
6006
C002
C002
C002
C002
C002
C002
C002
C002
C002
FFFE
ENDCHAR
STARTCHAR 2310
ENCODING 8976
SWIDTH 600 0
DWIDTH 20 0
BBX 16 9 2 8
BITMAP
FFFF
FFFF
C000
C000
C000
C000
C000
C000
C000
ENDCHAR
STARTCHAR 2320
ENCODING 8992
SWIDTH 600 0
DWIDTH 20 0
BBX 7 36 9 -8
BITMAP
1C
7E
4C
C0
C0
C0
C0
C0
C0
C0
C0
C0
C0
C0
C0
C0
C0
C0
C0
C0
C0
C0
C0
C0
C0
C0
C0
C0
C0
C0
C0
C0
C0
C0
C0
C0
ENDCHAR
STARTCHAR 2321
ENCODING 8993
SWIDTH 600 0
DWIDTH 20 0
BBX 7 36 4 -8
BITMAP
06
06
06
06
06
06
06
06
06
06
06
06
06
06
06
06
06
06
06
06
06
06
06
06
06
06
06
06
06
06
06
06
06
64
FC
F8
ENDCHAR
STARTCHAR 2500
ENCODING 9472
SWIDTH 720 0
DWIDTH 24 0
BBX 24 2 0 9
BITMAP
FFFFFF
FFFFFF
ENDCHAR
STARTCHAR 2502
ENCODING 9474
SWIDTH 720 0
DWIDTH 24 0
BBX 3 40 10 -10
BITMAP
E0
E0
E0
E0
E0
E0
E0
E0
E0
E0
E0
E0
E0
E0
E0
E0
E0
E0
E0
E0
E0
E0
E0
E0
E0
E0
E0
E0
E0
E0
E0
E0
E0
E0
E0
E0
E0
E0
E0
E0
ENDCHAR
STARTCHAR 250C
ENCODING 9484
SWIDTH 720 0
DWIDTH 24 0
BBX 14 21 10 -10
BITMAP
FFFC
FFFC
E000
E000
E000
E000
E000
E000
E000
E000
E000
E000
E000
E000
E000
E000
E000
E000
E000
E000
E000
ENDCHAR
STARTCHAR 2510
ENCODING 9488
SWIDTH 720 0
DWIDTH 24 0
BBX 13 21 0 -10
BITMAP
FFF8
FFF8
0038
0038
0038
0038
0038
0038
0038
0038
0038
0038
0038
0038
0038
0038
0038
0038
0038
0038
0038
ENDCHAR
STARTCHAR 2514
ENCODING 9492
SWIDTH 720 0
DWIDTH 24 0
BBX 14 21 10 9
BITMAP
E000
E000
E000
E000
E000
E000
E000
E000
E000
E000
E000
E000
E000
E000
E000
E000
E000
E000
E000
FFFC
FFFC
ENDCHAR
STARTCHAR 2518
ENCODING 9496
SWIDTH 720 0
DWIDTH 24 0
BBX 13 21 0 9
BITMAP
0038
0038
0038
0038
0038
0038
0038
0038
0038
0038
0038
0038
0038
0038
0038
0038
0038
0038
0038
FFF8
FFF8
ENDCHAR
STARTCHAR 251C
ENCODING 9500
SWIDTH 720 0
DWIDTH 24 0
BBX 14 40 10 -10
BITMAP
E000
E000
E000
E000
E000
E000
E000
E000
E000
E000
E000
E000
E000
E000
E000
E000
E000
E000
E000
FFFC
FFFC
E000
E000
E000
E000
E000
E000
E000
E000
E000
E000
E000
E000
E000
E000
E000
E000
E000
E000
E000
ENDCHAR
STARTCHAR 2524
ENCODING 9508
SWIDTH 720 0
DWIDTH 24 0
BBX 13 40 0 -10
BITMAP
0038
0038
0038
0038
0038
0038
0038
0038
0038
0038
0038
0038
0038
0038
0038
0038
0038
0038
0038
FFF8
FFF8
0038
0038
0038
0038
0038
0038
0038
0038
0038
0038
0038
0038
0038
0038
0038
0038
0038
0038
0038
ENDCHAR
STARTCHAR 252C
ENCODING 9516
SWIDTH 720 0
DWIDTH 24 0
BBX 24 21 0 -10
BITMAP
FFFFFF
FFFFFF
003800
003800
003800
003800
003800
003800
003800
003800
003800
003800
003800
003800
003800
003800
003800
003800
003800
003800
003800
ENDCHAR
STARTCHAR 2534
ENCODING 9524
SWIDTH 720 0
DWIDTH 24 0
BBX 24 21 0 9
BITMAP
003800
003800
003800
003800
003800
003800
003800
003800
003800
003800
003800
003800
003800
003800
003800
003800
003800
003800
003800
FFFFFF
FFFFFF
ENDCHAR
STARTCHAR 253C
ENCODING 9532
SWIDTH 720 0
DWIDTH 24 0
BBX 24 40 0 -10
BITMAP
003800
003800
003800
003800
003800
003800
003800
003800
003800
003800
003800
003800
003800
003800
003800
003800
003800
003800
003800
FFFFFF
FFFFFF
003800
003800
003800
003800
003800
003800
003800
003800
003800
003800
003800
003800
003800
003800
003800
003800
003800
003800
003800
ENDCHAR
STARTCHAR 2550
ENCODING 9552
SWIDTH 720 0
DWIDTH 24 0
BBX 24 8 0 6
BITMAP
FFFFFF
FFFFFF
000000
000000
000000
000000
FFFFFF
FFFFFF
ENDCHAR
STARTCHAR 2551
ENCODING 9553
SWIDTH 720 0
DWIDTH 24 0
BBX 9 40 7 -10
BITMAP
E380
E380
E380
E380
E380
E380
E380
E380
E380
E380
E380
E380
E380
E380
E380
E380
E380
E380
E380
E380
E380
E380
E380
E380
E380
E380
E380
E380
E380
E380
E380
E380
E380
E380
E380
E380
E380
E380
E380
E380
ENDCHAR
STARTCHAR 2552
ENCODING 9554
SWIDTH 720 0
DWIDTH 24 0
BBX 14 24 10 -10
BITMAP
FFFC
FFFC
E000
E000
E000
E000
FFFC
FFFC
E000
E000
E000
E000
E000
E000
E000
E000
E000
E000
E000
E000
E000
E000
E000
E000
ENDCHAR
STARTCHAR 2553
ENCODING 9555
SWIDTH 720 0
DWIDTH 24 0
BBX 17 21 7 -10
BITMAP
FFFF80
FFFF80
FF8000
E38000
E38000
E38000
E38000
E38000
E38000
E38000
E38000
E38000
E38000
E38000
E38000
E38000
E38000
E38000
E38000
E38000
E38000
ENDCHAR
STARTCHAR 2554
ENCODING 9556
SWIDTH 720 0
DWIDTH 24 0
BBX 17 24 7 -10
BITMAP
FFFF80
FFFF80
E00000
E00000
E00000
E00000
E3FF80
E3FF80
E38000
E38000
E38000
E38000
E38000
E38000
E38000
E38000
E38000
E38000
E38000
E38000
E38000
E38000
E38000
E38000
ENDCHAR
STARTCHAR 2555
ENCODING 9557
SWIDTH 720 0
DWIDTH 24 0
BBX 13 24 0 -10
BITMAP
FFF8
FFF8
0038
0038
0038
0038
FFF8
FFF8
0038
0038
0038
0038
0038
0038
0038
0038
0038
0038
0038
0038
0038
0038
0038
0038
ENDCHAR
STARTCHAR 2556
ENCODING 9558
SWIDTH 720 0
DWIDTH 24 0
BBX 16 21 0 -10
BITMAP
FFFF
FFFF
01C7
01C7
01C7
01C7
01C7
01C7
01C7
01C7
01C7
01C7
01C7
01C7
01C7
01C7
01C7
01C7
01C7
01C7
01C7
ENDCHAR
STARTCHAR 2557
ENCODING 9559
SWIDTH 720 0
DWIDTH 24 0
BBX 16 24 0 -10
BITMAP
FFFF
FFFF
0007
0007
0007
0007
FFC7
FFC7
01C7
01C7
01C7
01C7
01C7
01C7
01C7
01C7
01C7
01C7
01C7
01C7
01C7
01C7
01C7
01C7
ENDCHAR
STARTCHAR 2558
ENCODING 9560
SWIDTH 720 0
DWIDTH 24 0
BBX 14 24 10 6
BITMAP
E000
E000
E000
E000
E000
E000
E000
E000
E000
E000
E000
E000
E000
E000
E000
E000
FFFC
FFFC
E000
E000
E000
E000
FFFC
FFFC
ENDCHAR
STARTCHAR 2559
ENCODING 9561
SWIDTH 720 0
DWIDTH 24 0
BBX 17 21 7 9
BITMAP
E38000
E38000
E38000
E38000
E38000
E38000
E38000
E38000
E38000
E38000
E38000
E38000
E38000
E38000
E38000
E38000
E38000
E38000
E38000
FFFF80
FFFF80
ENDCHAR
STARTCHAR 255A
ENCODING 9562
SWIDTH 720 0
DWIDTH 24 0
BBX 17 24 7 6
BITMAP
E38000
E38000
E38000
E38000
E38000
E38000
E38000
E38000
E38000
E38000
E38000
E38000
E38000
E38000
E38000
E38000
E3FF80
E3FF80
E00000
E00000
E00000
E00000
FFFF80
FFFF80
ENDCHAR
STARTCHAR 255B
ENCODING 9563
SWIDTH 720 0
DWIDTH 24 0
BBX 13 24 0 6
BITMAP
0038
0038
0038
0038
0038
0038
0038
0038
0038
0038
0038
0038
0038
0038
0038
0038
FFF8
FFF8
0038
0038
0038
0038
FFF8
FFF8
ENDCHAR
STARTCHAR 255C
ENCODING 9564
SWIDTH 720 0
DWIDTH 24 0
BBX 16 21 0 9
BITMAP
01C7
01C7
01C7
01C7
01C7
01C7
01C7
01C7
01C7
01C7
01C7
01C7
01C7
01C7
01C7
01C7
01C7
01C7
01C7
FFFF
FFFF
ENDCHAR
STARTCHAR 255D
ENCODING 9565
SWIDTH 720 0
DWIDTH 24 0
BBX 16 24 0 6
BITMAP
01C7
01C7
01C7
01C7
01C7
01C7
01C7
01C7
01C7
01C7
01C7
01C7
01C7
01C7
01C7
01C7
FFC7
FFC7
0007
0007
0007
0007
FFFF
FFFF
ENDCHAR
STARTCHAR 255E
ENCODING 9566
SWIDTH 720 0
DWIDTH 24 0
BBX 14 40 10 -10
BITMAP
E000
E000
E000
E000
E000
E000
E000
E000
E000
E000
E000
E000
E000
E000
E000
E000
FFFC
FFFC
E000
E000
E000
E000
FFFC
FFFC
E000
E000
E000
E000
E000
E000
E000
E000
E000
E000
E000
E000
E000
E000
E000
E000
ENDCHAR
STARTCHAR 255F
ENCODING 9567
SWIDTH 720 0
DWIDTH 24 0
BBX 17 40 7 -10
BITMAP
E38000
E38000
E38000
E38000
E38000
E38000
E38000
E38000
E38000
E38000
E38000
E38000
E38000
E38000
E38000
E38000
E38000
E38000
E38000
E3FF80
E3FF80
E38000
E38000
E38000
E38000
E38000
E38000
E38000
E38000
E38000
E38000
E38000
E38000
E38000
E38000
E38000
E38000
E38000
E38000
E38000
ENDCHAR
STARTCHAR 2560
ENCODING 9568
SWIDTH 720 0
DWIDTH 24 0
BBX 17 40 7 -10
BITMAP
E38000
E38000
E38000
E38000
E38000
E38000
E38000
E38000
E38000
E38000
E38000
E38000
E38000
E38000
E38000
E38000
E3FF80
E3FF80
E00000
E00000
E00000
E00000
E3FF80
E3FF80
E38000
E38000
E38000
E38000
E38000
E38000
E38000
E38000
E38000
E38000
E38000
E38000
E38000
E38000
E38000
E38000
ENDCHAR
STARTCHAR 2561
ENCODING 9569
SWIDTH 720 0
DWIDTH 24 0
BBX 13 40 0 -10
BITMAP
0038
0038
0038
0038
0038
0038
0038
0038
0038
0038
0038
0038
0038
0038
0038
0038
FFF8
FFF8
0038
0038
0038
0038
FFF8
FFF8
0038
0038
0038
0038
0038
0038
0038
0038
0038
0038
0038
0038
0038
0038
0038
0038
ENDCHAR
STARTCHAR 2562
ENCODING 9570
SWIDTH 720 0
DWIDTH 24 0
BBX 16 40 0 -10
BITMAP
01C7
01C7
01C7
01C7
01C7
01C7
01C7
01C7
01C7
01C7
01C7
01C7
01C7
01C7
01C7
01C7
01C7
01C7
01C7
FFC7
FFC7
01C7
01C7
01C7
01C7
01C7
01C7
01C7
01C7
01C7
01C7
01C7
01C7
01C7
01C7
01C7
01C7
01C7
01C7
01C7
ENDCHAR
STARTCHAR 2563
ENCODING 9571
SWIDTH 720 0
DWIDTH 24 0
BBX 16 40 0 -10
BITMAP
01C7
01C7
01C7
01C7
01C7
01C7
01C7
01C7
01C7
01C7
01C7
01C7
01C7
01C7
01C7
01C7
FFC7
FFC7
0007
0007
0007
0007
FFC7
FFC7
01C7
01C7
01C7
01C7
01C7
01C7
01C7
01C7
01C7
01C7
01C7
01C7
01C7
01C7
01C7
01C7
ENDCHAR
STARTCHAR 2564
ENCODING 9572
SWIDTH 720 0
DWIDTH 24 0
BBX 24 24 0 -10
BITMAP
FFFFFF
FFFFFF
000000
000000
000000
000000
FFFFFF
FFFFFF
003800
003800
003800
003800
003800
003800
003800
003800
003800
003800
003800
003800
003800
003800
003800
003800
ENDCHAR
STARTCHAR 2565
ENCODING 9573
SWIDTH 720 0
DWIDTH 24 0
BBX 24 21 0 -10
BITMAP
FFFFFF
FFFFFF
01FF00
01C700
01C700
01C700
01C700
01C700
01C700
01C700
01C700
01C700
01C700
01C700
01C700
01C700
01C700
01C700
01C700
01C700
01C700
ENDCHAR
STARTCHAR 2566
ENCODING 9574
SWIDTH 720 0
DWIDTH 24 0
BBX 24 24 0 -10
BITMAP
FFFFFF
FFFFFF
000000
000000
000000
000000
FFC7FF
FFC7FF
01C700
01C700
01C700
01C700
01C700
01C700
01C700
01C700
01C700
01C700
01C700
01C700
01C700
01C700
01C700
01C700
ENDCHAR
STARTCHAR 2567
ENCODING 9575
SWIDTH 720 0
DWIDTH 24 0
BBX 24 24 0 6
BITMAP
003800
003800
003800
003800
003800
003800
003800
003800
003800
003800
003800
003800
003800
003800
003800
003800
FFFFFF
FFFFFF
000000
000000
000000
000000
FFFFFF
FFFFFF
ENDCHAR
STARTCHAR 2568
ENCODING 9576
SWIDTH 720 0
DWIDTH 24 0
BBX 24 21 0 9
BITMAP
01C700
01C700
01C700
01C700
01C700
01C700
01C700
01C700
01C700
01C700
01C700
01C700
01C700
01C700
01C700
01C700
01C700
01C700
01C700
FFFFFF
FFFFFF
ENDCHAR
STARTCHAR 2569
ENCODING 9577
SWIDTH 720 0
DWIDTH 24 0
BBX 24 24 0 6
BITMAP
01C700
01C700
01C700
01C700
01C700
01C700
01C700
01C700
01C700
01C700
01C700
01C700
01C700
01C700
01C700
01C700
FFC7FF
FFC7FF
000000
000000
000000
000000
FFFFFF
FFFFFF
ENDCHAR
STARTCHAR 256A
ENCODING 9578
SWIDTH 720 0
DWIDTH 24 0
BBX 24 40 0 -10
BITMAP
003800
003800
003800
003800
003800
003800
003800
003800
003800
003800
003800
003800
003800
003800
003800
003800
FFFFFF
FFFFFF
003800
003800
003800
003800
FFFFFF
FFFFFF
003800
003800
003800
003800
003800
003800
003800
003800
003800
003800
003800
003800
003800
003800
003800
003800
ENDCHAR
STARTCHAR 256B
ENCODING 9579
SWIDTH 720 0
DWIDTH 24 0
BBX 24 40 0 -10
BITMAP
01C700
01C700
01C700
01C700
01C700
01C700
01C700
01C700
01C700
01C700
01C700
01C700
01C700
01C700
01C700
01C700
01C700
01C700
01C700
FFFFFF
FFFFFF
01C700
01C700
01C700
01C700
01C700
01C700
01C700
01C700
01C700
01C700
01C700
01C700
01C700
01C700
01C700
01C700
01C700
01C700
01C700
ENDCHAR
STARTCHAR 256C
ENCODING 9580
SWIDTH 720 0
DWIDTH 24 0
BBX 24 40 0 -10
BITMAP
01C700
01C700
01C700
01C700
01C700
01C700
01C700
01C700
01C700
01C700
01C700
01C700
01C700
01C700
01C700
01C700
FFC7FF
FFC7FF
000000
000000
000000
000000
FFC7FF
FFC7FF
01C700
01C700
01C700
01C700
01C700
01C700
01C700
01C700
01C700
01C700
01C700
01C700
01C700
01C700
01C700
01C700
ENDCHAR
STARTCHAR 2580
ENCODING 9600
SWIDTH 720 0
DWIDTH 24 0
BBX 24 20 0 10
BITMAP
FFFFFF
FFFFFF
FFFFFF
FFFFFF
FFFFFF
FFFFFF
FFFFFF
FFFFFF
FFFFFF
FFFFFF
FFFFFF
FFFFFF
FFFFFF
FFFFFF
FFFFFF
FFFFFF
FFFFFF
FFFFFF
FFFFFF
FFFFFF
ENDCHAR
STARTCHAR 2584
ENCODING 9604
SWIDTH 720 0
DWIDTH 24 0
BBX 24 20 0 -10
BITMAP
FFFFFF
FFFFFF
FFFFFF
FFFFFF
FFFFFF
FFFFFF
FFFFFF
FFFFFF
FFFFFF
FFFFFF
FFFFFF
FFFFFF
FFFFFF
FFFFFF
FFFFFF
FFFFFF
FFFFFF
FFFFFF
FFFFFF
FFFFFF
ENDCHAR
STARTCHAR 2588
ENCODING 9608
SWIDTH 720 0
DWIDTH 24 0
BBX 24 40 0 -10
BITMAP
FFFFFF
FFFFFF
FFFFFF
FFFFFF
FFFFFF
FFFFFF
FFFFFF
FFFFFF
FFFFFF
FFFFFF
FFFFFF
FFFFFF
FFFFFF
FFFFFF
FFFFFF
FFFFFF
FFFFFF
FFFFFF
FFFFFF
FFFFFF
FFFFFF
FFFFFF
FFFFFF
FFFFFF
FFFFFF
FFFFFF
FFFFFF
FFFFFF
FFFFFF
FFFFFF
FFFFFF
FFFFFF
FFFFFF
FFFFFF
FFFFFF
FFFFFF
FFFFFF
FFFFFF
FFFFFF
FFFFFF
ENDCHAR
STARTCHAR 258C
ENCODING 9612
SWIDTH 720 0
DWIDTH 24 0
BBX 12 40 0 -10
BITMAP
FFF0
FFF0
FFF0
FFF0
FFF0
FFF0
FFF0
FFF0
FFF0
FFF0
FFF0
FFF0
FFF0
FFF0
FFF0
FFF0
FFF0
FFF0
FFF0
FFF0
FFF0
FFF0
FFF0
FFF0
FFF0
FFF0
FFF0
FFF0
FFF0
FFF0
FFF0
FFF0
FFF0
FFF0
FFF0
FFF0
FFF0
FFF0
FFF0
FFF0
ENDCHAR
STARTCHAR 2590
ENCODING 9616
SWIDTH 720 0
DWIDTH 24 0
BBX 12 40 12 -10
BITMAP
FFF0
FFF0
FFF0
FFF0
FFF0
FFF0
FFF0
FFF0
FFF0
FFF0
FFF0
FFF0
FFF0
FFF0
FFF0
FFF0
FFF0
FFF0
FFF0
FFF0
FFF0
FFF0
FFF0
FFF0
FFF0
FFF0
FFF0
FFF0
FFF0
FFF0
FFF0
FFF0
FFF0
FFF0
FFF0
FFF0
FFF0
FFF0
FFF0
FFF0
ENDCHAR
STARTCHAR 2591
ENCODING 9617
SWIDTH 720 0
DWIDTH 24 0
BBX 22 38 2 -8
BITMAP
C0C0C0
C0C0C0
000000
000000
0C0C0C
0C0C0C
000000
000000
C0C0C0
C0C0C0
000000
000000
0C0C0C
0C0C0C
000000
000000
C0C0C0
C0C0C0
000000
000000
0C0C0C
0C0C0C
000000
000000
C0C0C0
C0C0C0
000000
000000
0C0C0C
0C0C0C
000000
000000
C0C0C0
C0C0C0
000000
000000
0C0C0C
0C0C0C
ENDCHAR
STARTCHAR 2592
ENCODING 9618
SWIDTH 720 0
DWIDTH 24 0
BBX 24 38 0 -8
BITMAP
333333
333333
000000
000000
CCCCCC
CCCCCC
000000
000000
333333
333333
000000
000000
CCCCCC
CCCCCC
000000
000000
333333
333333
000000
000000
CCCCCC
CCCCCC
000000
000000
333333
333333
000000
000000
CCCCCC
CCCCCC
000000
000000
333333
333333
000000
000000
CCCCCC
CCCCCC
ENDCHAR
STARTCHAR 2593
ENCODING 9619
SWIDTH 720 0
DWIDTH 24 0
BBX 24 40 0 -10
BITMAP
333333
333333
FFFFFF
FFFFFF
CCCCCC
CCCCCC
FFFFFF
FFFFFF
333333
333333
FFFFFF
FFFFFF
CCCCCC
CCCCCC
FFFFFF
FFFFFF
333333
333333
FFFFFF
FFFFFF
CCCCCC
CCCCCC
FFFFFF
FFFFFF
333333
333333
FFFFFF
FFFFFF
CCCCCC
CCCCCC
FFFFFF
FFFFFF
333333
333333
FFFFFF
FFFFFF
CCCCCC
CCCCCC
FFFFFF
FFFFFF
ENDCHAR
STARTCHAR 25A0
ENCODING 9632
SWIDTH 600 0
DWIDTH 20 0
BBX 16 15 2 0
BITMAP
FFFF
FFFF
FFFF
FFFF
FFFF
FFFF
FFFF
FFFF
FFFF
FFFF
FFFF
FFFF
FFFF
FFFF
FFFF
ENDCHAR
STARTCHAR 25A1
ENCODING 9633
SWIDTH 600 0
DWIDTH 20 0
BBX 16 15 2 0
BITMAP
FFFF
8001
8001
8001
8001
8001
8001
8001
8001
8001
8001
8001
8001
8001
FFFF
ENDCHAR
STARTCHAR 25AA
ENCODING 9642
SWIDTH 360 0
DWIDTH 12 0
BBX 8 8 2 7
BITMAP
FF
FF
FF
FF
FF
FF
FF
FF
ENDCHAR
STARTCHAR 25AB
ENCODING 9643
SWIDTH 360 0
DWIDTH 12 0
BBX 8 8 2 7
BITMAP
FF
81
81
81
81
81
81
FF
ENDCHAR
STARTCHAR 25AC
ENCODING 9644
SWIDTH 990 0
DWIDTH 33 0
BBX 33 6 0 5
BITMAP
FFFFFFFF80
FFFFFFFF80
FFFFFFFF80
FFFFFFFF80
FFFFFFFF80
FFFFFFFF80
ENDCHAR
STARTCHAR 25B2
ENCODING 9650
SWIDTH 990 0
DWIDTH 33 0
BBX 23 23 5 0
BITMAP
001000
001000
003800
003800
007C00
007C00
00FE00
00FE00
01FF00
01FF00
03FF80
03FF80
07FFC0
07FFC0
0FFFE0
0FFFE0
1FFFF0
1FFFF0
3FFFF8
3FFFF8
7FFFFC
7FFFFC
FFFFFE
ENDCHAR
STARTCHAR 25BA
ENCODING 9658
SWIDTH 990 0
DWIDTH 33 0
BBX 22 22 5 0
BITMAP
C00000
F00000
FC0000
FF0000
FFC000
FFF000
FFFC00
FFFF00
FFFFC0
FFFFF0
FFFFFC
FFFFFC
FFFFF0
FFFFC0
FFFF00
FFFC00
FFF000
FFC000
FF0000
FC0000
F00000
C00000
ENDCHAR
STARTCHAR 25BC
ENCODING 9660
SWIDTH 990 0
DWIDTH 33 0
BBX 22 22 5 0
BITMAP
FFFFFC
7FFFFC
7FFFF8
3FFFF8
3FFFF0
1FFFF0
1FFFE0
0FFFE0
0FFFC0
07FFC0
07FF80
03FF80
03FF00
01FF00
01FE00
00FE00
00FC00
007C00
007800
003800
003000
001000
ENDCHAR
STARTCHAR 25C4
ENCODING 9668
SWIDTH 990 0
DWIDTH 33 0
BBX 23 23 5 0
BITMAP
000002
00000E
00003E
0000FE
0003FE
000FFE
003FFE
00FFFE
03FFFE
0FFFFE
3FFFFE
FFFFFE
7FFFFE
1FFFFE
07FFFE
01FFFE
007FFE
001FFE
0007FE
0001FE
00007E
00001E
000006
ENDCHAR
STARTCHAR 25CA
ENCODING 9674
SWIDTH 480 0
DWIDTH 16 0
BBX 14 23 1 0
BITMAP
0700
0F80
0D80
0CC0
18C0
1860
3060
3030
6030
6018
E018
C00C
C018
6018
6030
3030
3060
1860
18C0
0CC0
0D80
0F80
0700
ENDCHAR
STARTCHAR 25CB
ENCODING 9675
SWIDTH 600 0
DWIDTH 20 0
BBX 14 14 3 2
BITMAP
1FC0
3030
6018
4008
800C
8004
8004
8004
800C
C008
4018
3030
1FE0
0780
ENDCHAR
STARTCHAR 25CF
ENCODING 9679
SWIDTH 600 0
DWIDTH 20 0
BBX 14 14 3 2
BITMAP
0FC0
1FE0
3FF0
7FF8
FFFC
FFFC
FFFC
FFFC
FFFC
FFFC
7FF8
3FF0
1FE0
0FC0
ENDCHAR
STARTCHAR 25D8
ENCODING 9688
SWIDTH 600 0
DWIDTH 20 0
BBX 16 16 2 0
BITMAP
FFFF
FFFF
FFFF
FFFF
FFFF
FC3F
F81F
F81F
F81F
F81F
FC3F
FFFF
FFFF
FFFF
FFFF
FFFF
ENDCHAR
STARTCHAR 25D9
ENCODING 9689
SWIDTH 600 0
DWIDTH 20 0
BBX 18 19 1 0
BITMAP
FFFFC0
FFFFC0
FFFFC0
F80FC0
F3F3C0
E7F9C0
EFFDC0
DFFCC0
DFFEC0
DFFEC0
DFFEC0
DFFEC0
CFFDC0
EFF9C0
F3F3C0
F807C0
FE1FC0
FFFFC0
FFFFC0
ENDCHAR
STARTCHAR 25E6
ENCODING 9702
SWIDTH 360 0
DWIDTH 12 0
BBX 8 8 2 7
BITMAP
3C
42
81
81
81
81
42
3C
ENDCHAR
STARTCHAR 263A
ENCODING 9786
SWIDTH 1020 0
DWIDTH 34 0
BBX 20 21 7 -2
BITMAP
006000
07FE00
0E0700
380180
3000C0
600060
C00020
C60430
860E30
860610
800010
800010
800030
C00430
C60420
639C60
61F0C0
3001C0
1C0300
07FE00
01F800
ENDCHAR
STARTCHAR 263B
ENCODING 9787
SWIDTH 1050 0
DWIDTH 35 0
BBX 21 21 7 -2
BITMAP
007000
03FE00
0FFF80
1FFFC0
3FFFE0
7FFFE0
7FFFF0
7DFDF0
F8F8F0
FDF9F8
FFFFF8
FFFFF8
FFFFF0
FDFFF0
7DF9F0
7E73E0
3F07E0
1FFFC0
0FFF80
07FF00
01F800
ENDCHAR
STARTCHAR 263C
ENCODING 9788
SWIDTH 900 0
DWIDTH 30 0
BBX 30 30 0 -4
BITMAP
00010000
00010000
00010000
08010020
0C010040
06078180
031FF300
01E01E00
00C00C00
01800600
01000300
02000100
02000100
02000180
FE0001FC
02000180
02000100
02000100
03000300
01000200
00800600
01C00E00
03303B00
060FE180
0C0100C0
08010060
00010000
00010000
00010000
00010000
ENDCHAR
STARTCHAR 2640
ENCODING 9792
SWIDTH 540 0
DWIDTH 18 0
BBX 16 28 1 -5
BITMAP
07E0
1818
3004
2002
4002
4002
8001
8001
8001
8001
4002
4002
2004
1808
07F0
0080
0080
0080
0080
0080
0080
7FFE
0080
0080
0080
0080
0080
0080
ENDCHAR
STARTCHAR 2642
ENCODING 9794
SWIDTH 660 0
DWIDTH 22 0
BBX 20 27 1 -5
BITMAP
000080
000380
0007C0
001FC0
00E2C0
000240
000260
000420
000420
000810
000800
001000
001000
07E000
181000
200C00
400400
400600
800300
800300
800300
400300
400700
400600
200E00
183C00
0FF000
ENDCHAR
STARTCHAR 2660
ENCODING 9824
SWIDTH 540 0
DWIDTH 18 0
BBX 16 19 1 0
BITMAP
0100
0180
0380
03C0
07E0
0FF0
3FF8
3FFC
7FFE
FFFE
FFFF
FFFF
FF7E
7D7E
1100
0180
0380
07E0
3FFC
ENDCHAR
STARTCHAR 2663
ENCODING 9827
SWIDTH 660 0
DWIDTH 22 0
BBX 20 20 1 0
BITMAP
00F000
01F800
03FC00
03FC00
07FC00
03FC00
03FC00
3FFFC0
7FFFE0
FFFFF0
FFFFF0
FFFFF0
FFBFF0
7FDFE0
7F4FC0
086100
006000
00F000
03F800
1FFF80
ENDCHAR
STARTCHAR 2665
ENCODING 9829
SWIDTH 600 0
DWIDTH 20 0
BBX 18 19 1 1
BITMAP
3C0E00
7E3F00
FF7F80
FF7F80
FFFFC0
FFFF80
FFFF80
7FFF80
7FFF00
3FFE00
1FFE00
0FFC00
0FF800
07F000
03F000
03E000
01C000
00C000
008000
ENDCHAR
STARTCHAR 2666
ENCODING 9830
SWIDTH 510 0
DWIDTH 17 0
BBX 15 20 1 0
BITMAP
0100
0100
0380
0780
07C0
0FE0
1FF0
3FF0
7FF8
7FFC
FFFE
7FFC
3FF8
1FF0
1FE0
0FE0
07C0
0780
0380
0100
ENDCHAR
STARTCHAR 266A
ENCODING 9834
SWIDTH 750 0
DWIDTH 25 0
BBX 25 33 0 -8
BITMAP
00010000
0001C000
0001E000
0001F000
0001F800
00013C00
00011E00
00010F00
00010700
00010380
00010180
00010000
00010000
00010000
00010000
00010000
00010000
00010000
00010000
00010000
00010000
07F90000
1FFF0000
3FFF0000
7FFF0000
7FFF0000
FFFF0000
FFFF0000
7FFF0000
7FFE0000
3FFC0000
1FF00000
01000000
ENDCHAR
STARTCHAR 266B
ENCODING 9835
SWIDTH 990 0
DWIDTH 33 0
BBX 23 31 5 -7
BITMAP
000002
00001E
0000FE
000FFE
007FFE
00FFFE
00FFC2
00FE02
00F002
00C002
00C002
00C002
00C002
00C002
00C002
00C002
00C002
00C002
00C022
00C1FE
00C3FE
00C7FE
0CC7FE
3FC7FE
7FC7FE
FFC3FC
FFC1F8
FFC000
FFC000
7F8000
3F0000
ENDCHAR
STARTCHAR F000
ENCODING 61440
SWIDTH 780 0
DWIDTH 26 0
BBX 1 1 0 0
BITMAP
00
ENDCHAR
STARTCHAR F001
ENCODING 61441
SWIDTH 480 0
DWIDTH 16 0
BBX 13 25 1 0
BITMAP
07C0
1FF0
1838
3018
3000
3000
3000
FF98
FF98
3018
3018
3018
3018
3018
3018
3018
3018
3018
3018
3018
3018
3018
3018
3018
3018
ENDCHAR
STARTCHAR F002
ENCODING 61442
SWIDTH 480 0
DWIDTH 16 0
BBX 13 25 1 0
BITMAP
07C0
1FE0
1830
3018
3018
3018
3018
FF98
FF98
3018
3018
3018
3018
3018
3018
3018
3018
3018
3018
3018
3018
3018
3018
3018
3018
ENDCHAR
STARTCHAR F003
ENCODING 61443
SWIDTH 330 0
DWIDTH 11 0
BBX 10 11 0 12
BITMAP
0100
0300
0700
0F00
1F00
3B00
7FC0
FFC0
0300
0300
0300
ENDCHAR
STARTCHAR F004
ENCODING 61444
SWIDTH 330 0
DWIDTH 11 0
BBX 4 6 3 -8
BITMAP
20
30
60
60
C0
C0
ENDCHAR
STARTCHAR F005
ENCODING 61445
SWIDTH 330 0
DWIDTH 11 0
BBX 6 4 2 -6
BITMAP
38
0C
0C
F8
ENDCHAR
STARTCHAR F006
ENCODING 61446
SWIDTH 540 0
DWIDTH 18 0
BBX 18 18 0 0
BITMAP
FFFFC0
FFFFC0
FFFFC0
1C0E00
1C0E00
1C0E00
1C0E00
1C0E00
1C0E00
1C0E00
1C0E00
1C0E00
1C0E00
1C0E00
1C0E00
1C0E00
1C0E00
1C0E00
ENDCHAR
STARTCHAR F100
ENCODING 61696
SWIDTH 540 0
DWIDTH 18 0
BBX 14 24 3 0
BITMAP
FFFC
FFFC
FFFC
E000
E000
E000
E000
E000
E000
E000
E000
E000
E000
E000
E000
E000
E000
E000
E000
E000
E000
E000
E000
E000
ENDCHAR
STARTCHAR F101
ENCODING 61697
SWIDTH 750 0
DWIDTH 25 0
BBX 21 24 2 0
BITMAP
01FC00
07FF00
1FFFC0
1F03C0
3C01E0
7800F0
700070
700070
E00038
E00038
E3FE38
E3FE38
E3FE38
E00038
E00038
E00038
700070
700070
7800F0
3C01E0
3E03E0
1FFFC0
07FF00
01FC00
ENDCHAR
STARTCHAR F102
ENCODING 61698
SWIDTH 840 0
DWIDTH 28 0
BBX 23 27 2 -3
BITMAP
003800
003800
003800
03FF80
0FFFE0
1FFFF0
3E38F8
78383C
70381C
E0380E
E0380E
E0380E
E0380E
E0380E
E0380E
F0380E
70381C
78383C
3E38F8
1FFFF0
0FFFE0
03FF80
003800
003800
003800
003800
003800
ENDCHAR
STARTCHAR F103
ENCODING 61699
SWIDTH 630 0
DWIDTH 21 0
BBX 17 18 2 0
BITMAP
07C380
1FF380
3FFF80
7C1F00
700F00
F00F00
E00700
E00700
E00700
E00700
E00700
E00700
F00F00
700F00
7C3F00
3FFB80
1FF380
07C380
ENDCHAR
STARTCHAR F104
ENCODING 61700
SWIDTH 600 0
DWIDTH 20 0
BBX 16 25 2 0
BITMAP
01F8
03F8
07F8
0780
0700
0700
0380
03C0
01E0
00F0
07F8
1FFC
3FFE
781E
F00F
E007
E007
E007
E007
E007
700E
781E
3FFC
1FF8
07E0
ENDCHAR
STARTCHAR F105
ENCODING 61701
SWIDTH 510 0
DWIDTH 17 0
BBX 13 18 2 0
BITMAP
03F8
0FF8
3FF8
3C00
7000
7000
E000
FFF8
FFF8
FFF8
E000
E000
7000
7800
3E00
3FF8
0FF8
03F8
ENDCHAR
STARTCHAR F106
ENCODING 61702
SWIDTH 690 0
DWIDTH 23 0
BBX 20 18 2 0
BITMAP
07FFF0
1FFFF0
3FFFF0
7C1E00
700700
F00700
E00380
E00380
E00380
E00380
E00380
E00380
F00780
700700
7C1F00
3FFE00
1FFC00
07F000
ENDCHAR
STARTCHAR F107
ENCODING 61703
SWIDTH 480 0
DWIDTH 16 0
BBX 15 18 0 0
BITMAP
FFFE
FFFE
FFFE
0380
0380
0380
0380
0380
0380
0380
0380
0380
0380
0380
0380
0380
0380
0380
ENDCHAR
STARTCHAR F108
ENCODING 61704
SWIDTH 750 0
DWIDTH 25 0
BBX 23 28 1 -6
BITMAP
003800
003800
003800
003800
01FF00
0FFFE0
3FFFF0
3C3878
78383C
F0381C
E0380E
E0380E
E0380E
E0380E
E0380E
E0380E
70381C
78383C
3C3878
3FFFF8
0FFFE0
03FF80
003800
003800
003800
003800
003800
003800
ENDCHAR
STARTCHAR FB01
ENCODING 64257
SWIDTH 480 0
DWIDTH 16 0
BBX 13 25 1 0
BITMAP
07C0
1FF0
1838
3018
3000
3000
3000
FF98
FF98
3018
3018
3018
3018
3018
3018
3018
3018
3018
3018
3018
3018
3018
3018
3018
3018
ENDCHAR
STARTCHAR FB02
ENCODING 64258
SWIDTH 480 0
DWIDTH 16 0
BBX 13 25 1 0
BITMAP
07C0
1FE0
1830
3018
3018
3018
3018
FF98
FF98
3018
3018
3018
3018
3018
3018
3018
3018
3018
3018
3018
3018
3018
3018
3018
3018
ENDCHAR
ENDFONT
